<svg id="Camada_1" data-name="Camada 1" xmlns="http://www.w3.org/2000/svg" viewBox="0 0 489.06 451.66"><path d="M396.9,431.53c-9.95,5.55-21.33,5.6-32,8.22-4.37,1.07-7.94-.79-10.6-5.06-4-6.39-4.24-6.06-11-3.18C318.52,442.05,293,449,265.94,451.07c-22.9,1.79-45.54,1.05-68-3.17A233.69,233.69,0,0,1,94.12,400.17c-2.63-2.09-4.57-3.16-7.73-.7-2.2,1.72-4.85,2-7.47-.78C68,387.12,57.18,375.41,45.55,364.58c-5.83-5.43-4.82-10.81-2.72-16.61a4.86,4.86,0,0,0-.26-4.8C36,330.92,29,318.85,24.08,305.77c-11.75-31.06-16.75-63-14.29-96.28,2.75-37.31,15.12-71.17,34.57-102.73,2.17-3.52,4.68-6.85,7.14-10.18,1.41-1.91,1.65-3.34-.45-5-1.92-1.55-3.26-3.85-5.24-5.3-4-2.9-3.86-6.68-2.45-10.48,3.06-8.23,6.51-16.31,9.71-24.49A6.85,6.85,0,0,1,57,47.07c1.13,1.79,1,3.8,1,5.79C54,60,51.54,67.68,48.61,75.21c-1,2.6.47,2.77,2.38,2.8,6.3.11,12.61-.06,18.87.94a7.36,7.36,0,0,0,6-1.82c5.46-4.32,11-8.6,16.51-12.79a4.34,4.34,0,0,0,2-3.25C100.05,60.25,109,52.81,110,48a8.66,8.66,0,0,0,3.82-.77c6.71-3.4,11-9.81,17.43-13.65,4-2.37,5.37-6.35,4.78-11.15-.42-3.44,0-7-.1-10.48,0-1.41.53-3.28-1.51-3.74-1.58-.35-3.4-.66-4.53,1.09S126.82,10.94,125,11c-.29-.56-.68-1.63-.86-1.6-4.89.89-10.26.06-14.37,3.84l-4.51-2.61c10-7.38,22.28-5.69,33.45-8.45a2.77,2.77,0,0,1,3,1.36c1,1.34,2,2.62,2.88,4,2.23,3.45,3.47,8.84,6.95,9.79,3.09.85,7.25-2.38,11-3.65a280.44,280.44,0,0,1,52.82-12A227.14,227.14,0,0,1,262.23.28C280.77,1.59,299,5.55,316.91,10.86c22.18,6.58,42.44,17,61.7,29.54,1.85,1.2,3,.9,4.88.28,5.87-1.93,11.1-2.22,16.11,3.3,10.47,11.53,21.55,22.51,32.68,33.42,2.88,2.82,3.45,5.44,1.17,8.17s-1.08,4.71.62,6.9a215.12,215.12,0,0,1,32.44,59.18c5.89,16.29,9.4,33.11,11.8,50.31,2.54,18.22,1.76,36.3-.66,54.26-3.95,29.26-13.25,56.86-28.95,82.09-4.89,7.85-5,8,1.68,14.34,3.43,3.26,4.46,6.31,2.41,10.84s-3.45,9.69-5,14.6c-1.48,4.69-3.66,8.87-7.76,11.81l-2.22-4.83c2.94-1.58,7-9.56,6-12.43-.67-2-2.15-3.9-4.1-1.14s-4.44,2.38-7.05,2.45c-7.7.28-15.51.18-21.72,5.92a31.29,31.29,0,0,1-3.37-.63c-5.48-1.65-8.72-.14-11.63,5.5-1.13.94-3.14,1.05-3.05,3.16l0,0a6.49,6.49,0,0,0-4.39,2.09q-10,9-19.85,18a4.81,4.81,0,0,0-1.63,2.37q-1.71,10.75-3.16,21.57c-.21,1.51-.07,3.4,2.21,2.81,7.93-2.06,16.36-2,23.9-5.72Zm-111-.68c-.32.35-.64.7-.95,1.06a5.31,5.31,0,0,0-.89,0c-5.2-.65-10.17.51-15.09,2-3-2-6-.78-9,0-6.32.39-12.64,1.45-19,0l-7.79.05c-6.15.45-12.2-.82-18.31-1.06a9.81,9.81,0,0,0-10.58-.95c-3.92-1-7.8-2.14-11.76-2.9-1.15-.22-3.29-2-3.76,1-3.16-7.65-6.84-9.14-12.84-5.19l-1-.07a10.66,10.66,0,0,0-1.66-1,298.1,298.1,0,0,1-35.13-15.28c-14.8-7.73-27.88-17.95-40.64-28.6-2.64-2.2-4.13-3.15-6.38,1-2.64,4.83-2,7.93,2.25,10.9,1.75,1.23,3.37,2.67,5,4a215.55,215.55,0,0,0,73.9,39c3.85,4,8.14,6,13.5,2.86,4.24,3.47,9.37,3.76,14.5,4.05,4.37,6.75,9.17,7.37,15.54,2l13,2q10.2,9.45,16.07-2c.32,2.36,2.13,2,3.7,2,2.74,0,5.49,0,8.23,0,6.08,5.52,11.74,4.77,16-2.12.22.72,0,1.43,1.46.9,3.14-1.2,6.47-1.91,9.72-2.83h0c0,2,1.38,2.07,2.84,2,4.87,1.08,9.3.84,12.21-4,4.81.84,7.8-3.75,12.21-4.08,3.72.39,7.34.25,10.59-1.95,7.54-4.27,16.73-5,23.41-11.14-.87-1-2.63-2.05-2.88-3.4-.94-5.06-4.71-3.78-7.31-3-4.59,1.4-8.89,3.71-13.31,5.65-5.73-4.09-8.27-3.89-11.88.9-.33.34-.65.69-1,1L307,426l-10.14,4c-3.3-2.66-6.61-3.2-10-.09ZM22,173.94c0,.33,0,.66,0,1-4.56,2.58-5.17,5.9-2,10.89-2.76,4.32-2.41,9.3-3,14.08v1l0,0c-3.94,4.05-4.2,7-1,11.8-1.19,5-1,10-.94,15.11-4.76,6.72-4.48,11,1,14.62-.54,4.19,1,8.21,1,12.35,0,.35-.05.7-.08,1.05L16,256.92c-3.91,5.9-2.86,9.37,3.92,12.95a216.87,216.87,0,0,0,31.71,75.67c3.16,4.78,6.1,6,11.19,3.38,2.88-1.47,4-2.28,1.55-5.3a117.92,117.92,0,0,1-9-13.12,214.74,214.74,0,0,1-25.4-65c1.13-4.09.36-7.65-2.87-10.55,2.5-5-1.21-10-.11-15,2-3.92,1.11-7.58-1-11.13A47.36,47.36,0,0,1,26.3,223c.52-3.15,1.75-6.26-.29-9.31,5.42-3.87,5.85-6.83,1.94-13.32a31,31,0,0,0,2-11.91c6-3.84,6.62-8,2.06-14.38,3.23-3,2.78-7.66,5-11.14,5.34-4.28,6-6.25,4-12.82a84.27,84.27,0,0,0,6-13c6.19-2.26,7-3.61,7-11.56,1.76-4.88,4.85-9,7.75-13.21,4-5.78,4.7-4.81-1.19-11.42-1.87-2.1-3.18-2.34-4.86.38-4.07,6.6-8.41,13-12.63,19.52L41,123l0,0c-3.64,1.9-3.87,5.34-4,8.84-1.41,5.3-5.24,9.62-6.05,15.16a2.84,2.84,0,0,0,0,.92c-1.3.08-2,.68-1.93,2.08-5.41,1.53-3.09,5.63-3,9A97.34,97.34,0,0,0,22,173.94Zm281.83-150A16.44,16.44,0,0,0,317,28c2.94,4.06,6,7.76,11.82,4.86a10.15,10.15,0,0,0,1.92,1.46c18.1,7.92,35.56,16.92,50.5,30.21,2.21-2.3,2.42-5.29,3.83-7.67s.65-4-1.32-5.53a197,197,0,0,0-46-26.28c-1.43-.59-3.06-1.64-4.58,0,.05-4.47-2.48-6.85-6.5-8-2.36-.66-4.4,1.15-6.7.95l-12-3.12C304.51,8,300.57,7,293.21,11c-4.48-2-9.64-.76-14.06-3C273.6,3.07,270.69,2.84,266,7l0,0L264.2,8c-3.57-2.39-7.65-1.94-11.63-2-5-4.57-8.14-4.57-14.3,0-2.41,0-4.84-.12-7.24.08-1.87.15-4.39-1.1-5.22,2-3.6-5-8.51-5.82-11.84-2l0,0c-2.22-.21-2.6,1.76-3.58,3-4.66.22-9.52-.45-13.51,2.89-3.38-3.58-7-4.12-10.92-.88-.34.33-.67.66-1,1-1.47.36-1.66,1.83-2.44,2.79a110.25,110.25,0,0,0-23.24,7c-1.78.71-4.87.38-4,3.76,1.18,4.67,5,8,8,6.83,7.57-3,15.44-5,23.18-7.37,4.33,1.29,8.31,1.27,11.17-3,5.89-.21,11.51-2.84,17.52-2,3.55.08,7.25.64,9.69-3,4.9,2.23,10.07.23,15.07.94,3.82,1.08,7.64,2.07,11.16-.86,4.56,1.69,9.3.59,13.94.87,3.25,2.8,6.81,3.88,10.91,2,5.83-.49,11.22,2.64,17.06,2.06C296.14,25.18,299.75,25.89,303.83,23.91ZM471.94,204c-.12-5.14.48-10.37-2-15.2,3.1-6.18,2.33-9.57-3.11-13.69,1.24-1.07.25-2.22-.06-3.18-2.18-6.78-4.32-13.57-6.78-20.24A204.94,204.94,0,0,0,424.44,90c-2.25-2.67-8.09-2.37-11.2,1-2.56,2.78.84,4.25,2.19,5.9A201.84,201.84,0,0,1,444.1,142.7c5.14,11.52,8.85,23.5,12.9,35.38l-.07,1.87,0,0c-3.55,4.23-2.68,7.32,3.05,10.91A28,28,0,0,0,461.92,207c-2.46,3.44-2.55,7.09-.92,10.88A83,83,0,0,1,462,234c0,.65,0,1.31,0,2l0,0c-3.33,3.66-3.09,7.25.2,10.79A24,24,0,0,0,460.05,261a5.36,5.36,0,0,0-.12,1l.05,0c-5.33,2.05-4,6.56-3.92,10.59.43,4.68-2.27,8.88-2.1,13.51-4.37,2.39-7,5.7-5.94,11,.79,4.61-1.61,8.15-3.93,11.72-1.29,1.18-3.91.63-4.15,3.17l0,0c-5,2.43-2.89,6.27-1.94,9.87-1.11,2-2.17,4-3.33,6-3.78,6.35-3.65,6.48,1.61,11.67,3,2.92,4.52,1.74,5.57-1.42a39.47,39.47,0,0,1,8-13.33,15,15,0,0,0,4-9.55c.49-5.08,4.66-8.47,6-13.15,4.71-3.23,5.18-7.77,3.93-12.83A26.58,26.58,0,0,0,466.89,276c6-3.41,7.1-9.16,2.88-14.91,2.93-4.09,2.46-9,3.12-13.56,4.36-5.35,4.35-8.7-.05-14.43,2.23-4.54.46-9.4,1.12-14.07C477.42,212.09,477.1,209.77,471.94,204ZM416,353.91c-3.18-3.5-16.62-7.3-20.57-5.88-1.44.52-1.32,1.7-1.44,2.82-6.16,2.23-9.7,7.51-13.95,12-8.09,6.08-15.23,13.24-22.61,20.13-1.05,1-1.69,2.08-1.09,3.54,2.59,6.29,5.19,12.56,7.83,19a9.16,9.16,0,0,0,1.58-.91c11.54-11.28,24.2-21.36,35.31-33.12,3.49-3.7,8.35-6,11-10.55l7.66-5.68C418.58,353.36,417.13,354.12,416,353.91ZM136,63.92c2.48-1.23,5.62-2.76,4.95-5.72-1.36-6.05-.88-12.38-3-18.26,0-3.28-1.24-3.89-3.62-1.52-1.47,1.46-2.87,3-4.3,4.5-4.85,1.65-8.07,5.64-12,8.54C104.88,61,92,70.84,79,80.57c-1.36,1-2.3,2-.17,3.32,5.06,3.14,10.1,6.31,15,9.64a3,3,0,0,0,4-.13c7.26-6,15.34-10.94,22.18-17.46A72.1,72.1,0,0,0,136,63.92ZM390,83.19c7.31,8.4,8.46,8.8,17.83,4.22,4.86-2.37,9.44-5.31,14.08-8.12,1-.63,2.54-1.67,1.2-3.16-3.48-3.86-5.82-8.83-10.81-11.23-4.92-5.37-9.88-10.71-14.76-16.13-2.14-2.38-3.4-1.86-4.52.91C390.52,55.82,388,62,385.28,68,380.78,78.16,379.66,76.29,390,83.19ZM84.26,354.89c-1.23-1.75-2.55-3.45-3.68-5.27-.93-1.51-1.94-2-3.69-1.34-8.9,3.57-17.83,7.07-26.75,10.6-1.46.58-2.42,1.35-.9,2.84Q58.62,370.9,68,380c2.39,2.52,4.93,4.9,7.13,7.57,2.94,3.56,5.22,2.06,6.84-.93,3.35-6.15,6.35-12.48,9.51-18.73a4.57,4.57,0,0,0-.58-5.13C88.8,360.09,86.49,357.53,84.26,354.89ZM247.79,23.25c-27.21.48-52,4.15-76.25,12.3-9.07,3.05-15.39,7.19-17.93,16.73-.85,3.2-1.72,7-4.76,9.12C133.47,71.87,119,83.52,104.21,94.81a48.89,48.89,0,0,1-19.8,9.33c-5.78,1.27-12,1.85-15.67,8.18C62.6,122.77,56.1,133,50.81,143.92c-16.71,34.4-20.88,71-16.47,108.48,3.52,30,14.48,57.49,31.19,82.68A5.53,5.53,0,0,0,69.71,338c6.21.95,11.49,3.25,15.17,9.09s8.31,11.21,12.87,16.49c1.68,2,2.8,3.76,2.26,6.2-.79,3.62.9,5.78,3.54,8,27.31,23.05,58.51,37.95,93.33,45.82,17.85,4,35.94,5.26,54,5,23.87-.33,47.09-5.05,69.73-12.94,11.4-4,20.83-9.1,23.92-21.86.69-2.85,2.38-5.47,3.71-8.14a11.58,11.58,0,0,1,2.72-4c15.81-13.45,30.71-27.9,45.87-42.06a13,13,0,0,1,6-3.22c5.81-1.46,11.59-3.14,17.49-4,3.95-.59,6.08-2.59,8-5.77C442.06,303.82,451,279.43,454.15,253c2.77-23.31,3-46.55-2.45-69.49a200,200,0,0,0-39.9-81.59c-2.28-2.81-4.27-5-8.21-3.25-1.87.82-3.57-.16-5-1.37-6.26-5.18-12.47-10.42-18.79-15.54-3.17-2.56-5.78-5.21-6.33-9.63-.7-5.72-3.22-9.94-8.76-13.18-8.89-5.19-17.76-10.34-27-14.93-16.51-8.23-34.44-11.79-52.15-16.18C272.52,24.56,259.3,23.6,247.79,23.25ZM353.4,412.88c-1.82,0-3.64.07-5.45,0-2.76-.13-2.77,1.14-1.51,2.93q5,7.09,10.08,14.09c.55.75,1.18,1.87,2.29,1.47s1.08-1.54,1.2-2.54c.33-2.61.75-5.21,1-7.83C361.79,412.86,361.76,412.86,353.4,412.88Zm-1.16-23.3c-4,5.87-6.06,11.82-8.7,17.45-1,2.11,1.16,1.85,2.37,1.87,3.49.07,7-.1,10.48.09,3.19.18,3.84-1,2.62-3.77C356.87,400.37,354.79,395.48,352.24,389.58ZM90.44,97C85.36,93.7,81,91,76.82,88c-3-2.16-4.16-.65-4.74,2.11-.7,3.39-1.24,6.83-1.86,10.24-.3,1.68,0,2.6,2,2.06C78.11,100.87,84.15,100,90.44,97ZM66,100c.84-5.13,1.6-9.36,2.21-13.61.25-1.78-.11-3.41-2.47-3.42-5,0-10.08,0-16.34,0C55.31,88.94,59.54,94.83,66,100Zm81.31-46.43c3.16-4.16,4.23-8.9,6.41-13.09.65-1.23,1.06-3.54-1-4.27-3.18-1.09-6.28-3.26-9.89-1.62a1.85,1.85,0,0,0-.55,1.73C145,41.53,142.92,48.19,147.27,53.53Z" fill="#c48727"/><path d="M396.9,431.53,390,429c-2.82-1-5.7-1.88-8.43-3.08s-3.84-2.84-3-6.3c1.93-8.37,5.28-15.56,12.57-20.63,2.27-1.59,4-4,5.94-6L411,379.87c6.21-5.74,14-5.64,21.73-5.92q2.55,5.57,5.11,11.12L440,389.9a1.57,1.57,0,0,0,.05.49c5.58,13,5.57,13-4.83,22.5-7.13,6.51-14.35,12.91-21.28,19.62-2.85,2.76-5.32,4-9.13,1.9C402.41,433.07,399.56,432.47,396.9,431.53Zm8.15-6.22a4.08,4.08,0,0,0-2.56-4.78c-4.33-2-8.58-4.27-12.9-6.34-1.79-.86-4.06-2.9-4.76,1-.46,2.61-3.92,5.82,1.26,7.58,5,1.7,10,3.36,15,5.28C404.06,429.27,405.51,428.84,405.05,425.31Zm6.21-15.05c-5.38-1.45-10.95-2.13-16.19-4.1a8.41,8.41,0,0,0-3.44-.17,2.09,2.09,0,0,0-2.15,1.68c-.17,1.06.84,1.35,1.52,1.69,3.52,1.82,7.29,3.26,10.59,5.41C406.39,417.9,409.42,416.28,411.26,410.26Zm-1.1,18c3.44-1,5-3.23,6.75-5.12,2.06-2.19.9-4.54-.74-6.17-2.09-2.06-3.1.65-4.3,1.66C408.79,421.23,410.38,424.71,410.16,428.27Z" fill="#952721"/><path d="M58,52.86c0-2,.15-4-1-5.79-.45-3.62-.5-7.35-1.48-10.82-.91-3.23.24-4.87,2.61-6.64,10-7.43,20-14.8,29.71-22.57,4.35-3.49,8-4,12.11-.13a43.21,43.21,0,0,0,5.3,3.7l4.51,2.61A40,40,0,0,0,119.94,20l0,0a2.61,2.61,0,0,0,.2.91c-1.48,7.86-3.13,15.63-10.19,20.74a5.55,5.55,0,0,0-3.17,2.26A3.41,3.41,0,0,0,104,45.85a40.74,40.74,0,0,0-9.21,6.82,71.06,71.06,0,0,0-6.11,4.13c-6.21,5.15-12.84,8.82-21.31,9-4.65.11-7.19-.84-7.8-5.76C59.27,57.65,59.47,55,58,52.86Zm9.41,8.07c4.6.08,6.55-.87,6-3.09-1.43-5.77-2.9-11.56-4.86-17.16-.94-2.7-4.1-2.91-6.4-2.36-2.12.5-1,2.76-.77,4.27.82,5,1.92,10.07,2.52,15.14C64.19,60.31,65.09,61.35,67.4,60.93Zm14.44-9.2c-1.16-3.21-.75-7.39-.93-11.52-.08-1.9,1.07-5-.8-5.43-2.27-.58-4.25,2-6.22,3.47-1.21.88-.43,2.07-.11,3.18,1.15,4,2.17,8,3.42,12,.45,1.45.17,4.09,2.16,3.89C81.55,57.07,82.19,54.78,81.84,51.73ZM63.72,32.4c2.21,2,4.89,1.59,7.43,1.47a2.79,2.79,0,0,0,2.76-2.4c.21-1.29.29-2.64-1.09-3.51s-2.64-1.37-4.06-.17C67.05,29.24,64.7,30,63.72,32.4Z" fill="#952721"/><path d="M247.79,23.25c11.51.35,24.73,1.31,37.76,4.54,17.71,4.39,35.64,8,52.15,16.18,9.21,4.59,18.08,9.74,27,14.93,5.54,3.24,8.06,7.46,8.76,13.18.55,4.42,3.16,7.07,6.33,9.63,6.32,5.12,12.53,10.36,18.79,15.54,1.47,1.21,3.17,2.19,5,1.37,3.94-1.72,5.93.44,8.21,3.25a200,200,0,0,1,39.9,81.59c5.4,22.94,5.22,46.18,2.45,69.49-3.16,26.48-12.09,50.87-25.83,73.62-1.92,3.18-4.05,5.18-8,5.77-5.9.89-11.68,2.57-17.49,4a13,13,0,0,0-6,3.22C381.7,353.75,366.8,368.2,351,381.65a11.58,11.58,0,0,0-2.72,4c-1.33,2.67-3,5.29-3.71,8.14-3.09,12.76-12.52,17.89-23.92,21.86-22.64,7.89-45.86,12.61-69.73,12.94-18.09.25-36.18-1-54-5-34.82-7.87-66-22.77-93.33-45.82-2.64-2.23-4.33-4.39-3.54-8,.54-2.44-.58-4.25-2.26-6.2-4.56-5.28-9.17-10.62-12.87-16.49s-9-8.14-15.17-9.09a5.53,5.53,0,0,1-4.18-2.93c-16.71-25.19-27.67-52.7-31.19-82.68-4.41-37.51-.24-74.08,16.47-108.48C56.1,133,62.6,122.77,68.74,112.32c3.72-6.33,9.89-6.91,15.67-8.18a48.89,48.89,0,0,0,19.8-9.33C119,83.52,133.47,71.87,148.85,61.4c3-2.07,3.91-5.92,4.76-9.12,2.54-9.54,8.86-13.68,17.93-16.73C195.78,27.4,220.58,23.73,247.79,23.25Zm-3.18,66.58c-12.34-1.18-27.25,1.23-41.57,7.49-9.39,4.11-14.9,10.83-15.37,21.27-.16,3.66-.45,7.33-.3,11,.13,3.16-.65,5-3.85,6.46A122.43,122.43,0,0,0,155.47,154c-17.19,14.83-29.47,33.41-39.23,53.54C101.3,238.33,89.41,270,91.1,305.32c1.08,22.74,14.63,43.32,35.23,50.14,8.81,2.91,18,2.9,27.16,3.09a387.76,387.76,0,0,0,97-9.94c22.26-5.23,44.12-12.35,62.77-25.57,11.51-8.16,22.83-11.39,36.29-10,7.63.78,13.95-2.56,19.32-7.67,9.61-9.13,13.57-21.09,16.1-33.6,4-19.69,4.22-39.65,4.22-59.65,0-14-2.21-27.45-8-40.19-1.27-2.77-.61-4.15,1.6-6.08,7.2-6.27,13.27-13.17,10.18-24a30.71,30.71,0,0,0-3.79-8.61c-8.6-12.86-21.39-24.37-39.39-12.65-2.37,1.55-3.56.24-5.09-1a115.49,115.49,0,0,0-31.79-19.33C292,92,270.09,89.58,244.61,89.83Z" fill="#fdfdfd"/><path d="M457,178.08c-4.05-11.88-7.76-23.86-12.9-35.38a201.84,201.84,0,0,0-28.67-45.84c-1.35-1.65-4.75-3.12-2.19-5.9,3.11-3.37,8.95-3.67,11.2-1A204.94,204.94,0,0,1,460,151.72c2.46,6.67,4.6,13.46,6.78,20.24.31,1,1.3,2.11.06,3.18C463,174.31,459.62,174.89,457,178.08Z" fill="#ecb763"/><path d="M172.37,434.94a215.55,215.55,0,0,1-73.9-39c-1.68-1.35-3.3-2.79-5-4-4.21-3-4.89-6.07-2.25-10.9,2.25-4.12,3.74-3.17,6.38-1,12.76,10.65,25.84,20.87,40.64,28.6a298.1,298.1,0,0,0,35.13,15.28,10.66,10.66,0,0,1,1.66,1,2.53,2.53,0,0,0-.3.79C171.26,428.08,171.52,431.44,172.37,434.94Z" fill="#ecb763"/><path d="M412,360.88c-2.68,4.56-7.54,6.85-11,10.55-11.11,11.76-23.77,21.84-35.31,33.12a9.16,9.16,0,0,1-1.58.91c-2.64-6.4-5.24-12.67-7.83-19-.6-1.46,0-2.56,1.09-3.54,7.38-6.89,14.52-14,22.61-20.13.1.84.32,2,1.26,1.81,7.53-1.36,15.33-1.22,22.61-4C406.59,359.54,409.4,358.34,412,360.88Z" fill="#ecb763"/><path d="M120.09,75.94c-6.84,6.52-14.92,11.47-22.18,17.46a3,3,0,0,1-4,.13c-4.94-3.33-10-6.5-15-9.64-2.13-1.33-1.19-2.3.17-3.32C92,70.84,104.88,61,118,51.46c4-2.9,7.18-6.89,12-8.54,0,5.43-2.94,10-4.84,14.77A87.42,87.42,0,0,0,120.09,75.94Z" fill="#ecb763"/><path d="M30,265.52a214.74,214.74,0,0,0,25.4,65,117.92,117.92,0,0,0,9,13.12c2.42,3,1.33,3.83-1.55,5.3-5.09,2.58-8,1.4-11.19-3.38a216.87,216.87,0,0,1-31.71-75.67C23.81,269.62,27.41,268.74,30,265.52Z" fill="#ecb763"/><path d="M333.17,25c1.52-1.63,3.15-.58,4.58,0a197,197,0,0,1,46,26.28c2,1.52,2.74,3.15,1.32,5.53s-1.62,5.37-3.83,7.67c-14.94-13.29-32.4-22.29-50.5-30.21a10.15,10.15,0,0,1-1.92-1.46C331,30.64,333.07,28.36,333.17,25Z" fill="#ecb763"/><path d="M397.05,393c-2,2-3.67,4.43-5.94,6-7.29,5.07-10.64,12.26-12.57,20.63-.79,3.46.39,5.13,3,6.3S387.2,428,390,429c-7.54,3.68-16,3.66-23.9,5.72-2.28.59-2.42-1.3-2.21-2.81q1.45-10.8,3.16-21.57A4.81,4.81,0,0,1,368.7,408q9.89-9.08,19.85-18a6.49,6.49,0,0,1,4.39-2.09C392.8,390.79,396.31,390.79,397.05,393Z" fill="#ecb763"/><path d="M58,52.86c1.48,2.18,1.28,4.79,1.58,7.19.61,4.92,3.15,5.87,7.8,5.76,8.47-.19,15.1-3.86,21.31-9a71.06,71.06,0,0,1,6.11-4.13c1.55,2.91-1.87,5.53-.49,8.42a4.34,4.34,0,0,1-2,3.25c-5.56,4.19-11,8.47-16.51,12.79a7.36,7.36,0,0,1-6,1.82C63.6,78,57.29,78.12,51,78c-1.91,0-3.39-.2-2.38-2.8C51.54,67.68,54,60,58,52.86Z" fill="#ecb763"/><path d="M68,380q-9.37-9.15-18.76-18.32c-1.52-1.49-.56-2.26.9-2.84,8.92-3.53,17.85-7,26.75-10.6,1.75-.7,2.76-.17,3.69,1.34,1.13,1.82,2.45,3.52,3.68,5.27C78.55,363.09,73,371.36,68,380Z" fill="#ecb763"/><path d="M390,83.19c-10.35-6.9-9.23-5-4.73-15.18C388,62,390.52,55.82,393,49.68c1.12-2.77,2.38-3.29,4.52-.91,4.88,5.42,9.84,10.76,14.76,16.13-1.68,1-4,.83-5.23,2.57C403.19,73,397.42,76.21,392,79.75,390.43,80.75,389.94,81.62,390,83.19Z" fill="#ecb763"/><path d="M109.92,41.65c7.06-5.11,8.71-12.88,10.19-20.74l1.15-.58L119.91,20l0,0a4.68,4.68,0,0,1,2.29-4.63A5.64,5.64,0,0,0,125,11c1.82,0,3.7.14,4.91-1.73s3-1.44,4.53-1.09c2,.46,1.48,2.33,1.51,3.74.07,3.5-.32,7,.1,10.48.59,4.8-.82,8.78-4.78,11.15-6.41,3.84-10.72,10.25-17.43,13.65A8.66,8.66,0,0,1,110,48l-1-2a2.12,2.12,0,0,0,1-2Z" fill="#c17e4a"/><path d="M390,83.19c-.07-1.57.42-2.44,2-3.44,5.45-3.54,11.22-6.77,15.11-12.28,1.23-1.74,3.55-1.58,5.23-2.57,5,2.4,7.33,7.37,10.81,11.23,1.34,1.49-.16,2.53-1.2,3.16-4.64,2.81-9.22,5.75-14.08,8.12C398.47,92,397.32,91.59,390,83.19Z" fill="#d58b51"/><path d="M68,380c5-8.68,10.55-17,16.26-25.15,2.23,2.64,4.54,5.2,6.64,7.93a4.57,4.57,0,0,1,.58,5.13c-3.16,6.25-6.16,12.58-9.51,18.73-1.62,3-3.9,4.49-6.84.93C72.93,384.94,70.39,382.56,68,380Z" fill="#d58b51"/><path d="M186.46,24.92c-7.74,2.4-15.61,4.39-23.18,7.37-3,1.17-6.79-2.16-8-6.83-.86-3.38,2.23-3.05,4-3.76a109.64,109.64,0,0,1,23.24-6.94C180.66,19.37,183.58,22.14,186.46,24.92Z" fill="#ecb763"/><path d="M120.09,75.94a87.42,87.42,0,0,1,5.08-18.25c1.9-4.8,4.82-9.34,4.84-14.77,1.43-1.5,2.83-3,4.3-4.5,2.38-2.37,3.58-1.76,3.62,1.52-3.05.32-2.85,2.57-3,4.78-.29,6.44,1.68,12.75,1,19.2A72.1,72.1,0,0,1,120.09,75.94Z" fill="#d58b51"/><path d="M412,360.88c-2.64-2.54-5.45-1.34-8.18-.28-7.28,2.82-15.08,2.68-22.61,4-.94.17-1.16-1-1.26-1.81,4.25-4.47,7.79-9.75,13.95-12,3.55-.06,6.8,1.14,10.18,2,3.82,1,7.65,3.5,11.83,1.05,1.18.21,2.63-.55,3.75,1.29Z" fill="#d58b51"/><path d="M43,120.83c4.22-6.49,8.56-12.92,12.63-19.52,1.68-2.72,3-2.48,4.86-.38,5.89,6.61,5.23,5.64,1.19,11.42-2.9,4.16-6,8.33-7.75,13.21C51.18,121.9,47.69,120,43,120.83Z" fill="#ecb763"/><path d="M321.79,421.94c4.42-1.94,8.72-4.25,13.31-5.65,2.6-.79,6.37-2.07,7.31,3,.25,1.35,2,2.41,2.88,3.4-6.68,6.17-15.87,6.87-23.41,11.14C325.05,429.84,323.67,425.88,321.79,421.94Z" fill="#c17e4a"/><path d="M321.79,421.94c1.88,3.94,3.26,7.9.09,11.88-3.25,2.2-6.87,2.34-10.59,1.95-3-2.6-4.87-5.65-4.26-9.8l1.91-2.1.09.08c.18,1.75-.4,3.83,1.86,4.69a3.16,3.16,0,0,0,3.27-.56c1.57-1.28,2.5-3,1.56-4.81-1.53-2.91-3.76-.3-5.68-.29l-.14-.14C313.52,418.05,316.06,417.85,321.79,421.94Z" fill="#952721"/><path d="M16,242.44c-5.44-3.64-5.72-7.9-1-14.62,3.92-2.43,7.56-1.93,11,1,2.09,3.55,3,7.21,1,11.13C23.71,242.43,20.12,243.57,16,242.44Zm4.65-10.51c-.34-1.59-.89-3.06-2.82-2.86A4,4,0,0,0,14,233.4c0,1.94,1.07,2.61,2.89,2.48C19.38,235.7,20.09,233.89,20.67,231.93Z" fill="#952721"/><path d="M215.91,443.87c-6.37,5.35-11.17,4.73-15.54-2-1.15-4.3,1.06-7.23,4-9.88a9.79,9.79,0,0,1,10.57.95A12.78,12.78,0,0,1,215.91,443.87Zm-9.35-4.95c2-.08,3.81-.94,4.18-3.21s-1.32-2.75-3.16-2.83c-2.45-.1-3.73,1.4-4.1,3.51S204.77,438.75,206.56,438.92Z" fill="#952721"/><path d="M20,185.82c-3.16-5-2.55-8.31,2-10.89h0c.07,1.9-2.31,4.23.65,5.62a3.85,3.85,0,0,0,5.3-2.28c2.2-5.5-2.7-3.56-5-4.36v0c3.06-2.28,6.08-2.19,9,.17,4.56,6.33,4,10.53-2.06,14.37A10.41,10.41,0,0,1,20,185.82Z" fill="#952721"/><path d="M463.84,289.12c1.25,5.06.78,9.6-3.93,12.83-5,.74-9-.66-11.89-4.91-1.11-5.34,1.57-8.65,5.94-11C457.76,285.45,461.25,285.85,463.84,289.12Zm-9.07-1.23c-1.89.07-3.45,1.31-3.75,3.79-.17,1.43.43,2.94,2,2.75,2.4-.27,4.42-1.49,4.77-4.21C458,288.51,456.89,287.93,454.77,287.89Z" fill="#952721"/><path d="M333.17,25c-.1,3.36-2.13,5.64-4.35,7.82C323,35.72,319.94,32,317,28c-1.93-4.19.74-7,3-10,2.3.2,4.34-1.61,6.7-.95C330.69,18.15,333.22,20.53,333.17,25Zm-6.31-2.61c.2-2.73-.85-3.54-2.66-3.45-2.14.11-4,.79-4.21,3.32-.19,1.93.85,2.78,2.7,2.65C324.8,24.75,326.64,24.16,326.86,22.39Z" fill="#952721"/><path d="M453.88,315.1a15,15,0,0,1-4,9.55c-4.67,2-8.38.08-11.84-2.88-.95-3.6-3.09-7.44,1.94-9.87,0,.49,0,1,0,1.48-.12,2.29-.06,4.7,3.14,4.15,2.16-.36,4.17-1.72,3.69-4.4-.59-3.31-2.94-2.23-5-1.66-.62.18-1.26.31-1.89.46.24-2.54,2.86-2,4.15-3.17C449.07,308.22,452,310.82,453.88,315.1Z" fill="#952721"/><path d="M43,120.83c4.69-.86,8.18,1.07,10.93,4.73,0,7.95-.77,9.3-7,11.56-4.36.16-7.55-1.87-9.95-5.36.13-3.5.36-6.94,4-8.84a3.08,3.08,0,0,1-.1,1c-1.22,2.46-1.12,5,1.81,5.43a4.27,4.27,0,0,0,4.73-4.08c0-3.22-3-2.12-5-2.25-.49,0-1,0-1.48,0Z" fill="#952721"/><path d="M233.25,434l7.79-.06c2.88,2.7,4.42,5.92,3.9,9.94q-5.85,11.46-16.07,2C226.68,440.57,229.76,437.2,233.25,434Zm2.33,1.85a3.74,3.74,0,0,0-4.1,3.92c-.09,1.95,1.71,2.18,3.22,2.07,2.38-.18,4.11-1.36,4.11-3.94C238.82,435.75,237,435.93,235.58,435.83Z" fill="#952721"/><path d="M251.07,17.08c-3.52,2.92-7.34,1.93-11.16.85-3.5-3.59-3.77-7.62-1.64-12,6.16-4.55,9.32-4.55,14.3,0C253.28,9.83,253.64,13.65,251.07,17.08ZM246,7.56C246,6,245.36,4.93,243.72,5c-2.61.18-4.28,1.64-4.47,4.28-.12,1.82,1.2,2.68,2.88,2.49C244.57,11.54,245.79,10,246,7.56Z" fill="#952721"/><path d="M353.4,412.88c8.36,0,8.39,0,7.61,8.1-.25,2.62-.67,5.22-1,7.83-.12,1-.2,2.18-1.2,2.54s-1.74-.72-2.29-1.47q-5.1-7-10.08-14.09c-1.26-1.79-1.25-3.06,1.51-2.93C349.76,413,351.58,412.88,353.4,412.88Z" fill="#ecb763"/><path d="M352.24,389.58c2.55,5.9,4.63,10.79,6.77,15.64,1.22,2.77.57,3.95-2.62,3.77-3.48-.19-7,0-10.48-.09-1.21,0-3.35.24-2.37-1.87C346.18,401.4,348.25,395.45,352.24,389.58Z" fill="#ecb763"/><path d="M16,212.71c-3.18-4.76-2.92-7.75,1-11.8-.26.93-.57,1.85-.79,2.79-.39,1.75-.24,3.41,1.77,4A3.51,3.51,0,0,0,22.59,205c1.12-5.09-2.91-3.81-5.6-4.08,0-.35,0-.7,0-1,3.77-2.43,7.45-2.65,11,.48,3.91,6.49,3.48,9.45-1.94,13.32C22.48,215.35,19.17,214.71,16,212.71Z" fill="#952721"/><path d="M457,178.08c2.62-3.19,6-3.77,9.83-2.94,5.44,4.12,6.21,7.51,3.11,13.69-2.89,2.78-6.37,2.55-9.92,2-5.74-3.59-6.61-6.68-3.06-10.91.33,2-.81,4.56,2,5.65,1.29.5,2.32-.35,3-1.29,1.14-1.57,2.87-3.37,1.12-5.3-2.26-2.48-4.17,0-6.11,1C457,179.33,457,178.71,457,178.08Z" fill="#952721"/><path d="M186.46,24.92c-2.88-2.78-5.8-5.55-3.9-10.16.78-1,1-2.44,2.44-2.8l0,0c0,1-.06,2-.08,2.95,0,1.33-.07,2.8,1.41,3.37s2.91-.35,3.89-1.46,1.93-2.47,1.33-4c-1.05-2.72-3.66-1.42-5.59-1.89h0c3.92-3.24,7.54-2.7,10.92.88,2.14,3.24,1.88,6.64.71,10.11C194.77,26.19,190.79,26.21,186.46,24.92Z" fill="#952721"/><path d="M461.93,235.94c0-.65,0-1.31,0-2,3.49-2,7-3.06,10.87-.87,4.4,5.73,4.41,9.08.05,14.43-3.72,1.6-7.27,1-10.72-.86-3.29-3.53-3.53-7.12-.2-10.78,0,1-.07,2-.05,2.95,0,1.48,0,3.22,1.82,3.54a3.89,3.89,0,0,0,3.71-1.95c.85-1.22,1.57-2.5.61-4.07C466.19,233.36,464,236,461.93,235.94Z" fill="#952721"/><path d="M30,265.52c-2.58,3.22-6.18,4.1-10.06,4.35-6.78-3.58-7.83-7.05-3.92-12.95l.07.06c.26,2-1,4.54,1.8,5.66a3.26,3.26,0,0,0,3.64-1c1.33-1.3,1.93-3,1.08-4.53-1.25-2.27-3.57-.89-5.43-1l-.24-.28.08-1.05c3.4-1.81,6.8-3,10.11.18C30.35,257.87,31.12,261.43,30,265.52Z" fill="#952721"/><path d="M438,321.77c3.46,3,7.17,4.88,11.84,2.88a39.47,39.47,0,0,0-8,13.33c-1.05,3.16-2.6,4.34-5.57,1.42-5.26-5.19-5.39-5.32-1.61-11.67C435.86,325.78,436.92,323.76,438,321.77Z" fill="#c17e4a"/><path d="M172.37,434.94c-.85-3.5-1.11-6.86,2.31-9.3l.44.36c0,.17,0,.33,0,.49-.24,2.73.55,4.59,3.73,4.33,2.21-.18,4-1.29,3.94-3.57-.09-3.45-3-2.08-4.86-2.3-.65-.07-1.31-.05-2-.07l0,0c6-3.95,9.68-2.46,12.84,5.19a2.92,2.92,0,0,0,0,.59,2.13,2.13,0,0,0-.61,2.16,9.26,9.26,0,0,1-2.39,4.94C180.51,440.91,176.22,438.94,172.37,434.94Z" fill="#952721"/><path d="M456.06,272.49c-.05-4-1.41-8.54,3.92-10.59-.35.74-.71,1.47-1.05,2.21-.63,1.36-1.37,2.69.38,3.87s3.37.69,4.8-.75c1.07-1.09,2.23-2.34,1.53-3.86-1.21-2.63-3.78-1-5.71-1.43a5.36,5.36,0,0,1,.12-1c3.27-1.66,6.5-1.32,9.72.15,4.22,5.75,3.12,11.5-2.88,14.91C462.63,276.85,459.4,274.52,456.06,272.49Z" fill="#952721"/><path d="M266,7c4.73-4.13,7.64-3.9,13.19,1,1.57,4.7-.34,8.45-3.23,11.94-4.1,1.9-7.66.82-10.91-2-1.89-3.18-3.19-6.41-.81-9.94L266,6.93a10.39,10.39,0,0,1,.11,1.47c-.17,2.64.38,4.83,3.67,4.22,2.11-.4,4.52-1.36,4-4.09C273,5,270.31,5.82,267.86,6.59,267.24,6.78,266.59,6.84,266,7Z" fill="#952721"/><path d="M461,217.92c-1.63-3.79-1.54-7.44.93-10.88l1-.16c-.25.93-.56,1.86-.75,2.81-.45,2.21-.06,4.09,2.64,4.13,2.42,0,3.48-1.67,3.44-3.87-.07-3.87-2.47-4-5.36-3,2-4.25,5.72-2.88,9-2.88,5.16,5.74,5.48,8.06,2,15A14.14,14.14,0,0,1,461,217.92Z" fill="#952721"/><path d="M90.44,97c-6.29,2.94-12.33,3.83-18.17,5.4-2,.54-2.35-.38-2-2.06.62-3.41,1.16-6.85,1.86-10.24.58-2.76,1.7-4.27,4.74-2.11C81,91,85.36,93.7,90.44,97Z" fill="#ecb763"/><path d="M462.93,206.88l-1,.16A27.8,27.8,0,0,1,460,190.82c3.55.56,7,.79,9.92-2,2.48,4.83,1.88,10.06,2,15.2-3.32,0-7.07-1.37-9,2.88Z" fill="#ecb763"/><path d="M272.88,443.76c-4.27,6.89-9.93,7.64-16,2.12-1-3.7-1.44-7.27,2.11-10-.17.8-.3,1.61-.53,2.39a3.29,3.29,0,0,0,1.64,4.21c1.53.78,2.82-.2,4-1.29s2.29-2.59,1.58-4.37c-1.08-2.73-3.73-1.37-5.66-1.92,0-.32,0-.64.05-1,3-.8,6-2,9,0C271.45,436.74,273.55,439.7,272.88,443.76Z" fill="#952721"/><path d="M224.84,17c-2.44,3.59-6.14,3-9.69,3-3.59-2.8-6.58-5.85-4.72-11,1-1.26,1.36-3.23,3.58-3-1,2.08-3.53,4.19-.61,6.39,1.95,1.47,3.69,0,5.1-1.49,1.09-1.16,1.68-2.33.71-3.94C217.77,4.51,215.79,5.8,214,6c3.33-3.8,8.24-3,11.84,2C226.36,11.08,226.57,14.14,224.84,17Z" fill="#952721"/><path d="M293.21,11c7.36-4,11.3-3,14.72,3.88-.77,3.29-1.1,6.77-4.1,9.05-4.08,2-7.69,1.27-10.85-1.93C290.18,18.25,290.21,14.59,293.21,11Zm8.63,1.86c-.3-2.13-1.62-3.05-3.49-2.67-2.14.42-4.3,1.23-4.22,4,.07,2.13,1.57,2.91,3.43,2.55C299.7,16.32,301.76,15.53,301.84,12.84Z" fill="#952721"/><path d="M284.09,432a5.31,5.31,0,0,1,.89,0h0c.5,2.14-1.17,5.63,2.85,5.63a4,4,0,0,0,4.1-4.14c.05-3.53-2.44-3.35-4.82-3.32l-.19-.23c3.35-3.1,6.66-2.56,10,.1,1.86,3.05,3.36,6.18,2.19,9.9-2.91,4.86-7.34,5.1-12.21,4l-2.84-2h0A12,12,0,0,1,284.09,432Z" fill="#952721"/><path d="M66,100c-6.42-5.13-10.65-11-16.6-17,6.26,0,11.3,0,16.34,0,2.36,0,2.72,1.64,2.47,3.42C67.56,90.6,66.8,94.83,66,100Z" fill="#ecb763"/><path d="M41,150.13c2,6.57,1.39,8.54-4,12.82a13.18,13.18,0,0,1-11-4c-.1-3.36-2.42-7.46,3-9h0c-.85,1.89-1.68,3.94,1.11,4.8,2.28.7,4.42,0,5.15-2.5,1.08-3.67-1.64-4-4.2-4.23l-.13-.15a2.84,2.84,0,0,1,0-.92C34.88,146.17,38.41,146.61,41,150.13Z" fill="#952721"/><path d="M461,217.92A14.14,14.14,0,0,0,474,219c-.66,4.67,1.11,9.53-1.12,14.07-3.82-2.19-7.38-1.1-10.87.87A83,83,0,0,0,461,217.92Z" fill="#ecb763"/><path d="M185.87,437.8a9.26,9.26,0,0,0,2.39-4.94,2.28,2.28,0,0,0,.61-2.16,2.92,2.92,0,0,1,0-.59c.47-3,2.61-1.26,3.76-1,4,.76,7.84,1.9,11.76,2.9-2.93,2.65-5.14,5.58-4,9.88C195.24,441.56,190.11,441.27,185.87,437.8Z" fill="#d58b51"/><path d="M293.21,11c-3,3.61-3,7.27-.23,11-5.84.58-11.23-2.55-17.06-2.06,2.89-3.49,4.8-7.24,3.23-11.94C283.57,10.22,288.73,9,293.21,11Z" fill="#ecb763"/><path d="M233.25,434c-3.49,3.22-6.57,6.59-4.38,11.9l-13-2a12.78,12.78,0,0,0-1-10.95C221.05,433.16,227.1,434.43,233.25,434Z" fill="#d58b51"/><path d="M210.43,9c-1.86,5.14,1.13,8.19,4.72,11-6-.83-11.63,1.8-17.52,2,1.17-3.47,1.43-6.87-.71-10.11C200.91,8.5,205.77,9.17,210.43,9Z" fill="#ecb763"/><path d="M259,435.88c-3.55,2.73-3.12,6.3-2.11,10-2.74,0-5.49,0-8.23,0-1.57,0-3.38.34-3.7-2,.52-4-1-7.24-3.9-9.94,6.32,1.47,12.64.41,19,0,0,.32,0,.64-.05,1l0,0-1,1Z" fill="#d58b51"/><path d="M469.77,261.1c-3.22-1.47-6.45-1.81-9.72-.15a24,24,0,0,1,2.12-14.26c3.45,1.81,7,2.45,10.72.85C472.23,252.15,472.7,257,469.77,261.1Z" fill="#d58b51"/><path d="M41,150.13c-2.54-3.52-6.07-4-10-3.21.81-5.54,4.64-9.86,6.05-15.16,2.4,3.49,5.59,5.52,9.95,5.36A84.27,84.27,0,0,1,41,150.13Z" fill="#ecb763"/><path d="M147.27,53.53c-4.35-5.34-2.23-12-5.07-17.25a1.85,1.85,0,0,1,.55-1.73c3.61-1.64,6.71.53,9.89,1.62,2.1.73,1.69,3,1,4.27C151.5,44.63,150.43,49.37,147.27,53.53Z" fill="#895a34"/><path d="M16,212.71c3.17,2,6.48,2.64,10,1,2,3.05.81,6.16.29,9.31a47.36,47.36,0,0,0-.27,5.85c-3.41-3-7-3.47-11-1C15,222.76,14.81,217.69,16,212.71Z" fill="#ecb763"/><path d="M224.84,17c1.73-2.85,1.52-5.91,1-9,.83-3.05,3.35-1.8,5.22-1.95,2.4-.2,4.83-.07,7.24-.08-2.13,4.36-1.86,8.39,1.64,12C234.91,17.22,229.74,19.22,224.84,17Z" fill="#ecb763"/><path d="M456.06,272.49c3.34,2,6.57,4.36,10.83,3.52a26.58,26.58,0,0,1-3.05,13.11c-2.59-3.27-6.08-3.67-9.88-3.12C453.79,281.37,456.49,277.17,456.06,272.49Z" fill="#d58b51"/><path d="M303.83,23.91c3-2.28,3.33-5.76,4.1-9L320,18c-2.23,3-4.9,5.79-3,10A16.44,16.44,0,0,1,303.83,23.91Z" fill="#ecb763"/><path d="M26,158.91a13.18,13.18,0,0,0,11,4c-2.17,3.48-1.72,8.13-5,11.15-3-2.36-6-2.45-9-.17H22A97.34,97.34,0,0,1,26,158.91Z" fill="#ecb763"/><path d="M284.09,432a12,12,0,0,0,0,9.88c-3.25.92-6.58,1.63-9.72,2.83-1.42.53-1.24-.18-1.46-.9.67-4.06-1.43-7-3.88-9.84C273.92,432.46,278.89,431.3,284.09,432Z" fill="#c17e4a"/><path d="M109,46l1,2c-1.06,4.86-10,12.3-15.72,13.14-1.38-2.89,2-5.51.49-8.42A40.74,40.74,0,0,1,104,45.85C105.58,50.15,107.31,47.06,109,46Z" fill="#d58b51"/><path d="M27.12,255c-3.31-3.21-6.71-2-10.11-.18,0-4.14-1.53-8.16-1-12.35,4.1,1.13,7.69,0,11-2.45C25.91,245,29.62,250,27.12,255Z" fill="#ecb763"/><path d="M264.2,8c-2.38,3.53-1.08,6.76.81,9.94-4.64-.28-9.38.82-13.94-.87,2.57-3.42,2.21-7.24,1.5-11.11C256.55,6.06,260.63,5.61,264.2,8Z" fill="#ecb763"/><path d="M28,200.38c-3.52-3.13-7.2-2.91-11-.48.61-4.78.26-9.76,3-14.08a10.41,10.41,0,0,0,10,2.65A31,31,0,0,1,28,200.38Z" fill="#ecb763"/><path d="M397.05,393c-.74-2.21-4.25-2.21-4.11-5.13l0,0c1.4-.68,3.09-1.09,3.05-3.16,2.91-5.64,6.15-7.15,11.63-5.5a31.29,31.29,0,0,0,3.37.63Z" fill="#d58b51"/><path d="M453.88,315.1c-1.87-4.28-4.81-6.88-9.79-6.34,2.32-3.57,4.72-7.11,3.93-11.72,2.88,4.25,6.94,5.65,11.89,4.91C458.54,306.63,454.37,310,453.88,315.1Z" fill="#d58b51"/><path d="M299.08,439.85c1.17-3.72-.33-6.85-2.19-9.9L307,426c-.61,4.15,1.3,7.2,4.26,9.8C306.88,436.1,303.89,440.69,299.08,439.85Z" fill="#c17e4a"/><path d="M136,63.92c.64-6.45-1.33-12.76-1-19.2.1-2.21-.1-4.46,3-4.78,2.16,5.88,1.68,12.21,3,18.26C141.64,61.16,138.5,62.69,136,63.92Z" fill="#c17e4a"/><path d="M437.81,385.07q-2.56-5.56-5.11-11.12c2.6-.07,5.15.21,7-2.45s3.43-.82,4.1,1.14C444.82,375.51,440.75,383.49,437.81,385.07Z" fill="#d58b51"/><path d="M125,11a5.64,5.64,0,0,1-2.77,4.42A4.68,4.68,0,0,0,119.94,20a40,40,0,0,1-10.17-6.81c4.11-3.78,9.48-3,14.37-3.84C124.32,9.35,124.71,10.42,125,11Z" fill="#d58b51"/><path d="M416,353.91c-4.18,2.45-8-.07-11.83-1.05-3.38-.87-6.63-2.07-10.18-2,.12-1.12,0-2.3,1.44-2.82C399.33,346.61,412.77,350.41,416,353.91Z" fill="#c17e4a"/><path d="M396,384.74c0,2.07-1.65,2.48-3.05,3.16C392.83,385.79,394.84,385.68,396,384.74Z" fill="#ecb763"/><path d="M284,441.83l2.84,2C285.41,443.9,284,443.87,284,441.83Z" fill="#c17e4a"/><path d="M29,149.92c-.11-1.4.63-2,1.93-2.08l.13.15L29,149.92Z" fill="#952721"/><path d="M16,256.92l.92-1.08.23.28-1.08.86Z" fill="#952721"/><path d="M22,173.94h1v0l-1,1h0C22,174.6,22,174.27,22,173.94Z" fill="#952721"/><path d="M285,431.91c.31-.36.63-.71.95-1.06l.12.13-1.06.93Z" fill="#952721"/><path d="M185,12c.33-.34.66-.67,1-1h0l-1,1Z" fill="#952721"/><path d="M174.68,425.64a2.53,2.53,0,0,1,.3-.79l1,.07,0,0c-.28.38-.57.75-.85,1.12Z" fill="#952721"/><path d="M308.94,423.87l1-1,.14.14-1,1Z" fill="#952721"/><path d="M285.93,430.85l1-1,.18.23-1.06.9Z" fill="#952721"/><path d="M405.05,425.31c.46,3.53-1,4-4,2.77-4.92-1.92-10-3.58-15-5.28-5.18-1.76-1.72-5-1.26-7.58.7-3.93,3-1.89,4.76-1,4.32,2.07,8.57,4.29,12.9,6.34A4.08,4.08,0,0,1,405.05,425.31Z" fill="#d58b51"/><path d="M411.26,410.26c-1.84,6-4.87,7.64-9.67,4.51-3.3-2.15-7.07-3.59-10.59-5.41-.68-.34-1.69-.63-1.52-1.69a2.09,2.09,0,0,1,2.15-1.68,8.41,8.41,0,0,1,3.44.17C400.31,408.13,405.88,408.81,411.26,410.26Z" fill="#c17e4a"/><path d="M410.16,428.27c.22-3.56-1.37-7,1.71-9.63,1.2-1,2.21-3.72,4.3-1.66,1.64,1.63,2.8,4,.74,6.17C415.14,425,413.6,427.31,410.16,428.27Z" fill="#c17e4a"/><path d="M67.4,60.93c-2.31.42-3.21-.62-3.52-3.2-.6-5.07-1.7-10.09-2.52-15.14-.25-1.51-1.35-3.77.77-4.27,2.3-.55,5.46-.34,6.4,2.36,2,5.6,3.43,11.39,4.86,17.16C74,60.06,72,61,67.4,60.93Z" fill="#d58b51"/><path d="M81.84,51.73c.35,3.05-.29,5.34-2.48,5.55-2,.2-1.71-2.44-2.16-3.89-1.25-4-2.27-8-3.42-12-.32-1.11-1.1-2.3.11-3.18,2-1.43,4-4,6.22-3.47,1.87.48.72,3.53.8,5.43C81.09,44.34,80.68,48.52,81.84,51.73Z" fill="#c17e4a"/><path d="M63.72,32.4c1-2.4,3.33-3.16,5-4.61,1.42-1.2,2.73-.65,4.06.17s1.3,2.22,1.09,3.51a2.79,2.79,0,0,1-2.76,2.4C68.61,34,65.93,34.41,63.72,32.4Z" fill="#c17e4a"/><path d="M109,46c-1.69,1.1-3.42,4.19-5-.11a3.41,3.41,0,0,1,2.76-1.94L110,44A2.12,2.12,0,0,1,109,46Z" fill="#c48727"/><path d="M110,44l-3.23,0a5.49,5.49,0,0,1,3.16-2.26C110,42.42,110,43.18,110,44Z" fill="#d58b51"/><path d="M119.91,20l1.35.33-1.15.58A2.61,2.61,0,0,1,119.91,20Z" fill="#d58b51"/><path d="M244.61,89.83c25.48-.25,47.37,2.18,68.25,10.42a115.49,115.49,0,0,1,31.79,19.33c1.53,1.28,2.72,2.59,5.09,1,18-11.72,30.79-.21,39.39,12.65a30.71,30.71,0,0,1,3.79,8.61c3.09,10.8-3,17.7-10.18,24-2.21,1.93-2.87,3.31-1.6,6.08,5.83,12.74,8,26.18,8,40.19,0,20-.25,40-4.22,59.65-2.53,12.51-6.49,24.47-16.1,33.6-5.37,5.11-11.69,8.45-19.32,7.67-13.46-1.39-24.78,1.84-36.29,10-18.65,13.22-40.51,20.34-62.77,25.57a387.76,387.76,0,0,1-97,9.94c-9.14-.19-18.35-.18-27.16-3.09-20.6-6.82-34.15-27.4-35.23-50.14-1.69-35.35,10.2-67,25.14-97.81,9.76-20.13,22-38.71,39.23-53.54A122.43,122.43,0,0,1,183.52,136c3.2-1.5,4-3.3,3.85-6.46-.15-3.65.14-7.32.3-11,.47-10.44,6-17.16,15.37-21.27C217.36,91.06,232.27,88.65,244.61,89.83Zm-2.76,9.46a97.82,97.82,0,0,0-21.8,4.65c-6.79,2.42-14,4.25-18.21,11a3.06,3.06,0,0,0-1.88,3,16.29,16.29,0,0,0-2.12,4.87c-1.54,6.7-.56,13.44-.84,20.16-1.15.64-2.27,1.35-3.46,1.92-18.44,8.85-34.24,20.94-46.63,37.4-21,28-34.46,59.4-43,93.07-2.72,10.67-4.78,21.45-1.64,32.45a7.59,7.59,0,0,0,.09,2.44c10.11,26.87,25.73,38.08,52,38.62a331,331,0,0,0,99.81-13.18c25.7-7.48,50-18,69.74-37,1.47,1.88,3.88,1.63,5.81,2.44,11.16,4.65,21.46,3.31,30.08-5.57a53,53,0,0,0,13.95-25.34c4.17-18.85,6.68-37.88,5.56-57.46-.78-13.52-4.92-25.64-10.28-37.56-5.1-11.34-5.32-11.06,4.53-18.7,2.78-2.16,7.16-4.06,7.11-7.83-.06-5.63-1.26-11.41-5.65-15.74L373,130.85c-2.77-4.64-6.58-5.09-11-2.56-5.43,3.12-10.79,6.35-16.18,9.53-2.18.1-3.16-1.67-4.37-2.94a89.5,89.5,0,0,0-12.31-10.8c-23-16.77-49.09-23.72-77.22-24.17A21.54,21.54,0,0,0,241.85,99.29Z" fill="#1f150e"/><path d="M309,424l1-1c1.92,0,4.15-2.62,5.68.29.94,1.78,0,3.53-1.56,4.81a3.16,3.16,0,0,1-3.27.56C308.63,427.78,309.21,425.7,309,424Z" fill="#c17e4a"/><path d="M20.67,231.93c-.58,2-1.29,3.77-3.79,3.95-1.82.13-2.9-.54-2.89-2.48a4,4,0,0,1,3.86-4.33C19.78,228.87,20.33,230.34,20.67,231.93Z" fill="#c17e4a"/><path d="M206.56,438.92c-1.79-.17-3.44-.49-3.08-2.53s1.65-3.61,4.1-3.51c1.84.08,3.52.64,3.16,2.83S208.55,438.84,206.56,438.92Z" fill="#c17e4a"/><path d="M22,174.92l1-1c2.26.8,7.16-1.14,5,4.36a3.85,3.85,0,0,1-5.3,2.28C19.69,179.15,22.07,176.82,22,174.92Z" fill="#c17e4a"/><path d="M454.77,287.89c2.12,0,3.27.62,3.06,2.33-.35,2.72-2.37,3.94-4.77,4.21-1.61.19-2.21-1.32-2-2.75C451.32,289.2,452.88,288,454.77,287.89Z" fill="#c17e4a"/><path d="M326.86,22.39c-.22,1.77-2.06,2.36-4.17,2.52-1.85.13-2.89-.72-2.7-2.65.24-2.53,2.07-3.21,4.21-3.32C326,18.85,327.06,19.66,326.86,22.39Z" fill="#c17e4a"/><path d="M439.94,311.93c.63-.15,1.27-.28,1.89-.46,2.05-.57,4.4-1.65,5,1.66.48,2.68-1.53,4-3.69,4.4-3.2.55-3.26-1.86-3.14-4.15,0-.49,0-1,0-1.48Z" fill="#c17e4a"/><path d="M41,123c.49,0,1,0,1.48,0,2,.13,5-1,5,2.25a4.27,4.27,0,0,1-4.73,4.08c-2.93-.43-3-3-1.81-5.43a3.08,3.08,0,0,0,.1-1Z" fill="#c17e4a"/><path d="M235.58,435.83c1.46.1,3.24-.08,3.23,2.05,0,2.58-1.73,3.76-4.11,3.94-1.51.11-3.31-.12-3.22-2.07A3.74,3.74,0,0,1,235.58,435.83Z" fill="#c17e4a"/><path d="M246,7.56c-.16,2.4-1.38,4-3.82,4.25-1.68.19-3-.67-2.88-2.49.19-2.64,1.86-4.1,4.47-4.28C245.36,4.93,246,6,246,7.56Z" fill="#c17e4a"/><path d="M17,200.94c2.69.27,6.72-1,5.6,4.08A3.51,3.51,0,0,1,18,207.67c-2-.56-2.16-2.22-1.77-4,.22-.94.53-1.86.79-2.79Z" fill="#c17e4a"/><path d="M456.93,180c1.94-1,3.85-3.46,6.11-1,1.75,1.93,0,3.73-1.12,5.3-.68.94-1.71,1.79-3,1.29-2.77-1.09-1.63-3.64-2-5.65Z" fill="#c17e4a"/><path d="M185,12l1-1c1.93.47,4.54-.83,5.59,1.89.6,1.54-.35,2.92-1.33,4s-2.3,2.06-3.89,1.46-1.43-2-1.41-3.37C185,14,185,13,185,12Z" fill="#c17e4a"/><path d="M461.93,235.94c2,.07,4.26-2.58,6.13.43,1,1.57.24,2.85-.61,4.07a3.89,3.89,0,0,1-3.71,1.95c-1.86-.32-1.8-2.06-1.82-3.54,0-1,0-2,.05-2.95Z" fill="#c17e4a"/><path d="M16.08,257l1.08-.86c1.87.14,4.19-1.24,5.44,1,.85,1.56.25,3.23-1.08,4.53a3.26,3.26,0,0,1-3.64,1C15.11,261.52,16.34,259,16.08,257Z" fill="#c17e4a"/><path d="M175.12,426c.28-.37.57-.74.85-1.12.66,0,1.32,0,2,.07,1.89.22,4.77-1.15,4.86,2.3.06,2.28-1.73,3.39-3.94,3.57-3.18.26-4-1.6-3.73-4.33C175.14,426.33,175.12,426.17,175.12,426Z" fill="#c17e4a"/><path d="M188.87,430.7a2.28,2.28,0,0,1-.61,2.16A2.13,2.13,0,0,1,188.87,430.7Z" fill="#c48727"/><path d="M459.93,261.94c1.93.44,4.5-1.2,5.71,1.43.7,1.52-.46,2.77-1.53,3.86-1.43,1.44-2.92,2-4.8.75s-1-2.51-.38-3.87c.34-.74.7-1.47,1.05-2.21Z" fill="#c17e4a"/><path d="M266,7c.63-.13,1.28-.19,1.9-.38,2.45-.77,5.14-1.6,5.87,1.94.56,2.73-1.85,3.69-4,4.09-3.29.61-3.84-1.58-3.67-4.22A10.39,10.39,0,0,0,266,6.93Z" fill="#c17e4a"/><path d="M462.9,206.91c2.89-.92,5.29-.83,5.36,3,0,2.2-1,3.91-3.44,3.87-2.7,0-3.09-1.92-2.64-4.13.19-.95.5-1.88.75-2.81Z" fill="#c17e4a"/><path d="M260,434.9c1.93.55,4.58-.81,5.66,1.92.71,1.78-.32,3.16-1.58,4.37s-2.42,2.07-4,1.29a3.29,3.29,0,0,1-1.64-4.21c.23-.78.36-1.59.53-2.39l0,0a1,1,0,0,0,1-1Z" fill="#c17e4a"/><path d="M214,6c1.82-.16,3.8-1.45,5.24.93,1,1.61.38,2.78-.71,3.94-1.41,1.52-3.15,3-5.1,1.49-2.92-2.2-.37-4.31.61-6.39Z" fill="#c17e4a"/><path d="M301.84,12.84c-.08,2.69-2.14,3.48-4.28,3.9-1.86.36-3.36-.42-3.43-2.55-.08-2.79,2.08-3.6,4.22-4C300.22,9.79,301.54,10.71,301.84,12.84Z" fill="#c17e4a"/><path d="M286.05,431l1.06-.9c2.39,0,4.88-.21,4.83,3.32a4,4,0,0,1-4.1,4.14c-4,0-2.35-3.49-2.85-5.63Z" fill="#c17e4a"/><path d="M29,149.92,31.05,148c2.56.27,5.28.56,4.2,4.23-.73,2.47-2.87,3.2-5.15,2.5C27.31,153.86,28.14,151.81,29,149.92Z" fill="#c17e4a"/><path d="M260,434.87a1,1,0,0,1-1,1Z" fill="#952721"/><path d="M102.22,307.81c-3.14-11-1.08-21.78,1.64-32.45,8.59-33.67,22-65.12,43.05-93.07,12.39-16.46,28.19-28.55,46.63-37.4,1.19-.57,2.31-1.28,3.46-1.92a94.57,94.57,0,0,1,58.12-3c17,4.39,30.87,14.42,44.5,24.79,4.66,3.55,9.84,6.72,12.78,12.15-4.79,1-.73,3.28-.46,4.56A87.08,87.08,0,0,1,307.05,233a60.06,60.06,0,0,1-22.38,27.65c-11,7.42-23.26,13.06-35.15,19.13-17.44,8.91-35,17.53-52.83,25.69a204.2,204.2,0,0,1-33,12.13c-11.79,3.09-24,2.48-36.1,2.15a15.52,15.52,0,0,1-6.16-1.78C115,314.77,108.13,312.15,102.22,307.81Zm112.72-150.9c-2.73-.66-5.77.68-8.85,1.13a68.8,68.8,0,0,0-25.53,8.57c-5.89,3.47-9.95,8.66-14.82,13.08C153,191.26,143.42,205,138.48,221.55c-1.29,4.3-1.75,9.28,2.2,13.07a22.34,22.34,0,0,0,20.71,5.86,171.08,171.08,0,0,0,64.92-28.73c7.17-5.12,14.6-10.18,19-18,7.59-13.34,6.36-23.3-6.57-30.79C231.72,158.9,223.66,157.25,214.94,156.91Z" fill="#c17e4a"/><path d="M102.22,307.81c5.91,4.34,12.73,7,19.23,10.16a15.52,15.52,0,0,0,6.16,1.78c12.09.33,24.31.94,36.1-2.15a204.2,204.2,0,0,0,33-12.13c17.81-8.16,35.39-16.78,52.83-25.69,11.89-6.07,24.13-11.71,35.15-19.13A60.06,60.06,0,0,0,307.05,233a87.08,87.08,0,0,0,4.89-51.56c-.27-1.28-4.33-3.61.45-4.56,6.47,3.59,9.1,10.23,12.58,16.13,5.27,8.94,7.53,19,10,28.93l0,2c0,1.76-.58,3.62.8,5.18a255,255,0,0,1-.71,26.36c-1.35,15.09-2.95,30-11.25,43.25-19.71,19-44,29.52-69.74,37a331,331,0,0,1-99.81,13.18c-26.27-.54-41.89-11.75-52-38.62A7.59,7.59,0,0,1,102.22,307.81Z" fill="#895a34"/><path d="M335,221.94c-2.49-9.94-4.75-20-10-28.93-3.48-5.9-6.11-12.54-12.58-16.13-2.93-5.43-8.11-8.6-12.77-12.15-13.63-10.37-27.52-20.4-44.5-24.79A94.57,94.57,0,0,0,197,143c.28-6.72-.7-13.46.84-20.16a16.29,16.29,0,0,1,2.12-4.87c8.24.84,16.4-.86,24.73-.28,10,.7,19.58,2.85,29.16,5.18,12.58,3.06,24.5,8.13,36.3,13.34,13.11,5.79,25.51,12.67,33.32,25.51.75,1.24,2,2.83,3.59,1.8,1.83-1.19.5-2.93-.06-4.45-3.32-9-10.15-15.66-16.75-21.94a158,158,0,0,0-57-35.28A2,2,0,0,1,252,99.91c28.13.45,54.23,7.4,77.22,24.17a89.5,89.5,0,0,1,12.31,10.8c1.21,1.27,2.19,3,4.37,2.94,1.46,4.41,3.56,6.07,8.33,3.31,6.18-3.58,13.55-5,18.83-10.28l1.94,2.08c-2.3,3-4.52,5.8-5.62,9.71-1.47,5.2-7.1,5.83-11.37,7.78-3.31,1.51-3.72-1.76-5.25-3.17-.86-.8-1.82-1.78-3-.84s0,1.81.32,2.65a21.2,21.2,0,0,0,1.2,2.19c5.82,10.56,10.21,21.6,10.69,33.83.46,11.44,2.69,22.84-1.84,34.23-3.3,8.32-6,10.28-14.85,7.64-3.13-.94-5.69-3.6-9.29-3h0A2,2,0,0,0,335,221.94Z" fill="#442f24"/><path d="M336,223.92c3.6-.57,6.16,2.09,9.29,3,8.83,2.64,11.55.68,14.85-7.64,4.53-11.39,2.3-22.79,1.84-34.23-.48-12.23-4.87-23.27-10.69-33.83a21.2,21.2,0,0,1-1.2-2.19c-.34-.84-1.38-1.81-.32-2.65s2.14,0,3,.84c1.53,1.41,1.94,4.68,5.25,3.17,4.27-1.95,9.9-2.58,11.37-7.78,1.1-3.91,3.32-6.73,5.62-9.71,4.39,4.33,5.59,10.11,5.65,15.74.05,3.77-4.33,5.67-7.11,7.83-9.85,7.64-9.63,7.36-4.53,18.7,5.36,11.92,9.5,24,10.28,37.56,1.12,19.58-1.39,38.61-5.56,57.46a53,53,0,0,1-13.95,25.34c-8.62,8.88-18.92,10.22-30.08,5.57-1.93-.81-4.34-.56-5.81-2.44,8.3-13.24,9.9-28.16,11.25-43.25a255,255,0,0,0,.71-26.36C335.87,227.36,335.92,225.64,336,223.92Z" fill="#302118"/><path d="M201.84,115c4.2-6.76,11.42-8.59,18.21-11a97.79,97.79,0,0,1,21.81-4.65c.13,1.42.49,2.73,2.29,2.61,6.83-.43,12.26,3.64,18.2,5.88C276.28,113,288.1,122,300,130.72c4.16,3.05,7.48,7.24,11.27,11-2.47,1.86-4.11.56-5.35-.08-6.16-3.17-12.48-6-18.73-8.9a230.71,230.71,0,0,0-35.37-12.81C235.46,115.26,218.65,114.94,201.84,115Z" fill="#635952"/><path d="M201.84,115c16.81,0,33.62.31,49.94,5a230.71,230.71,0,0,1,35.37,12.81c6.25,2.95,12.57,5.73,18.73,8.9,1.24.64,2.88,1.94,5.35.08-3.79-3.77-7.11-8-11.27-11C288.1,122,276.28,113,262.35,107.78c-5.94-2.24-11.37-6.31-18.2-5.88-1.8.12-2.16-1.19-2.29-2.61a21.5,21.5,0,0,1,10.11.62,2,2,0,0,0,1.31,1.91,158,158,0,0,1,57,35.28C316.85,143.38,323.68,150,327,159c.56,1.52,1.89,3.26.06,4.45-1.59,1-2.84-.56-3.59-1.8-7.81-12.84-20.21-19.72-33.32-25.51-11.8-5.21-23.72-10.28-36.3-13.34-9.58-2.33-19.17-4.48-29.16-5.18-8.33-.58-16.49,1.12-24.73.28A3.06,3.06,0,0,1,201.84,115Z" fill="#643922"/><path d="M373,130.85c-5.28,5.28-12.65,6.7-18.83,10.28-4.77,2.76-6.87,1.1-8.33-3.31,5.39-3.18,10.75-6.41,16.18-9.53C366.45,125.76,370.26,126.21,373,130.85Z" fill="#643922"/><path d="M214.94,156.91c8.72.34,16.78,2,23.84,6.08,12.93,7.49,14.16,17.45,6.57,30.79-4.44,7.79-11.87,12.85-19,18a171.08,171.08,0,0,1-64.92,28.73,22.34,22.34,0,0,1-20.71-5.86c-4-3.79-3.49-8.77-2.2-13.07,4.94-16.56,14.52-30.29,27.26-41.86,4.87-4.42,8.93-9.61,14.82-13.08A68.8,68.8,0,0,1,206.09,158C209.17,157.59,212.21,156.25,214.94,156.91Z" fill="#d58b51"/><path d="M336,223.92c0,1.72-.09,3.44-.14,5.16-1.38-1.56-.77-3.42-.8-5.18l.94,0Z" fill="#442f24"/><path d="M336,223.92l-.94,0,0-2A2,2,0,0,1,336,223.92Z" fill="#302118"/></svg>