<svg id="Camada_1" data-name="Camada 1" xmlns="http://www.w3.org/2000/svg" viewBox="0 0 745.31 715.5"><path d="M367,715.5c-99.52-1.62-191-37.67-265.69-112.85C51,552.05,18.51,491.21,6,420.91-12.64,315.83,12.15,220.94,79.1,138c59-73,136.28-115.76,228.39-132.23A363.18,363.18,0,0,1,402,1.24c85.67,7.17,161.42,38.24,225.62,95.94Q713.56,174.41,738,287.5a333.06,333.06,0,0,1,5.59,103.24A347.36,347.36,0,0,1,704.33,521a357.32,357.32,0,0,1-51.51,72.68,364.28,364.28,0,0,1-109,81.93,382.62,382.62,0,0,1-111.18,35.17C412.85,713.83,392.94,715.13,367,715.5ZM342,70.06a.5.5,0,0,0,.31.46c.38.85.75,1.69,1.12,2.54.52,1.84-.46,4.94,1.53,5.32,3.81.74,8,1.1,11.73.15,2.67-.69,2.24-4.6,2.62-7.27,2.14-5.25,3-10.81,4.17-16.32,1.4-3.64,3-7.21,4.16-10.93a209.68,209.68,0,0,1,12-30.06c1.77-3.64.31-3.7-2.6-3.75-10.15-.19-20.27.39-30.39,1.06l-9.06.86c-5.75.61-11.52,1-17.23,1.85-15.67,2.3-31.3,4.82-46.39,9.84-11.87,2.42-23.23,6.45-34.42,11-26.47,9.32-51.06,22.33-74.28,38-56.71,38.21-99.45,88.27-127,151-6,13.6-11.59,27.4-14.87,42a11.35,11.35,0,0,0-1.5,5.1,32.47,32.47,0,0,0-1.14,3.27,357.84,357.84,0,0,0-8.24,44,318.82,318.82,0,0,0-2.59,42.05,297.72,297.72,0,0,0,2.9,41c1.06,6.92,1.41,14,3.88,20.68a19.29,19.29,0,0,0,.19,3,341.76,341.76,0,0,0,21.78,68c8.12,18.16,17.15,35.86,28.93,52l.81,1.26.08-.25-.13.23A176.58,176.58,0,0,0,87.53,572,160.29,160.29,0,0,0,105,592a97.65,97.65,0,0,0,12.08,12l1.61,1.51a.86.86,0,0,0,.48.4A222.26,222.26,0,0,0,150.26,632a295.23,295.23,0,0,0,47.87,30.29l.08,0,1.35.61,1,.64,1,.37C208,668,215.18,670.55,222,673.93c2.89,1.44,4,.55,5.22-2a347.94,347.94,0,0,1,23.7-41A316.19,316.19,0,0,1,273.6,600H245.54a41.17,41.17,0,0,1-27.25-11c-1.44,6.93-3.75,8.45-10.3,7.06a46.6,46.6,0,0,1-14.5-5.13c-14.21-8.39-25.68-19.38-33.2-34.22-.84-1.66-1.49-3.54-4-1.83-4.83,3.35-9,1.84-12.76-1.94a.44.44,0,0,0-.62-.23c-.13-.81-.1-1.72-1.15-2l-.7-1-2.18-3c-11.22-14.43-15.3-30.92-14.38-48.95.28-5.61-.1-11.26-.18-16.89a8.59,8.59,0,0,0,.14-5c-1.61-2.37-3.88-1.1-5.92-1.09-4.56-1.41-4.63-5.6-5.14-9.08-1.63-11.1,0-21.7,5.74-31.53,1.65-2.84,3.1-5.81,4.65-8.72,4.83-5.64,8-11.82,7-19.63-.35-2.57,0-5.24.05-7.86l2.27-4.85.52-1.26.16-.28a60.7,60.7,0,0,1,27.8-22.85c8.25-.94,16.54-.6,24.81-.52,3,0,3.94-.89,4-3.93.22-9.77.78-19.54,1.19-29.31.07-1.61.5-3.26-1-4.6-6.87-6-12.08-13.57-18-20.45v0l-.83-1.28-9.65-16.93-7.2-19.86q-2.55-10.67-5.11-21.33a5.42,5.42,0,0,0-.52-3.62l-.52-1.56c-1.69-13.57-1.16-27.19-1.09-40.81,0-5.73,2.08-10.35,7-13.55,3.78-.56,7-3.09,10.94-3.09a6.16,6.16,0,0,0,4.08-.33l2.87.08c6.75.1,12.1,3.21,17.55,7,6.57,4.55,13.27,9.17,21.12,11.53,2.54.36,2.54.36,2-4.13a27.35,27.35,0,0,0,0-8.13,46.23,46.23,0,0,1,3.4-11.91c4.76-6,9.84-11.7,16.23-16,1.84-1.25,2-2.76,2-4.67-.06-6.32.09-12.64,0-19-.29-14.39,5.48-26.12,15.66-35.89,9-8.62,19.68-14.56,31.16-19.16,1.25-.17,2.58-.09,3.5-1.21l.24.08.15-.21a46.56,46.56,0,0,1,6.3-1.35c5.72-.43,7.74-3,7.22-9-.56-6.54,2.11-9.06,8-11.6,4.73-2,9.67-2,14.55-2.76a5.88,5.88,0,0,0,4.07.22l.34.18.38-.11,9,2.67c2.28,1.41,4.57,2.82,6.17,5.07ZM250.86,171.84c-.75,1.44-2.28,1.81-3.51,2.61-7.86,5.09-15.36,10.81-19.67,19.23-5.89,11.49-4.79,22.54,4.56,32.14-21.15-1.67-39.42-10.43-56.34-22.7-5.17-3.75-10.64-2.14-15.29,3.79-1.47,2.52-1.8,5.3-2,8.16-.73,10.8,1.89,21.18,3.93,31.62,5.8,29.66,19,55.23,41.94,75.33a74.13,74.13,0,0,1-.12,7.46,439.48,439.48,0,0,0-2.94,56.07,16,16,0,0,1-2.76-1c-12.08-7.3-24.15-7.57-36.07.23-7.58,5-13.67,11.62-19.74,18.27-.46.5-.69,1.09,0,2.06a24,24,0,0,1,16.47,1.75c-8.27,8-16,15.87-21.81,25.56s-11.63,18.95-13.38,30.69a95.06,95.06,0,0,1,25.23-6.48c-11.05,12.15-14.57,26.37-13.72,42.14.66,12.05,9.65,35.86,16.16,41.74,6-22,6.31-22.53,11.54-24.86.54,30.67,18.56,49.84,43.38,66.23-.19-3.26-.24-5.18-.41-7.09a68.41,68.41,0,0,1,.68-17.91c.27-1.57.08-4.08,2.55-4.32s2.76,1.9,3.48,3.56a58.46,58.46,0,0,0,24.67,28c9.27,5.37,19.29,5.91,30.38,3.72a39.18,39.18,0,0,1-9.59-18.63c-.22-1-.68-2,.46-2.59.92-.52,1.53.31,2.15.8,3,2.39,5.77,5.07,8.94,7.16a60.93,60.93,0,0,0,39.37,10,.77.77,0,0,0,1.22-.06l1.64-.11c-8,7.69-16.53,14.79-24.06,23-19.19,20.86-33.52,45-47.18,69.59-1.4,2.52-1.5,4.15,2,5.41a375,375,0,0,0,54.61,15.29c23.78,5.33,47.94,7.53,72.23,7.72a372.32,372.32,0,0,0,116.74-17.66c11.49-3.67,23-7.32,33.74-13,1.3.43,2.22-.52,3.24-1A354.5,354.5,0,0,0,585,639.41c11.69-8.19,23.37-16.48,33.44-26.73a190.69,190.69,0,0,0,24-22.9,343.59,343.59,0,0,0,62.49-93.35c24.13-53.56,33.93-109.51,28.84-168.12A329.31,329.31,0,0,0,714.36,242c-22.52-60.8-59.63-111.18-110.16-151.55a361.37,361.37,0,0,0-116-62c-25.57-8.21-51.75-13.23-78.34-16.56-7.21-.9-12.68.55-16.07,7.41-1.69,3.43-3.88,6.62-5.4,10.12C379.61,49.66,373.3,70.66,368.19,92a29,29,0,0,1-5.38-.39c-9.05-2.29-18.24-2-27.43-1.64l-1.88-.09c-.22-1.31-.38-2.63-.67-3.93-1.9-8.31-8.31-12.63-15.66-10.57-6.66,1.86-8.95,8.43-5.86,16.77-.37,2.07-2.17,1.74-3.53,2A108,108,0,0,0,267.54,112C247.33,126.62,240.52,149.75,250.86,171.84Z" fill="#080505"/><path d="M312.26,584.36l-1.64.11c-.43-.47-.84-.41-1.22.06a60.93,60.93,0,0,1-39.37-10c-3.17-2.09-6-4.77-8.94-7.16-.62-.49-1.23-1.32-2.15-.8-1.14.63-.68,1.57-.46,2.59a39.18,39.18,0,0,0,9.59,18.63C257,590,247,589.43,237.69,584.06a58.46,58.46,0,0,1-24.67-28c-.72-1.66-1.15-3.79-3.48-3.56s-2.28,2.75-2.55,4.32a68.41,68.41,0,0,0-.68,17.91c.17,1.91.22,3.83.41,7.09-24.82-16.39-42.84-35.56-43.38-66.23-5.23,2.33-5.5,2.89-11.54,24.86-6.51-5.88-15.5-29.69-16.16-41.74-.85-15.77,2.67-30,13.72-42.14a95.06,95.06,0,0,0-25.23,6.48c1.75-11.74,7.67-21.11,13.38-30.69s13.54-17.54,21.81-25.56a24,24,0,0,0-16.47-1.75c-.68-1-.45-1.56,0-2.06,6.07-6.65,12.16-13.3,19.74-18.27,11.92-7.8,24-7.53,36.07-.23a16,16,0,0,0,2.76,1c4.33-.65,3.46-4.63,4-7.15,4.25-18.12,9.38-36,15.11-53.66a131,131,0,0,1,14.26-30.13c8.47-13.26,22.25-16.68,36.75-19.13,17.15-2.91,29.92,6.38,36.13,18.2,10.11,19.29,19.32,39.07,26.4,59.72,3.21,9.36,6.25,18.61,4.71,29.09-1.51,10.3-1.56,20.87-1.24,31.36-.27,1.44-.45,2.87.67,4.09a23.53,23.53,0,0,0,9,15c7.1,7.9,16,12.55,26.29,14.89,9.41,3,18.72,5.05,27.12-2.55,10-6.13,18-14.06,22.07-25.38,3.57-4.77,4.19-10.31,4.15-16a15.54,15.54,0,0,0-2-10.15c-.3-1.29-.55-2.6-.91-3.87-3.3-11.66-7.63-23.2-8-35.38-.82-28.09-2.69-56.25,0-84.28,1.12-11.63,6.28-22,18.21-27.23,5.25-2.32,10.75-3.36,16.19-4.85,13.34-3.64,25.14-.89,36.23,7.1,13.78,9.93,24.93,22.42,35.59,35.42,8.09,9.87,15.85,20,23.91,29.91.95,1.17,1.9,4.22,4.49,1.61a11.67,11.67,0,0,0,2.55-1.43,40.25,40.25,0,0,1,25.33-11.13l17.73,4.69c4.61,3.08,10.41,4,15.36,8.31-6.17,1.44-11.46,3.08-15.33,7.93,21.11,8.7,39.37,20.56,53.21,39.76a123.62,123.62,0,0,0-26.95,2.9c34,17.75,34.73,57.85,28.45,79.31a21,21,0,0,1-4.39-6.58c-2.7-5.66-7.21-9.46-12.69-12.24-.86-.43-1.89-1.25-2.75-.51-1.21,1-.05,2.1.46,3.07,2.18,4.16,4,8.53,4.09,13.22.3,17.69-3.73,34.34-12.85,49.59a40.5,40.5,0,0,1-8.15,10.33c-1.81-1.74-1.85-3.64-2.38-5.35a65.4,65.4,0,0,0-7.66-17.28c-.71-1.07-1.5-2.44-3.1-2-1.77.43-2,1.95-2,3.54-.22,10.57-3.64,20.22-8.45,29.46-.56,1-1.12,2-1.67,3a18.43,18.43,0,0,0-3.3,3.59c-6.85,7.94-15.54,12.45-26.64,14,2.44-7,3.34-13.32,2.17-19.82-.19-1.08.31-2.64-1.22-2.88-1.33-.2-1.83,1.22-2.41,2.2-2.12,3.56-3.64,7.42-6.37,10.67a137.91,137.91,0,0,1-24.26,22,13.29,13.29,0,0,0-5.45,2.18c-11.11,6.67-23.23,11-35.48,15a226.74,226.74,0,0,0-32.4,2.63c6.38,3.22,12.92,2.69,19.46,2,2.75-.31,5.51-1.4,8.1.53-1.39,3-3,5.94-4.14,9C471,589.18,470.15,607,472.79,625c1.93,13.14,7.65,24.2,19.73,31.38,9.54,5.67,18.59,12.14,27.86,18.25-10.71,5.72-22.25,9.37-33.74,13A372.32,372.32,0,0,1,369.9,705.35c-24.29-.19-48.45-2.39-72.23-7.72.49-5.49,3.72-10.31,3.82-15.89l.48-.27c-.09,0-.22,0-.26,0a1.75,1.75,0,0,0-.15.34c-4.52,2.08-7.31,6-10.43,9.65-.74.85-1.51,2.08-2.76,1.76-1.52-.39-.94-1.91-1-3a59.15,59.15,0,0,1,1.82-18.19c4.1-14.45,13.49-25.17,23.73-35.51,10-10.06,18.06-21.22,17.84-36.42a111.91,111.91,0,0,0-1.16-17.35c9.46-2.87,19.6-4.17,27.2-11.63a127.62,127.62,0,0,0-18.24,5.2c-4.41,1.62-9.45,1.84-13,5.42Zm-62-206.56c5.32.35,10.36-1.54,15.57-2,10.08-1.21,19.76,1.13,29.44,3.34,6.95,1.59,12.2,6.44,18.22,9.8,1.36,2.08,3,5.15,5.24,4.68,2.8-.58,1.78-4.18,2.13-6.5,1.86-12.38.05-24.6-2.52-36.65-3.75-17.6-8.41-34.93-19.26-49.85-15.29-21-41.85-18.72-53,4.77-4.81,10.16-7.08,21-7.81,32.24-.77,11.9,1.42,23.49,3.43,35.09C243.09,380.41,243.18,380.4,250.28,377.8Zm250.23-39.94c7.21.07,7.19.07,6.4-7.22a155.14,155.14,0,0,0-4.51-24.44C498,290,490.23,275.63,477.46,264.45c-6-5.31-13.18-8.32-21.53-7.22-14,1.85-22.26,10-26.39,23.17-5.11,16.26-4.41,32.85-2.78,49.44,1.43,14.62,4.09,29,11,42.22.62,1.18,1.19,2.66,2.54,2.85,1.74.24,1.74-1.7,2.42-2.73a13.35,13.35,0,0,0,1-2.29c5.9-9.22,13.23-16.62,23.32-21.64,6.09-3,12.49-5.26,18.51-8.37A57.57,57.57,0,0,0,500.51,337.86ZM376.88,540a50.66,50.66,0,0,0,16.74,18.77c5.92,4.15,10.54,4,15.5-1.29a69.94,69.94,0,0,0,14.32-22c5.65-14.07,9.23-28.71,11.78-43.62.21-2.62.91-5.22.39-7.88a4,4,0,0,0,.38-3.85c0-1.36-.09-2.72-.14-4.08,1.08-.68,2.07-1.68,3.24-2,11.94-3,21-10.26,27.33-20.36,4.37-6.92,9.49-12.42,16.76-16.14,3.42-1.76,6.42-4.32,7.27-8.43.53-2.51.58-5.18-1.5-7s-4.94-1.66-7.55-.61c-3.32,1.33-5.17,4.07-6.7,7.09a181,181,0,0,1-12.87,22.52c-10,14.34-24.6,20.39-41.26,22.16a30.41,30.41,0,0,1-16.49-3.3c-9.68-4.75-18.48-3.66-26.61,3.57A51.08,51.08,0,0,1,319,480.16c-7.38-4.05-13.46-9.74-19.86-15-2.94-2.43-5.42-5.48-9-7.05-4.13-1.79-9.12-.61-10.71,2.44s.42,7.79,4.36,10.07a30.94,30.94,0,0,0,12.92,3.56c4.44.39,7.69,2.37,11,5,8.78,7,18.68,11.39,30,12.34,2.92.24,6.06-.61,8.75,1.29C358.27,507.47,367.33,523.91,376.88,540Zm-5.21,25.2c3.5,9.38,7.22,18.24,10.1,27.38,2.61,8.32,7.8,14.58,14.13,20,7.16,6.17,17.91,4.72,22.33-3.5A100.43,100.43,0,0,0,430.55,564c.05-1.82.06-4.15-1.93-4.67s-2.24,2-3.05,3.29c-3.78,6.05-7.51,12.22-13.71,16.12-8.2,5.16-17.23,7-23.43,1.26-4.29-3.92-8.32-8.14-12.33-12.36C375,566.46,374.17,565,371.67,565.24Z" fill="#e2ded1"/><path d="M596.18,304.32l-17.73-4.69a8.14,8.14,0,0,0-1.23-5.25c-8.93-15.68-18.14-31.19-30.4-44.58-5.81-6.34-10.17-12.52-9.69-22.18s-2.4-19.62-4.35-29.26a234.82,234.82,0,0,0-6.92-25.8c-3.68-11.35-8.55-21.78-16.06-31-2.93-3.6-6.75-5.92-11.62-5.63a6.66,6.66,0,0,1-5.67-2.47c-3.22-3.51-7.14-3.52-11.22-1.91-8.24,3.24-15.44,8.25-22.45,13.53-8.73,6.57-17.38,13.24-25.55,20.51a2.84,2.84,0,0,1-2.67.87c-6.3-1.24-12.61-2.39-18.92-3.57-.16-5.82.6-11.85-.68-17.41-1.84-8-3.63-16-7.17-23.61-4.28-9.24-10.63-16.18-18.66-21.93-5.17-3.7-11.53-4.88-17-7.94,5.12-21.37,11.43-42.37,20.18-62.56,1.52-3.5,3.71-6.69,5.4-10.12,3.39-6.86,8.86-8.31,16.07-7.41,26.59,3.33,52.77,8.35,78.34,16.56a361.37,361.37,0,0,1,116,62c50.53,40.37,87.64,90.75,110.16,151.55a329.31,329.31,0,0,1,19.32,86.29c5.09,58.61-4.71,114.56-28.84,168.12a343.59,343.59,0,0,1-62.49,93.35c-1.64,0-3.22.19-4.55-1.34-7.35-8.5-15.61-16-23.92-23.62-12.16-11.1-24.55-21.66-38.92-29.74-2.82-1.59-2.41-2.38-.19-4.58,5.25-5.19,11.1-9.9,15-16.31.73-1.2,3-2.74-.47-3.41.55-1,1.11-2,1.67-3,3.55-1.07,5.53-1,5.7,3.95a49.89,49.89,0,0,1-1.75,14.1c-.56,2.2-.21,3.53,2.28,2.58,5.52-2.12,11.34-3.51,16.29-7.05,13.61-9.77,18.32-24.15,20.91-39.7.36-2.16-1.18-5.53,1.65-6.15,3-.66,3.85,3.05,5.44,5,.49.62.57,1.57,1.05,2.22,3.63,5,3.3,11.57,6.89,17,2.15-2.55,4.2-4.87,6.12-7.29,4.58-5.79,6.58-12.91,9.85-19.38,3.89-7.68,4-16.35,4.83-24.68.76-7.68,1.05-15.65-4.1-22.42a1.85,1.85,0,0,1-.32-2.28c.67-.94,1.51-.33,2.21,0a36.38,36.38,0,0,1,3.89,2.21,30.64,30.64,0,0,1,10.6,12.82c.73,1.59,1.65,3,3.61,2.87,1.23-.11,1.21-1.37,1.27-2.37.65-10.19,3.12-20.23,1.1-30.62-3.35-17.2-9.73-32.33-25.58-41.82-1.16-.69-3.41-1.13-2.93-2.9.56-2,2.77-1.93,4.62-2,5.28-.3,10.57-.72,15.86-1,3-.15,3.54-1.31,1.79-3.7a30.91,30.91,0,0,0-2-2.87c-12.12-12.93-25.61-24-42.09-31-2-.86-5.43-.72-5.25-3.6.15-2.54,3.07-3.71,5.36-4.71a20.5,20.5,0,0,1,3.79-1.07c1.07-.24,2.57.37,3-1.13.52-1.84-1.23-2.19-2.32-2.68a165.52,165.52,0,0,0-22.47-8.81C611.34,298.69,603.92,300.88,596.18,304.32Z" fill="#754e37"/><path d="M337.6,413.85c-.32-10.49-.27-21.06,1.24-31.36,1.54-10.48-1.5-19.73-4.71-29.09-7.08-20.65-16.29-40.43-26.4-59.72-6.21-11.82-19-21.11-36.13-18.2-14.5,2.45-28.28,5.87-36.75,19.13a131,131,0,0,0-14.26,30.13c-5.73,17.69-10.86,35.54-15.11,53.66-.59,2.52.28,6.5-4,7.15a439.48,439.48,0,0,1,2.94-56.07,74.13,74.13,0,0,0,.12-7.46c.21-.25.57-.48.62-.75A350.55,350.55,0,0,1,214,280.34c.68-2.39-.39-3.22-2-4.34-8.15-5.51-15.89-11.5-22.41-19-10.66-12.23-17.74-26.49-24-41.26-1.31-3.1-1.91-6.67-4.93-8.85,4.65-5.93,10.12-7.54,15.29-3.79,16.92,12.27,35.19,21,56.34,22.7a1.24,1.24,0,0,1,1.39.87,5.71,5.71,0,0,1-1,3.21c-9.41,12-14.2,25.94-16,41-.1.87-.42,2.06,1.31,2.54,4.31-13.41,11.47-25.33,19.23-37,1.26-1.9,2.54-3.94,2.39-6.44l2.07.23a1.88,1.88,0,0,0,2.83,0,24.32,24.32,0,0,0,10.13-3.95A173.47,173.47,0,0,1,293,208.83c11-3.55,22-7.47,33.58-8.94l-.09,0c.19.51.41.87.91.25,5.15,2.95,10.28,5.93,15.46,8.84,3.82,2.14,7.94,3.06,11.85.68,5.86-3.57,10.14-8.48,11-15.69l1.8-.17c3.11.71,5.7-1.46,8.58-1.65,7.56-.48,14.72-2.8,22-4.47,5.27-1.21,10.36-3.51,11.27-9.79.32-2.24,1.48-3.94,2.16-5.92,6.34,2.7,13.36,4.2,19.2,7.51a196.71,196.71,0,0,1,35.09,25.4c2.24,2,4.28,3.62,7.41,3-.05,1.85,1,2.95,2.34,4.12a440.1,440.1,0,0,1,34.56,35.75c.86,1,1.51,2.28,3.18,1.82,1.7,5.14,5.68,8.68,8.84,12.81,7.56,9.86,13.55,20.74,19.66,31.5,3.33,5.85,7.08,11.63,8.77,18.32-2.59,2.61-3.54-.44-4.49-1.61-8.06-9.9-15.82-20-23.91-29.91-10.66-13-21.81-25.49-35.59-35.42-11.09-8-22.89-10.74-36.23-7.1-5.44,1.49-10.94,2.53-16.19,4.85-11.93,5.27-17.09,15.6-18.21,27.23-2.71,28-.84,56.19,0,84.28.35,12.18,4.68,23.72,8,35.38.36,1.27.61,2.58.91,3.87-2.34.33-3.85-1.61-6-2.12a95.34,95.34,0,0,0-28.48-2.1c-11.94.74-22.6,4.65-33.3,9.08A47,47,0,0,0,337.6,413.85Zm51.8-85.66c-2.08.56-2.41,1.59-2.63,2.49q-2.64,10.81-5.13,21.65a9.6,9.6,0,0,0,0,3,2.23,2.23,0,0,0,2.15,2.31c1.69.06,1.74-1.27,1.71-2.43-.07-2.52.75-4.82,1.29-7.24C388.21,341.61,389.55,335.18,389.4,328.19Zm-12.7,30.19c1.87-5.37-1.19-9-1.39-13.06-.28-5.68-2-11.3-3.16-16.92-.17-.82-.51-2.26-1.79-1.89s-.73,1.62-.61,2.56c.59,4.72.85,9.51,1.88,14.13C372.71,348,373,353.24,376.7,358.38Zm-18.18-22.06a3.23,3.23,0,0,0-.68,4.37c3,5.07,5,10.72,8.77,15.35.62.75,1.18,1.93,2.28,1.2s.4-1.79-.05-2.68q-4.06-8.16-8.16-16.3C360.24,337.37,359.83,336.45,358.52,336.32Z" fill="#754e37"/><path d="M67.52,544.87c-11.78-16.15-20.81-33.85-28.93-52a341.76,341.76,0,0,1-21.78-68,19.29,19.29,0,0,1-.19-3h1c7.79,4.69,15.39,9.66,22.82,16.77-2-17.33-6.81-34.07,11.17-44.78,2.26-1.35,4.51-2.73,6.79-4.06,12.25-7.15,37.39.06,47.62,9.82,4.77,4.54,8.17,10.35,13.58,14.25-.07,4.4,4,7.26,4.24,11.58-1.55,2.9-3,5.87-4.65,8.71-5.7,9.83-7.37,20.43-5.74,31.53.51,3.48.58,7.67,5.14,9.08,1.68,1.94,3.93.77,5.92,1.09a8.59,8.59,0,0,1-.14,5c-1.49.22-1.63,1.29-1.81,2.53-1.61,11.27-4.31,22.49-4.62,33.78-.28,10-2.66,20-.47,30.2,1.52,7.06,2,14.35,3,21.54.31,2.36.52,4.72-1.83,6.28-2.09,1.38-3.76.31-5.4-1q-3.9-3.07-7.84-6.08c-5.88-4.48-10.94-10.05-17.76-13.26-6.3-3.2-12-7.65-19.31-8.72l.13-.23-.08.25Z" fill="#f7b6b4"/><path d="M17.61,421.86h-1c-2.47-6.67-2.82-13.76-3.88-20.68a297.72,297.72,0,0,1-2.9-41,318.82,318.82,0,0,1,2.59-42.05,357.84,357.84,0,0,1,8.24-44,32.47,32.47,0,0,1,1.14-3.27c2.24-1.18,3.89-2.55,1.5-5.1,3.28-14.59,8.89-28.39,14.87-42,27.58-62.73,70.32-112.79,127-151,23.22-15.65,47.81-28.66,74.28-38,4.71,2.59,6.86,7.39,9.91,11.41,4.73,6.24,2.71,10.62-4.27,14A61.45,61.45,0,0,0,231,69.58a84.06,84.06,0,0,1-16.65,12.09c-7,3.69-15,5.42-22,9.14-5.46,2.91-10.34,6.94-15.83,10-3.92,2.21-5.67,7.16-7.27,11.59-2,5.59-2.55,11.89-7.85,15.94a8.5,8.5,0,0,0-2.37,3.75c-5.22,14.4-15.76,21.45-30.7,22.93-5.22.51-10.23,1.68-14.7,5.24C107.72,165,101.21,169,97.54,176c-5.85,11.19-6.89,23.15-4.48,35.2,1.15,5.77.55,12.19,3.15,17.19,3.84,7.41,4,14.66,2.15,22.12-1.21,4.83-1.85,11.7-7.31,12.69-6.79,1.22-13.38,4.87-21.11,1.92-5.91-2.25-12.62-3.1-18.73,2.06-2.46,2.07-6.75,2.34-9.87,4.29a2.27,2.27,0,0,1-3.13-.65c-2.33-3-3.05-1.11-3.75,1.15-.93,3-3.11,4.71-5.63,6.58-6.38,4.72-9.93,11.36-11.26,19.27-1.21,7.15-1.29,14.48-3.69,21.46a7,7,0,0,0,.46,6.28c2,3,1.24,5.75.35,8.91-1.25,4.49-2.9,8.86-3.19,13.69-.63,10.45,1.93,20.73,1.23,31.17a11.48,11.48,0,0,0,2.17,7.41c1.19-3,.49-5.48.71-7.92s-.79-6.47,2.66-6.37c2.61.07,1.31,4,1.22,6.05-.15,3.35,1.76,7.37-1.42,9.9-2.23,1.78-2.21,3.7-2.52,6C14.27,403.73,17.75,412.65,17.61,421.86Z" fill="#f5a8a7"/><path d="M520.38,674.65c-9.27-6.11-18.32-12.58-27.86-18.25-12.08-7.18-17.8-18.24-19.73-31.38-2.64-18-1.75-35.84,4.61-53.1,1.14-3.11,2.75-6,4.14-9l4.84-5.11c12.25-4,24.37-8.37,35.48-15a13.29,13.29,0,0,1,5.45-2.18c1,1.78,3,1.3,4.44,1.83a118,118,0,0,1,34.94,19.31c11.93,9.69,23.59,19.75,34.2,30.9,6.13,6.43,13.15,12.11,17.5,20.1-10.07,10.25-21.75,18.54-33.44,26.73a354.5,354.5,0,0,1-61.33,34.27C522.6,674.13,521.68,675.08,520.38,674.65Z" fill="#754e37"/><path d="M162.09,291.66l9.65,16.93c.28.43.55.86.83,1.28v0c.38,6.58,2.74,12.82,3.07,19.45.75,15.13-6.42,27.3-14,39.36a60.7,60.7,0,0,0-27.8,22.85c-.17-1.84-.27-3.77-2-4.88-12.32-7.77-22.3-18.94-37.62-22.37-14.14-3.18-27.75-3.75-41.52.48-5.46,1.67-10.23,5.26-16,6.11a75.4,75.4,0,0,1-14.84-27.14c-4.73-16.48-3.23-32.61,7-47,8.94-12.62,19.69-22.12,36.9-21,14.43.91,24.28,6.71,28.26,21,1.18,4.25,2,8.91,4.7,12.94,3.06-4,4.16-8.58,6.2-12.65,8.94-17.8,30.54-23.13,47.25-11.72C155.25,287.53,157.31,291.92,162.09,291.66Z" fill="#f7b6b4"/><path d="M162.09,291.66c-4.78.26-6.84-4.13-10.05-6.32-16.71-11.41-38.31-6.08-47.25,11.72-2,4.07-3.14,8.63-6.2,12.65-2.75-4-3.52-8.69-4.7-12.94-4-14.3-13.83-20.1-28.26-21-17.21-1.1-28,8.4-36.9,21-10.19,14.36-11.69,30.49-7,47a75.4,75.4,0,0,0,14.84,27.14c2.14,4.51,5.32,8.38,7.86,12.61,2.18,3.62,7.11,5.33,7.13,10.35-18,10.71-13.22,27.45-11.17,44.78-7.43-7.11-15-12.08-22.82-16.77.14-9.21-3.34-18.13-2.06-27.46.31-2.32.29-4.24,2.52-6,3.18-2.53,1.27-6.55,1.42-9.9.09-2.08,1.39-6-1.22-6.05-3.45-.1-2.43,3.88-2.66,6.37s.48,5-.71,7.92a11.48,11.48,0,0,1-2.17-7.41c.7-10.44-1.86-20.72-1.23-31.17.29-4.83,1.94-9.2,3.19-13.69.89-3.16,1.65-5.94-.35-8.91a7,7,0,0,1-.46-6.28c2.4-7,2.48-14.31,3.69-21.46,1.33-7.91,4.88-14.55,11.26-19.27,2.52-1.87,4.7-3.58,5.63-6.58.7-2.26,1.42-4.14,3.75-1.15a2.27,2.27,0,0,0,3.13.65c3.12-1.95,7.41-2.22,9.87-4.29C57.32,262,64,262.85,69.94,265.1c7.73,2.95,14.32-.7,21.11-1.92,5.46-1,6.1-7.86,7.31-12.69,1.87-7.46,1.69-14.71-2.15-22.12-2.6-5-2-11.42-3.15-17.19-2.41-12.05-1.37-24,4.48-35.2,3.67-7,10.18-11,16.11-15.69,4.47-3.56,9.48-4.73,14.7-5.24,14.94-1.48,25.48-8.53,30.7-22.93a8.5,8.5,0,0,1,2.37-3.75c5.3-4.05,5.83-10.35,7.85-15.94,1.6-4.43,3.35-9.38,7.27-11.59,5.49-3.09,10.37-7.12,15.83-10,7-3.72,15-5.45,22-9.14A84.06,84.06,0,0,0,231,69.58a61.45,61.45,0,0,1,14.13-9.31c7-3.42,9-7.8,4.27-14-3.05-4-5.2-8.82-9.91-11.41,11.19-4.56,22.55-8.59,34.42-11,2.47,1.36.39,4.5,2.36,6.05-1.59.65-1.61,1.05-.14,2.23,2.82,2.27,1.56,3.52-1.45,3.88s-4.13,2.27-4.15,5.17c0,4.34,1.66,5.77,7.81,5.78,14.1,0,27.82-3.37,41.74-5,3.17-.38,7-.74,8.49-4.28a68.15,68.15,0,0,0,4.13-13.74c1.09-5.74.12-8.81-6.29-8.47,0,0-.11-.56-.29-1.48h11.41c.47,2.46,1.83,2.1,3.61,1.32-.92-1.93-2.44-1.06-3.61-1.32V12.12l9.06-.86c1.61.79,2.65,1.27,2.28,3.89-.53,3.71-2,7.45-1.24,11.28,1.82,9.61,6,18.17,11.68,26.09a5.59,5.59,0,0,0,4.12,2.42c-1.13,5.51-2,11.07-4.16,16.32l-1.35.82c-4.76.2-9.5-1.47-14.27-.12l-.48-1.78c3.59-1.65,7.17-3.31,10.76-5,3.43-1.57,2.59-3.24.14-5-5.1-3.6-12.5-2-18.65,3.94l-9-2.67-.34-.26-.38.19a5.88,5.88,0,0,1-4.07-.22c-9.53-4.39-19.29-8-29.55-2.85-5.32,2.66-12.26,3.94-13.53,11.55-4.1,0-4,3.41-5,6a8.25,8.25,0,0,1-3.72-1.06c-9-3.78-18.5-6.59-27.68-1.77-10.67,5.59-16.23,8.1-15.62,23.38.13,3.15,0,6.3,0,9.45a3.43,3.43,0,0,0-2,2c-4.28-1.14-6.57-5.08-10.32-7.19-8.15-4.58-24.26-2.35-30.67,5.18-4.47,1.32-7.59,6.67-7,12-3.94,11-4.45,21.76,1.22,32.37.92,1.73,2,3.49,1.77,5.62a37.8,37.8,0,0,0-11,10h0a1.82,1.82,0,0,0-2,2c-3,6.5-2,13.21-1,19.92-3.94,0-7.16,2.53-10.94,3.1-2.34-5.65-7.36-5-12-5.07-.44-3.5-4.24-.74-5.52-3,.86-1.51,3.11-1.42,3.54-3.67,1.14-6-3.82-13.72-9.75-15.4-12.29-3.47-21.13,3-26,13.06-6.91,14.32-4.69,24.35,7.67,37a134.73,134.73,0,0,0,1,22,1.8,1.8,0,0,0,1.95,2c-.23,2.3,1.17,4.05,2,6,2.82,8.23,9.21,13.52,15.86,18.29,6.42,4.59,14,7.07,21.44,9.61Z" fill="#f6a1a2"/><path d="M367.5,193.75l-1.8.17c-2.64.14-1.88-2.71-3.36-3.76-9.89-7.06-19.16-14.81-30.73-19.57a120.69,120.69,0,0,0-35.29-8.33c-9-.82-18.27-1.35-27.51,1.33a73.41,73.41,0,0,0-17.95,8.25c-10.34-22.09-3.53-45.22,16.68-59.82a108,108,0,0,1,40.24-17.79c1.36-.31,3.16,0,3.53-2,7.52.45,14.68-2.66,22.19-2.27l1.88.09c.15.47.16,1.22.46,1.37a59.19,59.19,0,0,1,22.67,20.55c6.49,9.68,11.5,20,11.31,32.09a35.76,35.76,0,0,0,.77,5.79,106.3,106.3,0,0,1,.27,27.72C370.23,183,368.65,188.34,367.5,193.75Z" fill="#9c73bf"/><path d="M226.57,105.93c0-3.15.09-6.3,0-9.45-.61-15.28,4.95-17.79,15.62-23.38,9.18-4.82,18.67-2,27.68,1.77a8.25,8.25,0,0,0,3.72,1.06c.33,0,.66,0,1,0,.11,2,1.55,2,3,2a1.86,1.86,0,0,0,2,2c.66.67,1.32,1.33,2,2a6.66,6.66,0,0,1,1,4l-.91,1.33c-11.48,4.6-22.17,10.54-31.16,19.16-10.18,9.77-16,21.5-15.66,35.89.13,6.32,0,12.64,0,19,0,1.91-.18,3.42-2,4.67-6.39,4.32-11.47,10-16.23,16a44.26,44.26,0,0,0-4.36-2.17,78.61,78.61,0,0,1-18.74-9.42c-5.7-3.87-9.69-9.25-14-14.44.24-2.13-.85-3.89-1.77-5.62-5.67-10.61-5.16-21.41-1.22-32.37l7-12c6.41-7.53,22.52-9.76,30.67-5.18,3.75,2.11,6,6,10.32,7.19.23,2,1.78,2.66,4.35,4.31C227.47,109.46,228.13,107.41,226.57,105.93Z" fill="#f7b6b4"/><path d="M312.26,584.36l13.28-2.59,4.09,1a111.91,111.91,0,0,1,1.16,17.35c.22,15.2-7.86,26.36-17.84,36.42-10.24,10.34-19.63,21.06-23.73,35.51a59.15,59.15,0,0,0-1.82,18.19c0,1.07-.55,2.59,1,3,1.25.32,2-.91,2.76-1.76,3.12-3.6,5.91-7.57,10.43-9.65l-.07-.08c-.1,5.58-3.33,10.4-3.82,15.89a375,375,0,0,1-54.61-15.29c-3.54-1.26-3.44-2.89-2-5.41,13.66-24.6,28-48.73,47.18-69.59C295.73,599.15,304.28,592.05,312.26,584.36Z" fill="#754e37"/><path d="M198.13,662.24A295.23,295.23,0,0,1,150.26,632c8.16-2.4,14.83-8,22.89-10.66,4-1.36,4.69-5,1.82-7.2-6-4.65-11.29-9.91-18.44-13.22-10.35-4.8-19.86-6.13-29.4,1.27a4.18,4.18,0,0,1-2.81.61c-2.61-.3-4,1.17-5.17,3.11a.86.86,0,0,1-.48-.4c.67-1.8-.72-1.39-1.61-1.51A97.65,97.65,0,0,1,105,592c4.61-.39,9.22-1,13.84-1.11,14.73-.24,15.07-3.49,20.89-15.6,3.3-6.87,2-15,3.86-22.33,3.78,3.78,7.93,5.29,12.76,1.94,2.47-1.71,3.12.17,4,1.83,7.52,14.84,19,25.83,33.2,34.22a46.6,46.6,0,0,0,14.5,5.13c6.55,1.39,8.86-.13,10.3-7.06a41.17,41.17,0,0,0,27.25,11c-1.08,5.67-3.63,10.91-4.32,16.77-.52,4.34-2.48,8.57-4.17,12.7s-4.05,4.24-6.73.51a67.27,67.27,0,0,1-6.51-10.57,148.6,148.6,0,0,0-10.49-19c-2.11-3.18-6.63-4-8.83-.82-6,8.47-14.85,13-23.46,17.82-1.93,1.09-2.33,1.37-1.13,3.47,3.19,5.59,8.62,9.38,11.45,15.33C195.29,644.51,198.63,652.84,198.13,662.24Zm-76.93-61.7c-.28-.12-.61-.4-.81-.32s-.26.51-.38.79c.27.12.61.39.81.31S121.08,600.82,121.2,600.54Z" fill="#f5b1b1"/><path d="M367.5,193.75c1.15-5.41,2.73-10.77,3.36-16.23a106.3,106.3,0,0,0-.27-27.72,35.76,35.76,0,0,1-.77-5.79c.19-12.11-4.82-22.41-11.31-32.09a59.19,59.19,0,0,0-22.67-20.55c-.3-.15-.31-.9-.46-1.37,9.19-.34,18.38-.65,27.43,1.64a29,29,0,0,0,5.37.39c5.48,3.06,11.84,4.24,17,7.94,8,5.75,14.38,12.69,18.66,21.93,3.54,7.64,5.33,15.64,7.17,23.61,1.28,5.56.52,11.59.68,17.41l-.18,9c-.68,2-1.84,3.68-2.16,5.92-.91,6.28-6,8.58-11.27,9.79-7.29,1.67-14.45,4-22,4.47C373.2,192.29,370.61,194.46,367.5,193.75Z" fill="#06d004"/><path d="M618.39,612.68c-4.35-8-11.37-13.67-17.5-20.1-10.61-11.15-22.27-21.21-34.2-30.9a118,118,0,0,0-34.94-19.31c-1.49-.53-3.45,0-4.44-1.83a137.91,137.91,0,0,0,24.26-22c2.73-3.25,4.25-7.11,6.37-10.67.58-1,1.08-2.4,2.41-2.2,1.53.24,1,1.8,1.22,2.88,1.17,6.5.27,12.82-2.17,19.82,11.1-1.51,19.79-6,26.64-14a18.43,18.43,0,0,1,3.3-3.59c3.45.67,1.2,2.21.47,3.41-3.94,6.41-9.79,11.12-15,16.31-2.22,2.2-2.63,3,.19,4.58,14.37,8.08,26.76,18.64,38.92,29.74,8.31,7.58,16.57,15.12,23.92,23.62,1.33,1.53,2.91,1.33,4.55,1.34A190.69,190.69,0,0,1,618.39,612.68Z" fill="#5e4434"/><path d="M250.86,171.84a73.41,73.41,0,0,1,17.95-8.25c9.24-2.68,18.5-2.15,27.51-1.33a120.69,120.69,0,0,1,35.29,8.33c11.57,4.76,20.84,12.51,30.73,19.57,1.48,1.05.72,3.9,3.36,3.76-.82,7.21-5.1,12.12-11,15.69-3.91,2.38-8,1.46-11.85-.68-5.18-2.91-10.31-5.89-15.47-8.84a6.63,6.63,0,0,0-.9-.25l.09,0a8.36,8.36,0,0,0-1.42-1.95c-19.34-14.73-40.73-19.73-63.5-10.23-18.84,7.86-27,20.39-26.19,39.16l-1.87-.18a1.24,1.24,0,0,0-1.39-.87c-9.35-9.6-10.45-20.65-4.56-32.14,4.31-8.42,11.81-14.14,19.67-19.23C248.58,173.65,250.11,173.28,250.86,171.84Z" fill="#5fc1b4"/><path d="M198.13,662.24c.5-9.4-2.84-17.73-6.78-26-2.83-6-8.26-9.74-11.45-15.33-1.2-2.1-.8-2.38,1.13-3.47,8.61-4.86,17.5-9.35,23.46-17.82,2.2-3.14,6.72-2.36,8.83.82a148.6,148.6,0,0,1,10.49,19A67.27,67.27,0,0,0,230.32,630c2.68,3.73,5,3.65,6.73-.51s3.65-8.36,4.17-12.7c.69-5.86,3.24-11.1,4.32-16.77H273.6a316.19,316.19,0,0,0-22.7,30.9,347.94,347.94,0,0,0-23.7,41c-1.23,2.58-2.33,3.47-5.22,2-6.8-3.38-14-6-20.42-10.12-.28-2.26-1.73-2.12-3.35-1.62Z" fill="#f6a1a2"/><path d="M51.6,393.85c0-5-5-6.73-7.13-10.35-2.54-4.23-5.72-8.1-7.86-12.61,5.8-.85,10.57-4.44,16-6.11,13.77-4.23,27.38-3.66,41.52-.48,15.32,3.43,25.3,14.6,37.62,22.37,1.76,1.11,1.86,3,2,4.88l-.16.28-1.18.41.66.85-2.27,4.85c-1.76.88-1.17,2.54-1.27,3.95-.24,3.64-6.24,10.84-10,12-5.41-3.9-8.81-9.71-13.58-14.25-10.23-9.76-35.37-17-47.62-9.82C56.11,391.12,53.86,392.5,51.6,393.85Z" fill="#f5a8a7"/><path d="M160.61,206.91c3,2.18,3.62,5.75,4.93,8.85,6.25,14.77,13.33,29,24,41.26,6.52,7.48,14.26,13.47,22.41,19,1.65,1.12,2.72,1.95,2,4.34a350.55,350.55,0,0,0-8.87,40.93c-.05.27-.41.5-.62.75-23-20.1-36.14-45.67-41.94-75.33-2-10.44-4.66-20.82-3.93-31.62C158.81,212.21,159.14,209.43,160.61,206.91Z" fill="#cfc8b5"/><path d="M143.57,552.93c-1.87,7.36-.56,15.46-3.86,22.33-5.82,12.11-6.16,15.36-20.89,15.6-4.62.08-9.23.72-13.84,1.11a160.29,160.29,0,0,1-17.45-20c-1-5.72.15-11.43.06-17.14,6.82,3.21,11.88,8.78,17.76,13.26q3.95,3,7.84,6.08c1.64,1.29,3.31,2.36,5.4,1,2.35-1.56,2.14-3.92,1.83-6.28-1-7.19-1.44-14.48-3-21.54-2.19-10.16.19-20.18.47-30.2.31-11.29,3-22.51,4.62-33.78.18-1.24.32-2.31,1.81-2.53.08,5.63.46,11.28.18,16.89-.92,18,3.16,34.52,14.38,48.95-.91.55-1.53,1.32-.9,2.34.73,1.18,2,.67,3.08.69.23.34.47.67.7,1-1.88,2-.19,1.89,1.15,2A.44.44,0,0,1,143.57,552.93Z" fill="#f5a8a7"/><path d="M113.62,235.9a134.73,134.73,0,0,1-1-22c1-.65.85-1.69,1-2.67,2.89-15.31,15.82-25.11,29-25.37,4.67.11,9.69-.58,12,5.07-4.89,3.19-6.94,7.81-7,13.54-.07,13.62-.6,27.24,1.09,40.81.17.52.35,1,.52,1.56a5.42,5.42,0,0,1,.52,3.62c-.54,1.11-1.33,1-2.46.88a30.18,30.18,0,0,1-10.52-4c-3.11-1.74-5.86-3.08-8.94-.25a1.7,1.7,0,0,1-2.63-.1c-2-2.37-5-2.16-7.64-3-.85-1.93-2.25-3.68-2-6A1.81,1.81,0,0,0,113.62,235.9Z" fill="#f7b6b4"/><path d="M337.53,14H326.12c.18.92.25,1.48.29,1.48,6.41-.34,7.38,2.73,6.29,8.47a68.15,68.15,0,0,1-4.13,13.74c-1.49,3.54-5.32,3.9-8.49,4.28-13.92,1.62-27.64,5-41.74,5-6.15,0-7.84-1.44-7.81-5.78,0-2.9,1.08-4.8,4.15-5.17s4.27-1.61,1.45-3.88c-1.47-1.18-1.45-1.58.14-2.23-2-1.55.11-4.69-2.36-6.05,15.09-5,30.72-7.54,46.39-9.84,5.71-.83,11.48-1.24,17.23-1.85V14Z" fill="#f5a8a7"/><path d="M119.15,605.86c1.18-1.94,2.56-3.41,5.17-3.11a4.18,4.18,0,0,0,2.81-.61c9.54-7.4,19.05-6.07,29.4-1.27,7.15,3.31,12.48,8.57,18.44,13.22,2.87,2.23,2.2,5.84-1.82,7.2-8.06,2.71-14.73,8.26-22.89,10.66A222.26,222.26,0,0,1,119.15,605.86Z" fill="#f7b6b4"/><path d="M363.43,54.94a5.59,5.59,0,0,1-4.12-2.42c-5.66-7.92-9.86-16.48-11.68-26.09-.73-3.83.71-7.57,1.24-11.28.37-2.62-.67-3.1-2.28-3.89C356.71,10.59,366.83,10,377,10.2c2.91.05,4.37.11,2.6,3.75a209.68,209.68,0,0,0-12,30.06C366.45,47.73,364.83,51.3,363.43,54.94Z" fill="#f7b6b4"/><path d="M161.61,368.7c7.62-12.06,14.79-24.23,14-39.36-.33-6.63-2.69-12.87-3.07-19.45,5.92,6.88,11.13,14.4,18,20.45,1.54,1.34,1.11,3,1,4.6-.41,9.77-1,19.54-1.19,29.31-.07,3-1,4-4,3.93C178.15,368.1,169.86,367.76,161.61,368.7Z" fill="#f6a1a2"/><path d="M179.57,155.92c4.26,5.19,8.25,10.57,14,14.44a78.61,78.61,0,0,0,18.74,9.42,44.26,44.26,0,0,1,4.36,2.17,46.23,46.23,0,0,0-3.4,11.91c-.77-.31-1.57-.94-2.29-.86-5.61.6-10.07-1.25-13.32-5.9-.43-.61-1.11-1.11-1.62-.7-4,3.14-5.26.75-6.41-2.79-.37-1.13-1.68-2.07-2.75-2.82a46.77,46.77,0,0,1-11.19-11.18c-1.67-2.31-3.76-4.3-7.07-3.69A37.8,37.8,0,0,1,179.57,155.92Z" fill="#f5a8a7"/><path d="M168.57,165.92c3.31-.61,5.4,1.38,7.07,3.69a46.77,46.77,0,0,0,11.19,11.18c1.07.75,2.38,1.69,2.75,2.82,1.15,3.54,2.43,5.93,6.41,2.79.51-.41,1.19.09,1.62.7,3.25,4.65,7.71,6.5,13.32,5.9.72-.08,1.52.55,2.29.86a27.35,27.35,0,0,1,0,8.13c-1.16,1.13-.07,3.37-2,4.13-7.85-2.36-14.55-7-21.12-11.53-5.45-3.79-10.8-6.9-17.55-7a1.88,1.88,0,0,0-2.87-.08,6.16,6.16,0,0,1-4.08.33c-1-6.71-2-13.42,1-19.92a1.82,1.82,0,0,0,2-2Zm28.94,25.8c-.13-.85-.36-1.74-1.46-1.29a2.16,2.16,0,0,0-1.08,1.41,1.36,1.36,0,0,0,1.38,1.62C197.42,193.5,197.48,192.55,197.51,191.72Z" fill="#f5b1b1"/><path d="M278.54,69.94c1.27-7.61,8.21-8.89,13.53-11.55,10.26-5.15,20-1.54,29.55,2.85-4.88.75-9.82.72-14.55,2.76-5.9,2.54-8.57,5.06-8,11.6.52,5.92-1.5,8.53-7.22,9a46.56,46.56,0,0,0-6.3,1.35c2.49-4.49,7.06-3.78,11.35-4.18-1-2.57-1.63-4-4.56-2.15a5.15,5.15,0,0,1-6.06-.68c-1.78-1.67.94-2.85.62-4.69A9.25,9.25,0,0,1,278.54,69.94Z" fill="#f5b1b1"/><path d="M117.59,243.9c2.59.89,5.61.68,7.64,3a1.7,1.7,0,0,0,2.63.1c3.08-2.83,5.83-1.49,8.94.25a30.18,30.18,0,0,0,10.52,4c1.13.16,1.92.23,2.46-.88q2.55,10.66,5.11,21.33c-7.45-2.54-15-5-21.44-9.61C126.8,257.42,120.41,252.13,117.59,243.9Z" fill="#f5b1b1"/><path d="M333.5,89.91c-7.51-.39-14.67,2.72-22.19,2.27-3.09-8.34-.8-14.91,5.86-16.77,7.35-2.06,13.76,2.26,15.66,10.57C333.12,87.28,333.28,88.6,333.5,89.91Z" fill="#f6a1a2"/><path d="M87.59,554.83c.09,5.71-1,11.42-.06,17.14a176.58,176.58,0,0,1-19.25-25.86C75.55,547.18,81.29,551.63,87.59,554.83Z" fill="#f6a1a2"/><path d="M335.42,64.2c6.15-6,13.55-7.54,18.65-3.94,2.45,1.73,3.29,3.4-.14,5-3.59,1.64-7.17,3.3-10.76,5a1.62,1.62,0,0,0-.91.34.5.5,0,0,1-.31-.45l-.36-.8C340,67,337.7,65.61,335.42,64.2Z" fill="#f5a8a7"/><path d="M278.54,69.94a9.25,9.25,0,0,0,8.35,4.27c.32,1.84-2.4,3-.62,4.69a5.15,5.15,0,0,0,6.06.68c2.93-1.82,3.6-.42,4.56,2.15-4.29.4-8.86-.31-11.35,4.18l-.15.21-.24-.08-2.59-.12a6.66,6.66,0,0,0-1-4c-.32-1,.72-3.38-2-2a1.86,1.86,0,0,1-2-2c-.09-2-1.54-2-3-2-.33,0-.66,0-1,0C274.5,73.35,274.44,69.91,278.54,69.94Z" fill="#f5a8a7"/><path d="M119.59,413.86c3.76-1.13,9.76-8.33,10-12,.1-1.41-.49-3.07,1.27-3.95,0,2.62-.4,5.29-.05,7.86,1.06,7.81-2.15,14-7,19.64C123.64,421.12,119.52,418.26,119.59,413.86Z" fill="#f6a1a2"/><path d="M357.92,72.09l1.35-.83c-.39,2.67,0,6.58-2.63,7.27-3.68,1-7.92.59-11.73-.15-2-.38-1-3.48-1.53-5.32l.23-.16a16.94,16.94,0,0,0,2.16,2.7A11.16,11.16,0,0,0,356,77.72C358.7,77,357.21,74,357.92,72.09Z" fill="#9c73bf"/><path d="M23.31,265.79c2.39,2.55.74,3.92-1.5,5.1A11.35,11.35,0,0,1,23.31,265.79Z" fill="#f6a1a2"/><path d="M141.1,549.69c-1.08,0-2.35.49-3.08-.69-.63-1,0-1.79.9-2.34Z" fill="#f5b1b1"/><path d="M124.5,475.85c-2-.32-4.24.85-5.92-1.09C120.62,474.75,122.89,473.48,124.5,475.85Z" fill="#f5a8a7"/><path d="M211.18,206.12c1.94-.76.85-3,2-4.13C213.72,206.48,213.72,206.48,211.18,206.12Z" fill="#f5a8a7"/><path d="M143,552.7c-1.34-.12-3,0-1.15-2C142.85,551,142.82,551.89,143,552.7Z" fill="#f5b1b1"/><path d="M198.21,662.19c1.62-.5,3.07-.64,3.35,1.62l-1-.37-1-.64Z" fill="#f5b1b1"/><path d="M282.56,85.92l2.59.12c-.92,1.12-2.25,1-3.5,1.21Z" fill="#f5b1b1"/><path d="M342.26,70.52a1.62,1.62,0,0,1,.91-.34l.48,1.78a5.92,5.92,0,0,0,0,.94l-.23.16C343,72.21,342.64,71.37,342.26,70.52Z" fill="#9c73bf"/><path d="M169.64,187.51a1.88,1.88,0,0,1,2.87.08Z" fill="#f6a1a2"/><path d="M117.06,604c.89.12,2.28-.29,1.61,1.51Z" fill="#f7b6b4"/><path d="M133.13,393.09l-.66-.85,1.18-.41Z" fill="#f7b6b4"/><path d="M341.59,69.27l.36.8Z" fill="#9c73bf"/><polygon points="325.69 61.46 326.07 61.27 326.41 61.53 326.04 61.64 325.69 61.46" fill="#f5b1b1"/><path d="M309.4,584.53c.38-.47.79-.53,1.22-.06A.77.77,0,0,1,309.4,584.53Z" fill="#754e37"/><path d="M172.57,309.87c-.28-.42-.55-.85-.83-1.28C172,309,172.29,309.45,172.57,309.87Z" fill="#f6a1a2"/><path d="M149.26,246.85c-.17-.52-.35-1-.52-1.56C148.91,245.81,149.09,246.33,149.26,246.85Z" fill="#f5b1b1"/><path d="M199.56,662.8l1,.64Z" fill="#f6a1a2"/><path d="M67.52,544.87l.81,1.26Z" fill="#f6a1a2"/><path d="M596.18,304.32c7.74-3.44,15.16-5.63,24.16-3a165.52,165.52,0,0,1,22.47,8.81c1.09.49,2.84.84,2.32,2.68-.43,1.5-1.93.89-3,1.13a20.5,20.5,0,0,0-3.79,1.07c-2.29,1-5.21,2.17-5.36,4.71-.18,2.88,3.23,2.74,5.25,3.6,16.48,7,30,18.1,42.09,31a30.91,30.91,0,0,1,2,2.87c1.75,2.39,1.26,3.55-1.79,3.7-5.29.26-10.58.68-15.86,1-1.85.1-4.06,0-4.62,2-.48,1.77,1.77,2.21,2.93,2.9,15.85,9.49,22.23,24.62,25.58,41.82,2,10.39-.45,20.43-1.1,30.62-.06,1,0,2.26-1.27,2.37-2,.17-2.88-1.28-3.61-2.87A30.64,30.64,0,0,0,672,425.91a36.38,36.38,0,0,0-3.89-2.21c-.7-.36-1.54-1-2.21,0a1.85,1.85,0,0,0,.32,2.28c5.15,6.77,4.86,14.74,4.1,22.42-.83,8.33-.94,17-4.83,24.68-3.27,6.47-5.27,13.59-9.85,19.38-1.92,2.42-4,4.74-6.12,7.29-3.59-5.44-3.26-12-6.89-17-.48-.65-.56-1.6-1.05-2.22-1.59-2-2.42-5.69-5.44-5-2.83.62-1.29,4-1.65,6.15-2.59,15.55-7.3,29.93-20.91,39.7-4.95,3.54-10.77,4.93-16.29,7.05-2.49.95-2.84-.38-2.28-2.58a49.89,49.89,0,0,0,1.75-14.1c-.17-4.95-2.15-5-5.7-3.95,4.81-9.24,8.23-18.89,8.45-29.46,0-1.59.27-3.11,2-3.54,1.6-.39,2.39,1,3.1,2a65.4,65.4,0,0,1,7.66,17.28c.53,1.71.57,3.61,2.38,5.35a40.5,40.5,0,0,0,8.15-10.33c9.12-15.25,13.15-31.9,12.85-49.59-.09-4.69-1.91-9.06-4.09-13.22-.51-1-1.67-2-.46-3.07.86-.74,1.89.08,2.75.51,5.48,2.78,10,6.58,12.69,12.24a21,21,0,0,0,4.39,6.58c6.28-21.46,5.55-61.56-28.45-79.31a123.62,123.62,0,0,1,26.95-2.9c-13.84-19.2-32.1-31.06-53.21-39.76,3.87-4.85,9.16-6.49,15.33-7.93C606.59,308.34,600.79,307.4,596.18,304.32Z" fill="#5e4434"/><path d="M411.52,171.92l.18-9c6.31,1.18,12.62,2.33,18.92,3.57a2.84,2.84,0,0,0,2.67-.87c8.17-7.27,16.82-13.94,25.55-20.51,7-5.28,14.21-10.29,22.45-13.53,4.08-1.61,8-1.6,11.22,1.91a6.66,6.66,0,0,0,5.67,2.47c4.87-.29,8.69,2,11.62,5.63,7.51,9.19,12.38,19.62,16.06,31a234.82,234.82,0,0,1,6.92,25.8c2,9.64,4.83,19.51,4.35,29.26s3.88,15.84,9.69,22.18c12.26,13.39,21.47,28.9,30.4,44.58a8.14,8.14,0,0,1,1.23,5.25,40.25,40.25,0,0,0-25.33,11.13,11.67,11.67,0,0,1-2.55,1.43c-1.69-6.69-5.44-12.47-8.77-18.32-6.11-10.76-12.1-21.64-19.66-31.5-3.16-4.13-7.14-7.67-8.84-12.8,5.3-32.08,1.15-63.18-10-93.49-3-8.31-7.29-16-14.94-21.19a18,18,0,0,0-7.75,1.36c-7.5,3.33-13.68,8.47-20,13.54-7.23,5.81-14.78,11.26-21.34,17.86-2.54,2.55-2.93,4.55.95,6.91a159.76,159.76,0,0,1,21.93,16.24c4.5,3.91,8.06,8.71,12.85,12.25-.43,1.67-.7,3.42-1.84,4.82-3.13.58-5.17-1-7.41-3a196.71,196.71,0,0,0-35.09-25.4C424.88,176.12,417.86,174.62,411.52,171.92Z" fill="#5e4434"/><path d="M313.51,389c-6-3.36-11.27-8.21-18.22-9.8-9.68-2.21-19.36-4.55-29.44-3.34-9.47-17.33-8.89-36.06-7.75-54.89.55-9.11,3.95-17.33,7.49-25.53,5.12-2.4,10.33-1.83,15.51-.39,7.76,2.17,11.55,8.61,15.43,14.81,8.26,13.21,12.06,28,15.08,43.06C314,364.78,316.12,376.76,313.51,389Zm-32.05-74.8c-5.55.5-8.38,3.21-9.63,9.26a10.87,10.87,0,0,0,5.67,12.33c.37,2.46.59,4.95,1.15,7.36,1.69,7.26,3.09,14.67,8.28,20.54,2.09,2.37,4.62,3.93,7.89,3.25s4.23-3.48,4.76-6.33a56.28,56.28,0,0,0-8-41.48C289.27,315.45,285.93,313.54,281.46,314.16Z" fill="#7f7e2f"/><path d="M485.51,339.88c-6,3.11-12.42,5.34-18.51,8.37-10.09,5-17.42,12.42-23.32,21.64a24.82,24.82,0,0,0-.75-2.88c-10.56-26.17-12.49-53.15-7.51-80.74,2.57-14.26,11.43-22,24.1-21.41,16.32,15.52,21.66,36.07,26.16,57a3.66,3.66,0,0,0,.24,3c0,3.36.05,6.71.08,10.06a3.8,3.8,0,0,0-.29,3ZM440.66,307c.5,10.67,1.7,21.16,7.7,30.45,1.47,2.27,2.94,4.56,6.08,4.42s5.07-2.3,6.28-5a21.15,21.15,0,0,0,1.8-5.65c1.83-12.94-.62-25.35-5.29-37.36C456,290.8,454.05,288,450,288c-4.17-3.77-8.71-4-11.72-.71A13.4,13.4,0,0,0,440.66,307Z" fill="#7f7e2f"/><path d="M400.64,445.31c-8.4,7.6-17.71,5.56-27.12,2.55.69-5.63-.1-10.13-6.32-12.78-6.59-2.81-12.74-6.63-20-2.11a23.53,23.53,0,0,1-9-15c2.89-.44,4.74-2.74,7.16-4,2.94-1.56,5.2-4.65,9.1-4.07-.29.59-.61,1.17-.88,1.78-2.77,6.16-.91,9,5.66,9.31,3.8.16,7.05-1,10.4-2.57,4.13-1.95,7.13-4.82,6.52-9.4-.68-5-5.37-3.81-8.8-4.31a3.09,3.09,0,0,1,2.5-2.72c16.16-4,32.3-6.61,48.78-1.34,2.86.92,5,3.43,8.16,3.32,0,5.71-.59,11.25-4.16,16-7.55-2.28-12.34,1.79-16.75,7.1S397.38,437.75,400.64,445.31Zm-13.13-35.49c0-2-.35-3.74-2.76-3.85-2.7-.13-3.22,1.69-3.21,3.91,0,2,.35,3.74,2.76,3.85C387,413.86,387.55,412,387.51,409.82Z" fill="#754e37"/><path d="M435.85,476.06c0,1.36.1,2.72.14,4.08-.12,1.28-.25,2.56-.38,3.85.52,2.66-.18,5.26-.39,7.88-25,9.32-44.7,25.1-58.34,48.17-9.55-16.13-18.61-32.57-30.4-47.26l21.1-5,4.63,4.32c3.88,3.66,7.27,8,13.08,8.85a.85.85,0,0,0,1.23.46,11.57,11.57,0,0,0,5.93,0c12.22-3.11,20.13-10.87,24.35-22.6C423.28,478.81,429.69,478.29,435.85,476.06Z" fill="#530e0f"/><path d="M367.58,487.8l-21.1,5c-2.69-1.9-5.83-1-8.75-1.29-11.34-.95-21.24-5.33-30-12.34-3.3-2.64-6.55-4.62-11-5a30.94,30.94,0,0,1-12.92-3.56c-3.94-2.28-5.94-7.05-4.36-10.07s6.58-4.23,10.71-2.44c3.59,1.57,6.07,4.62,9,7.05,6.4,5.3,12.48,11,19.86,15a51.08,51.08,0,0,0,58.45-6.58c8.13-7.23,16.93-8.32,26.61-3.57a30.41,30.41,0,0,0,16.49,3.3c16.66-1.77,31.24-7.82,41.26-22.16a181,181,0,0,0,12.87-22.52c1.53-3,3.38-5.76,6.7-7.09,2.61-1.05,5.33-1.34,7.55.61s2,4.49,1.5,7c-.85,4.11-3.85,6.67-7.27,8.43-7.27,3.72-12.39,9.22-16.76,16.14-6.37,10.1-15.39,17.34-27.33,20.36-1.17.3-2.16,1.3-3.24,2-6.16,2.23-12.57,2.75-19.05,2.74-4.73-1.1-9.26-3.19-14.26-3-1.54-1.28-3.43-1.11-5.2-1.05C385.7,475.14,376.09,480.23,367.58,487.8Z" fill="#080505"/><path d="M376.88,540c13.64-23.07,33.32-38.85,58.34-48.17-2.55,14.91-6.13,29.55-11.78,43.62a69.94,69.94,0,0,1-14.32,22c-5,5.24-9.58,5.44-15.5,1.29A50.66,50.66,0,0,1,376.88,540Zm15.77-.91c0,2.4.13,4.73,2.71,5.9s4.4-.35,6.21-1.89c4.67-4,7.33-9.4,10.46-14.46,1.84-3,5.33-6.21,1.54-9.64s-6.56.63-8.93,2.66C399.18,526.4,392.85,530.71,392.65,539.13Z" fill="#e3365b"/><path d="M459.52,264.86c-12.67-.55-21.53,7.15-24.1,21.41-5,27.59-3.05,54.57,7.51,80.74a24.82,24.82,0,0,1,.75,2.88,13.35,13.35,0,0,1-1,2.29c-.68,1-.68,3-2.42,2.73-1.35-.19-1.92-1.67-2.54-2.85-6.9-13.23-9.56-27.6-11-42.22-1.63-16.59-2.33-33.18,2.78-49.44,4.13-13.13,12.43-21.32,26.39-23.17,8.35-1.1,15.48,1.91,21.53,7.22C490.23,275.63,498,290,502.4,306.2a155.14,155.14,0,0,1,4.51,24.44c.79,7.29.81,7.29-6.4,7.22-.85-6.39-1.56-12.79-2.57-19.16-2.8-17.65-9.78-33.35-22.29-46.31C471.31,267.89,466.21,264.55,459.52,264.86Z" fill="#080505"/><path d="M313.51,389c2.61-12.2.49-24.18-1.9-36.08-3-15-6.82-29.85-15.08-43.06-3.88-6.2-7.67-12.64-15.43-14.81-5.18-1.44-10.39-2-15.51.39-5.94,2.23-9.86,6.62-12.51,12.15a80,80,0,0,0-7.85,37.53c.35,11.11,2.38,22,5.05,32.72-7.1,2.6-7.19,2.61-8.52-5.06-2-11.6-4.2-23.19-3.43-35.09.73-11.21,3-22.08,7.81-32.24,11.11-23.49,37.67-25.8,53-4.77,10.85,14.92,15.51,32.25,19.26,49.85,2.57,12.05,4.38,24.27,2.52,36.65-.35,2.32.67,5.92-2.13,6.5C316.47,394.11,314.87,391,313.51,389Z" fill="#080505"/><path d="M371.67,565.24c2.5-.25,3.29,1.22,4.43,2.42,4,4.22,8,8.44,12.33,12.36,6.2,5.69,15.23,3.9,23.43-1.26,6.2-3.9,9.93-10.07,13.71-16.12.81-1.3.94-3.84,3.05-3.29s2,2.85,1.93,4.67a100.43,100.43,0,0,1-12.32,45.13c-4.42,8.22-15.17,9.67-22.33,3.5-6.33-5.45-11.52-11.71-14.13-20C378.89,583.48,375.17,574.62,371.67,565.24Z" fill="#cfc8b5"/><path d="M459.52,264.86c6.69-.31,11.79,3,16.13,7.53,12.51,13,19.49,28.66,22.29,46.31,1,6.37,1.72,12.77,2.57,19.16a57.57,57.57,0,0,1-15,2c.06-.67.13-1.33.2-2a1.94,1.94,0,0,0,.29-3c0-3.35-.05-6.7-.08-10.06a1.91,1.91,0,0,0-.24-3C481.18,300.93,475.84,280.38,459.52,264.86Z" fill="#fdfdfd"/><path d="M250.28,377.8c-2.67-10.76-4.7-21.61-5.05-32.72a80,80,0,0,1,7.85-37.53c2.65-5.53,6.57-9.92,12.51-12.15-3.54,8.2-6.94,16.42-7.49,25.53-1.14,18.83-1.72,37.56,7.75,54.89C260.64,376.26,255.6,378.15,250.28,377.8Z" fill="#fdfdfd"/><path d="M354.53,409.84c-3.9-.58-6.16,2.51-9.1,4.07-2.42,1.29-4.27,3.59-7.16,4-1.12-1.22-.94-2.65-.67-4.09a47,47,0,0,1,19.46-15.23c10.7-4.43,21.36-8.34,33.3-9.08a95.34,95.34,0,0,1,28.48,2.1c2.13.51,3.64,2.45,6,2.12a15.54,15.54,0,0,1,2,10.15c-3.18.11-5.29-2.4-8.15-3.32-16.48-5.27-32.62-2.7-48.78,1.34a3.09,3.09,0,0,0-2.5,2.72A23,23,0,0,0,354.53,409.84Z" fill="#5e4434"/><path d="M400.64,445.31c-3.26-7.56.86-12.91,5.32-18.28s9.2-9.38,16.75-7.1C418.65,431.25,410.68,439.18,400.64,445.31Z" fill="#5e4434"/><path d="M347.23,433c7.23-4.52,13.38-.7,20,2.11,6.22,2.65,7,7.15,6.32,12.78C363.28,445.52,354.33,440.87,347.23,433Z" fill="#5e4434"/><path d="M486.38,557.76l-4.84,5.11c-2.59-1.93-5.35-.84-8.1-.53-6.54.74-13.08,1.27-19.46-2A226.74,226.74,0,0,1,486.38,557.76Z" fill="#cfc8b5"/><path d="M329.63,582.78l-4.09-1c3.6-3.58,8.64-3.8,13-5.42a127.62,127.62,0,0,1,18.24-5.2C349.23,578.61,339.09,579.91,329.63,582.78Z" fill="#cfc8b5"/><path d="M435.61,484c.13-1.29.26-2.57.38-3.85A4,4,0,0,1,435.61,484Z" fill="#080505"/><path d="M301.56,681.82a1.75,1.75,0,0,1,.15-.34c0-.05.17,0,.26,0l-.48.27Z" fill="#754e37"/><path d="M488.4,134.89c7.65,5.18,11.9,12.88,14.94,21.19,11.11,30.31,15.26,61.41,10,93.49-1.67.45-2.32-.85-3.18-1.83A440.1,440.1,0,0,0,475.56,212c-1.29-1.17-2.39-2.27-2.34-4.12,1.14-1.4,1.41-3.15,1.84-4.82C482.68,181,489.38,158.67,488.4,134.89Z" fill="#cfc8b5"/><path d="M235.5,226.87c-.83-18.77,7.35-31.3,26.19-39.16,22.77-9.5,44.16-4.5,63.5,10.23a8.36,8.36,0,0,1,1.42,1.95c-11.6,1.47-22.55,5.39-33.58,8.94a173.47,173.47,0,0,0-38.43,17.48,24.32,24.32,0,0,1-10.13,3.95h-2.83l-2.07-.23Z" fill="#080505"/><path d="M235.5,226.87l4.07,3.16c.15,2.5-1.13,4.54-2.39,6.44-7.76,11.62-14.92,23.54-19.23,37-1.73-.48-1.41-1.67-1.31-2.54,1.76-15,6.55-28.93,16-41a5.71,5.71,0,0,0,1-3.21Z" fill="#5e4434"/><path d="M389.4,328.19c.15,7-1.19,13.42-2.62,19.76-.54,2.42-1.36,4.72-1.29,7.24,0,1.16,0,2.49-1.71,2.43a2.23,2.23,0,0,1-2.15-2.31,9.6,9.6,0,0,1,0-3q2.49-10.84,5.13-21.65C387,329.78,387.32,328.75,389.4,328.19Z" fill="#5e4434"/><path d="M376.7,358.38c-3.69-5.14-4-10.34-5.07-15.18-1-4.62-1.29-9.41-1.88-14.13-.12-.94-.58-2.21.61-2.56s1.62,1.07,1.79,1.89c1.2,5.62,2.88,11.24,3.16,16.92C375.51,349.39,378.57,353,376.7,358.38Z" fill="#5e4434"/><path d="M358.52,336.32c1.31.13,1.72,1.05,2.16,1.94q4.08,8.14,8.16,16.3c.45.89,1.06,2,.05,2.68s-1.66-.45-2.28-1.2c-3.78-4.63-5.76-10.28-8.77-15.35A3.23,3.23,0,0,1,358.52,336.32Z" fill="#5e4434"/><path d="M241.64,230.26h2.83A1.88,1.88,0,0,1,241.64,230.26Z" fill="#5e4434"/><path d="M326.52,199.84a6.63,6.63,0,0,1,.9.25C326.93,200.71,326.71,200.35,326.52,199.84Z" fill="#080505"/><path d="M142.59,185.87c-13.16.26-26.09,10.06-29,25.37-.18,1-.06,2-1,2.67-12.36-12.65-14.58-22.68-7.67-37,4.82-10,13.66-16.53,26-13.06,5.93,1.68,10.89,9.38,9.75,15.4-.43,2.25-2.68,2.16-3.54,3.67C138.35,185.13,142.15,182.37,142.59,185.87Z" fill="#f5a8a7"/><path d="M343.61,72.9a5.92,5.92,0,0,1,0-.94c4.77-1.35,9.51.32,14.27.12-.71,1.89.78,4.92-1.89,5.64a11.16,11.16,0,0,1-10.26-2.12A16.94,16.94,0,0,1,343.61,72.9Z" fill="#f5a8a7"/><path d="M183.57,105.94l-7,12C176,112.61,179.1,107.26,183.57,105.94Z" fill="#f5a8a7"/><path d="M226.57,105.93c1.56,1.48.9,3.53,2.34,6.33-2.57-1.65-4.12-2.3-4.35-4.31A3.43,3.43,0,0,1,226.57,105.93Z" fill="#f5a8a7"/><path d="M337.53,14c1.17.26,2.69-.61,3.61,1.32-1.78.78-3.14,1.14-3.61-1.32Z" fill="#f5a8a7"/><path d="M113.62,235.9a1.81,1.81,0,0,1,1.95,2A1.8,1.8,0,0,1,113.62,235.9Z" fill="#f5b1b1"/><path d="M168.57,165.92a1.82,1.82,0,0,1-2,2A1.82,1.82,0,0,1,168.57,165.92Z" fill="#f5a8a7"/><path d="M274.54,76c1.46,0,2.91,0,3,2C276.09,78,274.65,78,274.54,76Z" fill="#f5b1b1"/><path d="M279.55,80c2.71-1.39,1.67,1,2,2C280.87,81.28,280.21,80.62,279.55,80Z" fill="#f5b1b1"/><path d="M121.2,600.54c-.12.28-.18.7-.38.78s-.54-.19-.81-.31c.12-.28.18-.71.38-.79S120.92,600.42,121.2,600.54Z" fill="#f7b6b4"/><path d="M197.51,191.72c0,.83-.09,1.78-1.16,1.74a1.36,1.36,0,0,1-1.38-1.62,2.16,2.16,0,0,1,1.08-1.41C197.15,190,197.38,190.87,197.51,191.72Z" fill="#f5a8a7"/><path d="M488.4,134.89c1,23.78-5.72,46.06-13.34,68.16-4.79-3.54-8.35-8.34-12.85-12.25a159.76,159.76,0,0,0-21.93-16.24c-3.88-2.36-3.49-4.36-.95-6.91,6.56-6.6,14.11-12.05,21.34-17.86,6.3-5.07,12.48-10.21,20-13.54A18,18,0,0,1,488.4,134.89Z" fill="#754e37"/><path d="M281.46,314.16c4.47-.62,7.81,1.29,10.09,4.93a56.28,56.28,0,0,1,8,41.48c-.53,2.85-1.45,5.64-4.76,6.33s-5.8-.88-7.89-3.25c-5.19-5.87-6.59-13.28-8.28-20.54-.56-2.41-.78-4.9-1.15-7.36C285.52,333,287.81,320.52,281.46,314.16Zm11,33.23c2.24,0,3.52-1.09,3.69-3.21s-.92-3.6-3-3.79-3.31,1.33-3.56,3.3A3,3,0,0,0,292.5,347.39Z" fill="#080505"/><path d="M281.46,314.16c6.35,6.36,4.06,18.83-4,21.59a10.87,10.87,0,0,1-5.67-12.33C273.08,317.37,275.91,314.66,281.46,314.16Z" fill="#fdfdfd"/><path d="M450,288c4,0,6,2.83,7.21,5.92,4.67,12,7.12,24.42,5.29,37.36a21.15,21.15,0,0,1-1.8,5.65c-1.21,2.66-3,4.82-6.28,5s-4.61-2.15-6.08-4.42c-6-9.29-7.2-19.78-7.7-30.45,6-1,8.94-3.43,9.68-8.75C450.81,294.86,451.17,291.36,450,288Zm8,25.71a2.8,2.8,0,0,0-2.7-2.93,3,3,0,0,0-3.62,2.62,2.79,2.79,0,0,0,2.85,3.31C456.38,316.78,457.53,315.5,458,313.68Z" fill="#080505"/><path d="M450,288c1.15,3.39.79,6.89.32,10.27-.74,5.32-3.72,7.78-9.68,8.75a13.4,13.4,0,0,1-2.36-19.73C441.31,283.93,445.85,284.2,450,288Z" fill="#fdfdfd"/><path d="M486,334.91a1.94,1.94,0,0,1-.29,3A3.8,3.8,0,0,1,486,334.91Z" fill="#e2ded1"/><path d="M485.68,321.87a1.91,1.91,0,0,1,.24,3A3.66,3.66,0,0,1,485.68,321.87Z" fill="#e2ded1"/><path d="M354.53,409.84a23,23,0,0,1,12.9-5.19c3.43.5,8.12-.69,8.8,4.31.61,4.58-2.39,7.45-6.52,9.4-3.35,1.59-6.6,2.73-10.4,2.57-6.57-.27-8.43-3.15-5.66-9.31C353.92,411,354.24,410.43,354.53,409.84Z" fill="#7f7e2f"/><path d="M387.51,409.82c0,2.21-.51,4-3.21,3.91-2.41-.11-2.76-1.88-2.76-3.85,0-2.22.51-4,3.21-3.91C387.16,406.08,387.55,407.84,387.51,409.82Z" fill="#7f7e2f"/><path d="M367.58,487.8c8.51-7.57,18.12-12.66,29.76-13.05,1.77-.06,3.66-.23,5.2,1.05-2.49,8.88-6.19,17.29-10.09,25.61a11.57,11.57,0,0,1-5.93,0,.86.86,0,0,0-1.23-.46c-5.81-.81-9.2-5.19-13.08-8.85Z" fill="#fdfdfd"/><path d="M392.45,501.41c3.9-8.32,7.6-16.73,10.09-25.61,5-.19,9.53,1.9,14.26,3C412.58,490.54,404.67,498.3,392.45,501.41Z" fill="#e2ded1"/><path d="M385.29,501a.86.86,0,0,1,1.23.46A.85.85,0,0,1,385.29,501Z" fill="#e2ded1"/><path d="M392.66,539.12c.19-8.41,6.52-12.72,12-17.42,2.37-2,5.21-6,8.93-2.66s.3,6.67-1.54,9.64c-3.13,5.06-5.79,10.49-10.46,14.46-1.81,1.54-3.61,3.07-6.21,1.89S392.61,541.53,392.66,539.12Z" fill="#f6a1a2"/><path d="M292.5,347.39a3,3,0,0,1-2.91-3.7c.25-2,1.36-3.5,3.56-3.3s3.2,1.68,3,3.79S294.74,347.4,292.5,347.39Z" fill="#e2ded1"/><path d="M458,313.68c-.5,1.82-1.65,3.1-3.47,3a2.79,2.79,0,0,1-2.85-3.31,3,3,0,0,1,3.62-2.62A2.8,2.8,0,0,1,458,313.68Z" fill="#e2ded1"/></svg>