<svg id="Camada_1" data-name="Camada 1" xmlns="http://www.w3.org/2000/svg" viewBox="0 0 489.06 451.66"><path d="M287.92,15.68c1.71-.37,2.93.47,4.05,1.61,4.7,4.8,10.19,8.81,14.24,14.24,1,1.3,2.32,1.33,3.58,1.7a208.64,208.64,0,0,1,51.69,23c1.83,1.14,3.14,1.46,4.68-.37,3-3.59,6-2.77,10.28-1.23,14,5.07,20,17.85,28.6,28.08.7.83,1.43,2.11.61,2.91-3.49,3.39-.41,5.16,1.54,7.33,9.11,10.14,17.71,20.66,24.95,32.25.62,1,1,2.24,2.5,2.77Q457.8,92.73,481,57.51c1.22-1.86,2.12-3.78,5.2-3.61,2.23.13,3.17.57,3.11,2.66-.3,11.64-.58,23.27-1,34.9-.12,3.13-2.91,4.91-4.54,7.24a7.45,7.45,0,0,0-1.64,4.93c.54,20.4-2.89,40.46-5.27,60.61-.32,2.72-1.64,3.68-4,3.9-.76.06-1.52.18-2.28.22-9,.52-8.3.73-10.85,9.15-3,9.85,1,18.7,2.39,27.86,3.35,22.68,2.46,45.15-1.61,67.58-.33,1.82-1.26,3.28,1.2,4.5,1.77.89,1.47,3.24,1.75,5,1,6.19,1.77,12.41,2.75,18.6a7.58,7.58,0,0,1-1.54,6.37q-6.87,8.89-13.31,18.12c-1.7,2.44-3.57,3.38-6.15,2-2.24-1.2-3-.29-4.11,1.64-9.74,17.21-20.55,33.67-34.68,47.68-1.82,1.81-1.45,3.15-.29,5.13,8,13.59,15.77,27.25,23.63,40.9.3.52.58,1.07.91,1.58.87,1.33,1.8,2.84.24,4.07s-2.75,0-4-1c-11.94-9.57-24-19-35.82-28.73-3.39-2.82-5.25-2.92-8.94-.1-19.64,15-41,26.94-64.79,34.11-4.89,1.47-9.53,3.65-14.72,4.22a3.9,3.9,0,0,0-3.74,4.72,15.06,15.06,0,0,1-.34,4.1c-1.23,8.16-1.24,8.18-9.49,6.48-8.81-1.82-17.64-3.6-26.43-5.55-2.79-.62-4.16,1.44-5.65,2.78-3.66,3.29-7,3.87-10.7.24-4-3.93-8.49-4.14-13.74-2.54-7.44,2.26-15.13,3.67-22.63,5.72-3.22.89-4.45.2-4.78-3.19-.8-8.19-.9-8.24-9-10.23-28.08-6.93-54.54-17.55-78.21-34.46-2.08-1.48-3.19-1.23-4.92.51-10.93,10.93-22,21.74-33,32.59a25.5,25.5,0,0,0-2,1.93c-1,1.21-2.23,1.91-3.57,1s-1-2.38-.39-3.72q4.13-9.19,8.22-18.41c4.17-9.34,8.24-18.72,12.58-28,1-2.23.79-3.35-1-5a230.12,230.12,0,0,1-36.5-43.48c-3.49-5.35-6.23-11.2-9.09-16.92-1.12-2.23-1.93-3.51-4.76-2.17-3.1,1.46-5.62.68-7.61-2.63a91.34,91.34,0,0,0-10-14.25c-4.63-5.1-3.71-10.5-2.56-16.2.78-3.89,1.64-7.77,2.32-11.68.44-2.52.05-5.25,3.33-6.39,1.59-.55.66-2.22.46-3.26-4-20-3.49-40.21-1.68-60.38.73-8.21,2.87-16.22,4.66-24.26,1.5-6.8-1.68-12.71-3.63-18.85-.46-1.45-1.73-1-2.69-1.12a53,53,0,0,0-7.33-.48c-3.05.11-4.44-1.14-4.8-4.14-.85-7.13-1.58-14.29-2.9-21.34C8.61,125.07,8.37,111.53,7.83,98A5,5,0,0,0,5.9,94.55C2.09,90.76.83,86.32.91,80.91,1,72.35.33,63.77,0,55.2c-.08-1.91-1-4.39,1.48-5.17s4.65.26,6.39,2.84C20.4,71.5,33.15,90,45.83,108.55l11.58,16.94A239.85,239.85,0,0,1,85.23,90.38c1.77-1.83.87-2.88-.25-4.2-2.21-2.61-1.25-4.71.13-7.64,6.54-13.88,20.13-19,31.83-26.43,1.91-1.22,3.55-.83,4.73,1,2.86,4.45,5.72,3.81,10,1.31C149.19,44.17,167.53,35.67,187.46,31c-2.88-5.86-2.79-5.71,2.79-9.31,7.89-5.1,16.48-9.1,23.75-15.17a7.52,7.52,0,0,1,4.06-1.88,3.84,3.84,0,0,1-.36,1.3C216.93,7,214.58,7.46,216,9.45c1,1.43,2.13,3.05,4.48,2,1.45-.63,2.95,0,4.45.28a36.88,36.88,0,0,0,22-3.63c2.78-1.36,2.49-4,2.27-6.38S247-.62,245.12-.74c-2.26-.14-4.58.26-6.78-.58,12-.83,24-.2,35.62,3.25,6.06,1.8,11.32,5.21,13.52,11.78C286,20.57,282.82,25.77,276,29c-8.33,4-17.18,4.9-26,6.09-6.79.91-13.57-.35-20.36-.73s-12.56-3.6-19-4.55c-1.64-.24-2.67-1.87-3.68-3.28-1.78-2.5-1.7-5.4-1.93-8.77-3.9,2.39-7.28,4.73-10.9,6.61-2.92,1.52-3.3,3.17-1.51,5.78,3.12,4.53,6.12,9.14,9.19,13.71.78,1.16,1.64,2.3,3.22,2.31,3.21,0,6.29,1,9.54.94,19.76-.14,39.53-.53,59.27.13,8.28.28,14.41-2,19.52-8.22,2.12-2.59,6.35-4.74,6.52-7.3.19-3-4.27-5-6.62-7.5S287.42,19.94,287.92,15.68ZM105.52,367.09c1.77-3.95,3.56-7.48,5-11.16,1.19-3.12,2.8-3.46,5.57-1.93,8.44,4.64,17,9.12,25.43,13.66,1.35.72,2.63,1.34,2.87,3.21,1.11,8.6,4.05,16.79,5.72,25.27a7.41,7.41,0,0,0,4.52,5.67c14,7,28.91,11.46,43.95,15.52a5,5,0,0,0,5-1.32c5-4.27,10.21-8.29,15.24-12.53a9.64,9.64,0,0,1,6.64-2.45c13.63,0,27.31.51,40.88-.46,11.05-.79,19.87,1.62,26.3,11,2.92,4.24,6.25,5,11.6,3.21a251.68,251.68,0,0,0,43.54-19c1.67-.93,3-1.84,3.27-4,1-8.49,2.34-16.95,3.19-25.46a4.34,4.34,0,0,1,2-3.67c8.22-5.58,16.48-11.11,24.66-16.77,2.63-1.83,4-1,5.34,1.57,2.06,3.88,4.39,7.63,6.85,11.86,10.3-12.4,20.05-24.52,27.5-38.33,1-1.93,1-3.08-1.19-3.6-3.83-.9-4.29-3.32-3.28-6.61a23.27,23.27,0,0,0,.46-3.17c1.91-12.16,2.87-24.58,12-34.33,2-2.14,3.69-3.75,6.43-2.7,3.61,1.39,4.16-.72,4.43-3.33.71-6.68,1-13.42,2.1-20,1-6.36-.73-10.94-6-14.82-3.42-2.5-6.8-5.32-7.84-10.2-2-9.54-4.76-18.94-7.13-28.41-.49-1.94-1.49-3-3.14-4.37-8.13-6.85-18.52-11.44-20.48-24.27-1.56-10.16-.47-10.65,8.32-8s9,2.28,14-5.9c1.1-1.76,1.32-3.07.23-5a209,209,0,0,0-30.14-40.64c-1.33,1.5-2.49,2.9-3.76,4.19s-2.69,2.17-4.52,1.29c-13.08-6.3-28.95-9.54-30.86-28.16-.19-1.75-1.63-3.37-1.84-5.13-.53-4.53-3.54-6.5-7.2-8.37-21.92-11.17-44.49-18.92-69.74-18.11-22.48.73-45-.3-67.54-.55a27.13,27.13,0,0,0-6.85.3C179.65,55.35,163,61.65,147.8,71.28c-2.36,1.49-6.47,1.93-4.64,6.6.22.55-.75,1.6-1.23,2.38q-6.17,9.93-12.35,19.85c-.72,1.16-1.29,2.6-2.87,2.73-9,.75-17.24,6.68-26.81,4.37-.47-.11-1.26.74-1.77,1.27a165.24,165.24,0,0,0-25.7,35.59c-2.08,3.81,2.19,5.53,3.3,8.3.84,2.1,2.6,1.56,4.28,1.09,3.52-1,7.1-1.8,10.59-2.89,2.23-.69,4.13-.13,4.08,2.08-.14,6.11-.64,12.85-4.22,17.48-4.39,5.69-10.7,10-16.57,14.39-1.6,1.2-2.55,2.12-3,4-2.39,10.25-4.84,20.48-7.27,30.72a6.25,6.25,0,0,1-2.15,3.86c-4.17,3.32-7.19,7.93-11.87,10.66-1.1.64-.89,1.47-.86,2.31.25,8.71.14,17.41,1.62,26.08.66,3.81,1,6.51,5.8,4.69a2,2,0,0,1,2.52.58c3.54,5.52,8.59,10.47,10.17,16.73C71,292.5,71.28,301.35,72.39,310c.25,1.94-.2,3.41-2.29,3.8-3.54.66-2.28,2.41-1.27,4.45A133.46,133.46,0,0,0,88,346.68C93.81,353.37,99,360.58,105.52,367.09ZM5,58.54c0,6.64,0,13.28,0,19.92-.07,6.93,3.15,12.17,7.45,17.44,15.76,19.34,31.09,39,46.66,58.54,1.08,1.36,2.12,3.87,3.88,3.46,3.39-.8,6.91-.15,10.82-1.07C50.29,124.2,28.63,90.94,5,58.54ZM484.36,61.6c-1.42,0-1.49,1.11-2,1.8-12.21,17.89-23.34,36.47-35.5,54.41-9.25,13.64-18.25,27.45-27.55,41.06-.61.89-1.48,1.8-1.09,2.86s1.75.92,2.8,1.07c5.48.77,9.77-.53,12.49-5.93,1.41-2.82,3.7-5.2,5.66-7.73,11.66-15.07,23.41-30.07,35-45.21,3.68-4.8,9.26-9,9.93-15.08C485.1,79.87,484.36,70.7,484.36,61.6ZM452.49,184.91c-1,1.3-2,2.15-2.35,3.21-2.28,6.9-5.63,13.27-4.37,21.29,1.45,9.21.19,18.83,1.48,28.08,1.4,10.07-.76,19.5-2.6,29.12-.39,2.07-1.38,5,.46,5.94,2.78,1.37,6.23,1.41,9.42,1.89a15.81,15.81,0,0,0,.61-2.05c2.41-7.64,2.1-15.72,3.24-23.54,1.35-9.21.63-18.81-.45-28.31C456.6,208.82,455.68,197.08,452.49,184.91Zm-413-5.09a35.63,35.63,0,0,0-1.54,4.88c-1.28,10.12-4.16,19.93-5,30.18a242.82,242.82,0,0,0,1.58,51.56c.4,3,1.61,4.83,5.08,3.91,3.14-.83,6.67-.7,5.63-6A153.44,153.44,0,0,1,45,206.68c.75-4.15,2.39-8.61.33-13.06C43.42,189.49,41.75,185.23,39.47,179.82Zm62.69,194.27a4.25,4.25,0,0,0-1.46-4c-4.85-5-9.53-10.18-14-15.61C78.09,344,70.27,333.08,64.07,321c-2.15-4.19-8.22-4.47-11-.5a2.34,2.34,0,0,0,0,3c2.76,2.82,3.3,6.81,5.45,9.93,4.11,6,7.86,12.15,12.08,18.07,7.56,10.63,16.45,19.92,25.77,28.9,1,1,2.13,1.83,3,.33A58.42,58.42,0,0,0,102.16,374.09ZM477.1,109.26c-2.59.47-3.58,2.44-4.8,4.11-3.7,5-7.26,10.14-11.08,15.06-7.08,9.11-13.65,18.62-21.4,27.21-1.56,1.74-2.31,4.19-4.17,5.84a1.27,1.27,0,0,0,.45,2.23c3,1.1,6.45,2.32,9-.26,9.12-9.22,19-17.63,28.4-26.51,1.85-1.74,3.49-3.65,3.55-6.18C477.21,123.64,477.1,116.51,477.1,109.26Zm-464-5.7-.88.52c.33,6.68.61,13.36,1,20a13.42,13.42,0,0,0,5.08,9.73c7.06,6.05,13.7,12.57,20.78,18.58,4.12,3.5,7.66,8.58,14.48,6.79,2.07-.54,3.6-1,1.73-3-4.12-4.47-7.4-9.63-11.42-14.11-6.48-7.22-12.17-15-18.14-22.62C21.54,114.13,17.29,108.85,13.07,103.56Zm183.5-57.84c.17-4.61-5.93-9.31-9.43-8.57A146.28,146.28,0,0,0,162,45.43,180.35,180.35,0,0,0,132.9,60c-1,.65-2.63,1-1.48,3.08,3.13,5.7,5.64,6.52,11.38,3.33.53-.3,1.08-.57,1.63-.84,15.91-7.83,31.85-15.59,49.42-19.17C194.87,46.21,196.51,46.66,196.57,45.72Zm107.82-8.2c-5.07-.3-6.53,3.31-9,5.32-2.66,2.15-1.83,3.61,1.14,4.06,9.59,1.47,18.39,5.43,27.47,8.52s17,8.31,25.67,12.26c1.14.52,1.84,1.34,3.11.11,1.74-1.69,3.81-3,5.64-4.62,1.43-1.25,1.72-2.17-.51-3.3-10.77-5.41-21.28-11.4-32.67-15.5C318.05,41.8,310.75,39.6,304.39,37.52Zm-71.1,368.11c-3,.4-7.33-1.39-10.75.81-4.58,2.95-8.59,6.8-12.81,10.3-.94.79-2.09,2-.66,3,2.86,2,6,3.69,9,5.51,2.21,1.34,2.72-1.26,4.12-1.7.9-.28,2,.23,3.07.38,1.9.28,3.69,1.16,5.77.24,1.66-.74,3.29.32,4.6,1.4,5.6,4.63,6.19,4.61,11.29-.57,4.24-4.3,4.26-6.93.26-11.5-.67-.77-1.47-1.93-1.36-2.8.64-5-2.19-5.49-6.05-5.09C237.91,405.79,236.06,405.63,233.29,405.63ZM69.23,161.94l-27.82,2.79c-2.31.24-2.75,1.44-1.9,3.49,3,7.09,5.48,14.4,9.2,21.19.53,1,.76,2,2.15,1.93s1.6-1.14,2-2.13c1.08-2.84,2.94-4,6.16-4.41,4.58-.63,7.85-4.23,10-8.05,1.7-3.08,1.86-7,3-10.41S72.46,161.32,69.23,161.94Zm372.33,34.41c4.48-7.76,6.78-15.68,9.85-23.25.72-1.79-.24-2.78-2.1-3.24-9.38-2.32-19.06-1.85-28.55-3.17-2.23-.31-2.68,1.43-2,3,2.61,5.83.72,14,8.91,17.05,1.57.59,2,3.74,4.32,3.63C436.25,190.21,438.87,192.49,441.56,196.35Zm-11.51-62.76c-.7-1.21-.64-2.57-1.41-3.83A209.89,209.89,0,0,0,405,98.81c-4.89-5.39-4.89-5.06-10.1.06-2.84,2.8-2,5.06.51,6.64,6.24,3.92,9.76,10.18,14.17,15.65a144.8,144.8,0,0,1,12.88,19.22c.57,1,1.67,3.05,3,1.46A18.36,18.36,0,0,0,430.05,133.59ZM65.55,292.09c-.1-3.35-.7-3.54-5.45-1.92-7.27,2.47-14.22,5.84-21.84,7.31-2.65.51-5.16,1.79-7.71,2.76-1.58.6-1.89,1.32-1,3.08a106.83,106.83,0,0,0,8.68,13.39c2.38,3.26,6.35,3.22,8.14-.33,2-4,5.3-7,7.28-11,1-2,2.93-3.5,5-5C61.46,298.4,65.36,296.54,65.55,292.09ZM126.45,96.4c4.45-5,6.83-11,10.46-16.25,2.14-3.09.31-5.63-3.39-6.51-8.67-2.08-18.33-1.12-25.45-8.07a2.72,2.72,0,0,0-.82-.4,5.35,5.35,0,0,0-5.86,1.4c-1.83,1.8.82,2.8,1.75,3.84C110.73,79,118.44,87.5,126.45,96.4ZM425.52,292.89c-1.59-.35-2.14.63-2.42,2-.52,2.51,1,4,2.7,5.4,6.5,5.35,12.09,11.36,14.89,19.57,1.07,3.16,6.66,3.77,8.63,1.07,3.13-4.29,6.21-8.63,9.26-13,1.24-1.76,1.59-3.05-1.22-3.93-6.67-2.09-13.16-4.79-19.87-6.72C433.37,296.09,429.83,293.48,425.52,292.89ZM90.25,93.77a35.22,35.22,0,0,0-2.64,2.35,293.91,293.91,0,0,0-22.93,28.51c-3.28,4.66-3.1,8.26.54,12.48,1.87,2.18,2.68,2.94,4.35.06A176.27,176.27,0,0,1,94.6,104c1-1,1.81-2.16.7-3.62C93.67,98.22,92,96.09,90.25,93.77ZM387.88,68.51a4.62,4.62,0,0,0-3.12,2.6c-1.69,3.13-4.31,5.47-6.67,8-4.62,5.06-9,10.35-13.7,15.37-2.15,2.31-1.75,3,1,4.43,4.71,2.49,9.74,4.26,14.4,6.81,3.16,1.72,5.6-.65,5.17-2.64-.83-3.79,1.72-7,1.11-10.16-1.35-7,1.7-12.67,4.26-18.58C391.21,72.37,389.61,68.55,387.88,68.51Zm22.61,333.05c1-1.84,0-3-.76-4.33-7.32-12.74-14.54-25.54-21.83-38.3-1.58-2.77-2.87-7-5.16-7.72-2.76-.83-5.65,2.78-8.4,4.6-.62.42-1.27.78-1.88,1.22-1.22.87-1.49,1.78-.15,2.85,3.13,2.49,5.3,5.88,7.94,8.81,6.17,6.85,12.4,13.66,18.27,20.8C402,393.73,404.9,399,410.49,401.56ZM94,409.23a3.19,3.19,0,0,0,2.66-1.92c7.2-11.95,15.72-22.95,24.27-33.94,6.19-7.94,6.07-7.89-2-13.06-3.24-2.08-5.09-1.76-6.61,1.92-2.95,7.18-6.14,14.27-9.29,21.36S96.51,398,93.44,405.22C93,406.33,90.84,408.63,94,409.23Zm60,9.24c2.46.6,4-1.33,6-2.05,1.32-.49,1.26-2.48.73-2.58-3.75-.71-3.64-5.11-7-6.54a93.8,93.8,0,0,1-20.57-11.83c-6.43-5-10-2.57-12.8,2.49-.8,1.42-.79,2.73.75,3.5,7,3.46,12.86,8.78,20.24,11.61C145.65,414.71,149.29,417.91,154,418.47ZM28.6,295.61c3.86.15,7.18-1.6,10.62-2.72,1.73-.57,5.1-1.29,2.55-4.74-.25-.33.36-1.37.68-2,2.47-5.14,7.72-6.66,12.16-9.19,1.44-.81,3.63-1.11,2.79-3.25A3.45,3.45,0,0,0,53,271.59c-6.17,1.59-12.39,3-18.63,4.24a5.52,5.52,0,0,0-4.82,4.67c-1,4.13-.48,8.53-2.43,12.5C26.62,293.92,26.28,295.93,28.6,295.61ZM371.34,57.38a13.25,13.25,0,0,0-2.23,1.35c-5.28,4.82-10.5,9.7-15.77,14.54-1.36,1.25-1.23,2.63-.64,4.17,1.72,4.54,3.55,9,5,13.66.76,2.38,1.66,1.74,2.77.57,2.74-2.86,5.41-5.78,8.09-8.68,1.25-1.35.76-2.79.23-4.26-2.13-5.87-.73-11.07,4.31-15.53a3.58,3.58,0,0,0,1.09-3.71C374,58,372.68,57.76,371.34,57.38ZM87.86,82.63C91.67,88,95.51,93.09,99,98.42c2.65,4.11,5.41,6.69,10.59,4,1.55-.82,3.69-.49,5.27-1.29,2.34-1.18,6.48.51,7-1.81.59-2.87-2.92-5-5-7.17a29.59,29.59,0,0,0-5.1-3.81c-.58-.39-1.69-.84-2-.57-4.65,3.41-8-.69-12-1.61C94.18,85.32,92.8,79.7,87.86,82.63ZM460.74,294.19h-.1c0-1.38.31-2.84-.06-4.11-.9-3.12-.46-8.14-2.86-9.05-7.31-2.76-15.14-4.14-22.79-6-1-.25-2.24-.1-2.56,1.28a1.87,1.87,0,0,0,1.4,2.47c4.65,1.37,6.9,6.14,11.3,8,1.11.46,2.62,2.1,2.5,3-.74,6.08,3.68,7.15,7.81,8.75,5.48,2.12,5.45,2.2,5.36-3.9C460.73,294.49,460.74,294.34,460.74,294.19ZM15.47,137.84c1,7.33,1.72,13.35,2.58,19.36.3,2.13,1.63,2.88,3.86,3,5,.21,10.09-.88,15.06.59,1.05.32,2.25.3,2.58-1.11.23-1-.33-1.54-1.12-2.22-3.67-3.13-7.06-6.59-10.8-9.62S20.8,141,15.47,137.84ZM459.9,164.65c2.56,0,4.7,0,6.85,0,3.72.06,6-1.32,6.46-5.41.5-4.68.57-9.44,2-14,.26-.84.32-1.93-.82-2.33s-1.71.37-2.38,1c-5,4.75-10.05,9.37-14.82,14.31-1.75,1.82-5.76,3.58-4.88,5.4C453.62,166.32,457.57,164,459.9,164.65ZM73.77,179c2.84-2.51,5-5.23,7.82-6.76,6.08-3.33,7-9.1,8.26-14.92a1.21,1.21,0,0,0-1-1.66c-2-.63-10.88,2.78-11.28,4.65C76.31,166.3,74.38,172.23,73.77,179Zm344.72,6.5c-2.05-7.57-3.72-13.94-5.52-20.27-.42-1.47-9.58-4.7-10.88-4-.33.19-.76.69-.72,1,.73,4.47.89,9.34,4.73,12.41A124.4,124.4,0,0,1,418.49,185.45ZM206.91,429.92c.65,4.5,1.39,9.3,2,14.11.25,1.93,1.49,2,3,2,1.71,0,2.59-.76,2.53-2.47a17.8,17.8,0,0,1,1-7.65c1.77-4.21.55-6.94-3.55-8.74-1.34-.58-2.5-2.4-4-1.74C206.2,426.17,207.3,428.17,206.91,429.92ZM281,446c1.89,0,4.3-2.08,4.9-4.47.66-2.59-1.13-3.52-3-4.41-3.48-1.65-11.63.89-13.51,4.14-.89,1.54-.25,2.43,1.12,2.74C273.93,444.71,277.38,445.27,281,446Z" fill="#431b75"/><path d="M287.92,15.68c-.5,4.26,3,6.08,5.29,8.58s6.81,4.53,6.62,7.5c-.17,2.56-4.4,4.71-6.52,7.3-5.11,6.22-11.24,8.5-19.52,8.22-19.74-.66-39.51-.27-59.27-.13-3.25,0-6.33-.93-9.54-.94-1.58,0-2.44-1.15-3.22-2.31-3.07-4.57-6.07-9.18-9.19-13.71-1.79-2.61-1.41-4.26,1.51-5.78,3.62-1.88,7-4.22,10.9-6.61.23,3.37.15,6.27,1.93,8.77,1,1.41,2,3,3.68,3.28,6.47.95,12.29,4.17,19,4.55S243.19,36,250,35.13c8.84-1.19,17.69-2.08,26-6.09,6.82-3.27,10-8.47,11.48-15.33C287.63,14.37,287.77,15,287.92,15.68Z" fill="#622fc0"/><path d="M238.34-1.32c2.2.84,4.52.44,6.78.58,1.84.12,3.9-.06,4.14,2.49s.51,5-2.27,6.38a36.88,36.88,0,0,1-22,3.63c-1.5-.23-3-.91-4.45-.28-2.35,1-3.45-.6-4.48-2-1.44-2,.91-2.43,1.68-3.52a3.84,3.84,0,0,0,.36-1.3C224.35,1.06,231.24-.49,238.34-1.32Z" fill="#622fc0"/><path d="M105.52,367.09C99,360.58,93.81,353.37,88,346.68a133.46,133.46,0,0,1-19.18-28.44c-1-2-2.27-3.79,1.27-4.45,2.09-.39,2.54-1.86,2.29-3.8-1.11-8.64-1.41-17.49-3.52-25.88-1.58-6.26-6.63-11.21-10.17-16.73a2,2,0,0,0-2.52-.58c-4.75,1.82-5.14-.88-5.8-4.69C48.9,253.44,49,244.74,48.76,236c0-.84-.24-1.67.86-2.31,4.68-2.73,7.7-7.34,11.87-10.66a6.25,6.25,0,0,0,2.15-3.86c2.43-10.24,4.88-20.47,7.27-30.72.43-1.84,1.38-2.76,3-4,5.87-4.4,12.18-8.7,16.57-14.39,3.58-4.63,4.08-11.37,4.22-17.48,0-2.21-1.85-2.77-4.08-2.08-3.49,1.09-7.07,1.9-10.59,2.89-1.68.47-3.44,1-4.28-1.09-1.11-2.77-5.38-4.49-3.3-8.3a165.24,165.24,0,0,1,25.7-35.59c.51-.53,1.3-1.38,1.77-1.27,9.57,2.31,17.77-3.62,26.81-4.37,1.58-.13,2.15-1.57,2.87-2.73q6.16-9.93,12.35-19.85c.48-.78,1.45-1.83,1.23-2.38-1.83-4.67,2.28-5.11,4.64-6.6C163,61.65,179.65,55.35,197.1,51.1a27.13,27.13,0,0,1,6.85-.3c22.51.25,45.06,1.28,67.54.55,25.25-.81,47.82,6.94,69.74,18.11,3.66,1.87,6.67,3.84,7.2,8.37.21,1.76,1.65,3.38,1.84,5.13,1.91,18.62,17.78,21.86,30.86,28.16,1.83.88,3.29,0,4.52-1.29s2.43-2.69,3.76-4.19a209,209,0,0,1,30.14,40.64c1.09,1.9.87,3.21-.23,5-5.09,8.18-5.15,8.6-14,5.9s-9.88-2.17-8.32,8c2,12.83,12.35,17.42,20.48,24.27,1.65,1.39,2.65,2.43,3.14,4.37,2.37,9.47,5.08,18.87,7.13,28.41,1,4.88,4.42,7.7,7.84,10.2,5.29,3.88,7,8.46,6,14.82-1.05,6.63-1.39,13.37-2.1,20-.27,2.61-.82,4.72-4.43,3.33-2.74-1-4.4.56-6.43,2.7-9.17,9.75-10.13,22.17-12,34.33a23.27,23.27,0,0,1-.46,3.17c-1,3.29-.55,5.71,3.28,6.61,2.22.52,2.23,1.67,1.19,3.6-7.45,13.81-17.2,25.93-27.5,38.33-2.46-4.23-4.79-8-6.85-11.86-1.34-2.55-2.71-3.4-5.34-1.57-8.18,5.66-16.44,11.19-24.66,16.77a4.34,4.34,0,0,0-2,3.67c-.85,8.51-2.16,17-3.19,25.46-.26,2.16-1.6,3.07-3.27,4a251.68,251.68,0,0,1-43.54,19c-5.35,1.77-8.68,1-11.6-3.21-6.43-9.37-15.25-11.78-26.3-11-13.57,1-27.25.46-40.88.46a9.64,9.64,0,0,0-6.64,2.45c-5,4.24-10.24,8.26-15.24,12.53a5,5,0,0,1-5,1.32c-15-4.06-29.93-8.53-43.95-15.52a7.41,7.41,0,0,1-4.52-5.67c-1.67-8.48-4.61-16.67-5.72-25.27-.24-1.87-1.52-2.49-2.87-3.21-8.48-4.54-17-9-25.43-13.66-2.77-1.53-4.38-1.19-5.57,1.93C109.08,359.61,107.29,363.14,105.52,367.09Zm59.9-11.27c31,.6,58.93-2.06,86.46-8.36,24.4-5.59,47.6-14.25,67.81-29.59a5.1,5.1,0,0,1,3.74-1.12c6.11.33,12.24.33,18.36.62,7,.33,12.8-2.4,17.82-7,8.2-7.55,12.22-17.41,14.74-27.91,4.82-20.05,5.71-40.48,5.82-61a88.78,88.78,0,0,0-6.22-34c-1.19-3-.86-4.43,1.64-6.69,5.56-5.05,11.64-10.08,10-19.2a28.11,28.11,0,0,0-3.37-9.87c-7.32-12-19.07-24.11-36.88-13.38-2.59,1.56-3.61-.19-5-1.4A113,113,0,0,0,295,112.93c-18.53-4.81-37.45-5.72-56.4-5.74A72.5,72.5,0,0,0,206,115.28a18.78,18.78,0,0,0-10.78,15,108.25,108.25,0,0,0-1,13.7c0,2.73-1,4-3.42,5.07-12,5.43-23.23,12.28-32.76,21.54-14.53,14.13-25.52,30.83-34.34,48.91C110,247.71,99.3,276.69,101.19,309c.82,14,13.1,38.47,32.78,43.48C145.25,355.39,156.71,355.09,165.42,355.82Z" fill="#fdfdfd"/><path d="M5,58.54c23.64,32.4,45.3,65.66,68.8,98.29-3.91.92-7.43.27-10.82,1.07-1.76.41-2.8-2.1-3.88-3.46-15.57-19.51-30.9-39.2-46.66-58.54C8.13,90.63,4.91,85.39,5,78.46,5,71.82,5,65.18,5,58.54Z" fill="#622fc0"/><path d="M484.36,61.6c0,9.1.74,18.27-.25,27.25-.67,6.11-6.25,10.28-9.93,15.08-11.57,15.14-23.32,30.14-35,45.21-2,2.53-4.25,4.91-5.66,7.73-2.72,5.4-7,6.7-12.49,5.93-1.05-.15-2.37.11-2.8-1.07s.48-2,1.09-2.86c9.3-13.61,18.3-27.42,27.55-41.06,12.16-17.94,23.29-36.52,35.5-54.41C482.87,62.71,482.94,61.57,484.36,61.6Z" fill="#622fc0"/><path d="M452.49,184.91c3.19,12.17,4.11,23.91,5.44,35.63,1.08,9.5,1.8,19.1.45,28.31-1.14,7.82-.83,15.9-3.24,23.54a15.81,15.81,0,0,1-.61,2.05c-3.19-.48-6.64-.52-9.42-1.89-1.84-.9-.85-3.87-.46-5.94,1.84-9.62,4-19.05,2.6-29.12-1.29-9.25,0-18.87-1.48-28.08-1.26-8,2.09-14.39,4.37-21.29C450.49,187.06,451.51,186.21,452.49,184.91Z" fill="#622fc0"/><path d="M39.47,179.82c2.28,5.41,4,9.67,5.87,13.8,2.06,4.45.42,8.91-.33,13.06a153.44,153.44,0,0,0,.22,57.71c1,5.26-2.49,5.13-5.63,6-3.47.92-4.68-.9-5.08-3.91a242.82,242.82,0,0,1-1.58-51.56c.83-10.25,3.71-20.06,5-30.18A35.63,35.63,0,0,1,39.47,179.82Z" fill="#622fc0"/><path d="M102.16,374.09a58.42,58.42,0,0,1-2.83,6.65c-.82,1.5-2,.64-3-.33-9.32-9-18.21-18.27-25.77-28.9-4.22-5.92-8-12.11-12.08-18.07-2.15-3.12-2.69-7.11-5.45-9.93a2.34,2.34,0,0,1,0-3c2.8-4,8.87-3.69,11,.5,6.2,12.07,14,23,22.64,33.47,4.46,5.43,9.14,10.58,14,15.61A4.25,4.25,0,0,1,102.16,374.09Z" fill="#622fc0"/><path d="M477.1,109.26c0,7.25.11,14.38-.05,21.5-.06,2.53-1.7,4.44-3.55,6.18-9.43,8.88-19.28,17.29-28.4,26.51-2.55,2.58-6,1.36-9,.26a1.27,1.27,0,0,1-.45-2.23c1.86-1.65,2.61-4.1,4.17-5.84,7.75-8.59,14.32-18.1,21.4-27.21,3.82-4.92,7.38-10,11.08-15.06C473.52,111.7,474.51,109.73,477.1,109.26Z" fill="#622fc0"/><path d="M13.07,103.56c4.22,5.29,8.47,10.57,12.65,15.9,6,7.6,11.66,15.4,18.14,22.62,4,4.48,7.3,9.64,11.42,14.11,1.87,2.05.34,2.49-1.73,3-6.82,1.79-10.36-3.29-14.48-6.79-7.08-6-13.72-12.53-20.78-18.58a13.42,13.42,0,0,1-5.08-9.73c-.41-6.68-.69-13.36-1-20Z" fill="#622fc0"/><path d="M196.57,45.72c-.06.94-1.7.49-2.72.69C176.28,50,160.34,57.75,144.43,65.58c-.55.27-1.1.54-1.63.84-5.74,3.19-8.25,2.37-11.38-3.33-1.15-2.08.48-2.43,1.48-3.08A180.35,180.35,0,0,1,162,45.43a146.28,146.28,0,0,1,25.17-8.28C190.64,36.41,196.74,41.11,196.57,45.72Z" fill="#622fc0"/><path d="M304.39,37.52c6.36,2.08,13.66,4.28,20.83,6.85,11.39,4.1,21.9,10.09,32.67,15.5,2.23,1.13,1.94,2.05.51,3.3-1.83,1.6-3.9,2.93-5.64,4.62-1.27,1.23-2,.41-3.11-.11C341,63.73,333,58.49,324,55.42s-17.88-7.05-27.47-8.52c-3-.45-3.8-1.91-1.14-4.06C297.86,40.83,299.32,37.22,304.39,37.52Z" fill="#622fc0"/><path d="M233.29,405.63c2.77,0,4.62.16,6.43,0,3.86-.4,6.69.09,6.05,5.09-.11.87.69,2,1.36,2.8,4,4.57,4,7.2-.26,11.5-5.1,5.18-5.69,5.2-11.29.57-1.31-1.08-2.94-2.14-4.6-1.4-2.08.92-3.87,0-5.77-.24-1-.15-2.17-.66-3.07-.38-1.4.44-1.91,3-4.12,1.7-3-1.82-6.09-3.5-9-5.51-1.43-1-.28-2.2.66-3,4.22-3.5,8.23-7.35,12.81-10.3C226,404.24,230.31,406,233.29,405.63Z" fill="#622fc0"/><path d="M69.23,161.94c3.23-.62,3.89,1,2.74,4.4s-1.32,7.33-3,10.41c-2.11,3.82-5.38,7.42-10,8.05-3.22.44-5.08,1.57-6.16,4.41-.37,1-.54,2.09-2,2.13s-1.62-1-2.15-1.93c-3.72-6.79-6.21-14.1-9.2-21.19-.85-2.05-.41-3.25,1.9-3.49Z" fill="#622fc0"/><path d="M441.56,196.35c-2.69-3.86-5.31-6.14-9.54-5.95-2.36.11-2.75-3-4.32-3.63-8.19-3.09-6.3-11.22-8.91-17.05-.71-1.6-.26-3.34,2-3,9.49,1.32,19.17.85,28.55,3.17,1.86.46,2.82,1.45,2.1,3.24C448.34,180.67,446,188.59,441.56,196.35Z" fill="#622fc0"/><path d="M430.05,133.59a18.36,18.36,0,0,1-4.58,8.25c-1.37,1.59-2.47-.47-3-1.46a144.8,144.8,0,0,0-12.88-19.22c-4.41-5.47-7.93-11.73-14.17-15.65-2.52-1.58-3.35-3.84-.51-6.64,5.21-5.12,5.21-5.45,10.1-.06a209.89,209.89,0,0,1,23.67,30.95C429.41,131,429.35,132.38,430.05,133.59Z" fill="#622fc0"/><path d="M65.55,292.09c-.19,4.45-4.09,6.31-6.9,8.33-2,1.47-4,2.93-5,5-2,4-5.26,7-7.28,11-1.79,3.55-5.76,3.59-8.14.33a106.83,106.83,0,0,1-8.68-13.39c-.92-1.76-.61-2.48,1-3.08,2.55-1,5.06-2.25,7.71-2.76,7.62-1.47,14.57-4.84,21.84-7.31C64.85,288.55,65.45,288.74,65.55,292.09Z" fill="#622fc0"/><path d="M126.45,96.4c-8-8.9-15.72-17.4-23.31-26-.93-1-3.58-2-1.75-3.84a5.35,5.35,0,0,1,5.86-1.4,2.72,2.72,0,0,1,.82.4c7.12,7,16.78,6,25.45,8.07,3.7.88,5.53,3.42,3.39,6.51C133.28,85.38,130.9,91.4,126.45,96.4Z" fill="#622fc0"/><path d="M425.52,292.89c4.31.59,7.85,3.2,12,4.39,6.71,1.93,13.2,4.63,19.87,6.72,2.81.88,2.46,2.17,1.22,3.93-3.05,4.34-6.13,8.68-9.26,13-2,2.7-7.56,2.09-8.63-1.07-2.8-8.21-8.39-14.22-14.89-19.57-1.7-1.4-3.22-2.89-2.7-5.4C423.38,293.52,423.93,292.54,425.52,292.89Z" fill="#622fc0"/><path d="M90.25,93.77c1.78,2.32,3.42,4.45,5,6.6,1.11,1.46.3,2.58-.7,3.62a176.27,176.27,0,0,0-25,33.18c-1.67,2.88-2.48,2.12-4.35-.06-3.64-4.22-3.82-7.82-.54-12.48A293.91,293.91,0,0,1,87.61,96.12,35.22,35.22,0,0,1,90.25,93.77Z" fill="#622fc0"/><path d="M387.88,68.51c1.73,0,3.33,3.86,2.45,5.88C387.77,80.3,384.72,86,386.07,93c.61,3.17-1.94,6.37-1.11,10.16.43,2-2,4.36-5.17,2.64-4.66-2.55-9.69-4.32-14.4-6.81-2.75-1.47-3.15-2.12-1-4.43,4.68-5,9.08-10.31,13.7-15.37,2.36-2.58,5-4.92,6.67-8A4.62,4.62,0,0,1,387.88,68.51Z" fill="#622fc0"/><path d="M410.49,401.56c-5.59-2.52-8.48-7.83-12-12.07-5.87-7.14-12.1-13.95-18.27-20.8-2.64-2.93-4.81-6.32-7.94-8.81-1.34-1.07-1.07-2,.15-2.85.61-.44,1.26-.8,1.88-1.22,2.75-1.82,5.64-5.43,8.4-4.6,2.29.68,3.58,5,5.16,7.72,7.29,12.76,14.51,25.56,21.83,38.3C410.5,398.58,411.45,399.72,410.49,401.56Z" fill="#622fc0"/><path d="M94,409.23c-3.17-.6-1.05-2.9-.57-4,3.07-7.27,6.44-14.41,9.65-21.63s6.34-14.18,9.29-21.36c1.52-3.68,3.37-4,6.61-1.92,8,5.17,8.14,5.12,2,13.06-8.55,11-17.07,22-24.27,33.94A3.19,3.19,0,0,1,94,409.23Z" fill="#622fc0"/><path d="M154,418.47c-4.73-.56-8.37-3.76-12.65-5.4-7.38-2.83-13.26-8.15-20.24-11.61-1.54-.77-1.55-2.08-.75-3.5,2.85-5.06,6.37-7.48,12.8-2.49a93.8,93.8,0,0,0,20.57,11.83c3.32,1.43,3.21,5.83,7,6.54.53.1.59,2.09-.73,2.58C158,417.14,156.48,419.07,154,418.47Z" fill="#622fc0"/><path d="M28.6,295.61c-2.32.32-2-1.69-1.53-2.61,1.95-4,1.41-8.37,2.43-12.5a5.52,5.52,0,0,1,4.82-4.67c6.24-1.26,12.46-2.65,18.63-4.24a3.45,3.45,0,0,1,4.45,2.09c.84,2.14-1.35,2.44-2.79,3.25-4.44,2.53-9.69,4.05-12.16,9.19-.32.66-.93,1.7-.68,2,2.55,3.45-.82,4.17-2.55,4.74C35.78,294,32.46,295.76,28.6,295.61Z" fill="#622fc0"/><path d="M371.34,57.38c1.34.38,2.61.65,2.88,2.11a3.58,3.58,0,0,1-1.09,3.71c-5,4.46-6.44,9.66-4.31,15.53.53,1.47,1,2.91-.23,4.26-2.68,2.9-5.35,5.82-8.09,8.68-1.11,1.17-2,1.81-2.77-.57-1.48-4.61-3.31-9.12-5-13.66-.59-1.54-.72-2.92.64-4.17,5.27-4.84,10.49-9.72,15.77-14.54A13.25,13.25,0,0,1,371.34,57.38Z" fill="#622fc0"/><path d="M87.86,82.63c4.94-2.93,6.32,2.69,9.78,3.49,4,.92,7.35,5,12,1.61.36-.27,1.47.18,2,.57a29.59,29.59,0,0,1,5.1,3.81c2.06,2.16,5.57,4.3,5,7.17-.48,2.32-4.62.63-7,1.81-1.58.8-3.72.47-5.27,1.29-5.18,2.73-7.94.15-10.59-4C95.51,93.09,91.67,88,87.86,82.63Z" fill="#622fc0"/><path d="M460.74,294.19c0,.15,0,.3,0,.45.09,6.1.12,6-5.36,3.9-4.13-1.6-8.55-2.67-7.81-8.75.12-.92-1.39-2.56-2.5-3-4.4-1.82-6.65-6.59-11.3-8a1.87,1.87,0,0,1-1.4-2.47c.32-1.38,1.54-1.53,2.56-1.28,7.65,1.83,15.48,3.21,22.79,6,2.4.91,2,5.93,2.86,9.05.37,1.27.06,2.73.06,4.11Z" fill="#622fc0"/><path d="M15.47,137.84c5.33,3.12,8.43,6.95,12.16,10s7.13,6.49,10.8,9.62c.79.68,1.35,1.25,1.12,2.22-.33,1.41-1.53,1.43-2.58,1.11-5-1.47-10-.38-15.06-.59-2.23-.09-3.56-.84-3.86-3C17.19,151.19,16.44,145.17,15.47,137.84Z" fill="#622fc0"/><path d="M459.9,164.65c-2.33-.68-6.28,1.67-7.6-1-.88-1.82,3.13-3.58,4.88-5.4,4.77-4.94,9.86-9.56,14.82-14.31.67-.63,1.36-1.36,2.38-1s1.08,1.49.82,2.33c-1.42,4.56-1.49,9.32-2,14-.44,4.09-2.74,5.47-6.46,5.41C464.6,164.62,462.46,164.65,459.9,164.65Z" fill="#622fc0"/><path d="M73.77,179c.61-6.72,2.54-12.65,3.84-18.69.4-1.87,9.32-5.28,11.28-4.65a1.21,1.21,0,0,1,1,1.66c-1.21,5.82-2.18,11.59-8.26,14.92C78.77,173.72,76.61,176.44,73.77,179Z" fill="#622fc0"/><path d="M418.49,185.45a124.4,124.4,0,0,0-12.39-10.84c-3.84-3.07-4-7.94-4.73-12.41,0-.29.39-.79.72-1,1.3-.74,10.46,2.49,10.88,4C414.77,171.51,416.44,177.88,418.49,185.45Z" fill="#622fc0"/><path d="M206.91,429.92c.39-1.75-.71-3.75.94-4.48,1.46-.66,2.62,1.16,4,1.74,4.1,1.8,5.32,4.53,3.55,8.74a17.8,17.8,0,0,0-1,7.65c.06,1.71-.82,2.49-2.53,2.47-1.46,0-2.7-.08-3-2C208.3,439.22,207.56,434.42,206.91,429.92Z" fill="#622fc0"/><path d="M281,446c-3.63-.68-7.08-1.24-10.49-2-1.37-.31-2-1.2-1.12-2.74,1.88-3.25,10-5.79,13.51-4.14,1.87.89,3.66,1.82,3,4.41C285.31,443.87,282.9,446,281,446Z" fill="#622fc0"/><path d="M165.42,355.82c-8.71-.73-20.17-.43-31.45-3.31-19.68-5-32-29.47-32.78-43.48-1.89-32.34,8.77-61.32,22.53-89.54,8.82-18.08,19.81-34.78,34.34-48.91,9.53-9.26,20.71-16.11,32.76-21.54,2.46-1.11,3.41-2.34,3.42-5.07a108.25,108.25,0,0,1,1-13.7,18.78,18.78,0,0,1,10.78-15,72.5,72.5,0,0,1,32.64-8.09c18.95,0,37.87.93,56.4,5.74a113,113,0,0,1,45.34,23.94c1.41,1.21,2.43,3,5,1.4,17.81-10.73,29.56,1.37,36.88,13.38a28.11,28.11,0,0,1,3.37,9.87c1.6,9.12-4.48,14.15-10,19.2-2.5,2.26-2.83,3.71-1.64,6.69a88.78,88.78,0,0,1,6.22,34c-.11,20.54-1,41-5.82,61-2.52,10.5-6.54,20.36-14.74,27.91-5,4.63-10.79,7.36-17.82,7-6.12-.29-12.25-.29-18.36-.62a5.1,5.1,0,0,0-3.74,1.12c-20.21,15.34-43.41,24-67.81,29.59C224.35,353.76,196.38,356.42,165.42,355.82Zm81.06-239.58a80.39,80.39,0,0,0-28.36,6.32c-4.88,2.15-9.78,4.44-11.88,10-1.47,1.13-1.53,2.88-2,4.45-1.69,6.12-.74,12.38-.88,18.58a13.28,13.28,0,0,1-1.89,1.23,118.34,118.34,0,0,0-50.24,40.09c-15.27,21-26.24,44-34.31,68.56-4.16,12.64-8,25.37-6.37,39-.14,1.06-.24,2.09.85,2.76h0c1.11,10.23,6.74,18.24,13.24,25.59,9.43,10.66,22.31,13.37,35.72,13.87a309.24,309.24,0,0,0,68.83-5.32c32.63-6.12,63.85-15.51,89.07-38.7,5.31,5.43,21,7.82,29.36,1.56,10.78-8,15-19.54,18.34-31.58,2.52-8.93,3.3-18.21,4.53-27.38a104,104,0,0,0-.52-31.79c-1.95-11.27-6.38-21.55-11.16-31.75-1.12-2.39-1-3.57,1.48-5.07a125.46,125.46,0,0,0,11-8.16c1.46-1.13,3.38-2.83,2.82-4.4-1.72-4.82-1.65-10.51-6.2-14.08a2.8,2.8,0,0,0-1.89-2.74c-3.05-4.07-6.75-3.07-10.41-1.18-4.83,2.48-9.56,5.14-14.34,7.72-2.25-.19-3.33-2-4.71-3.42-22.61-22.53-50.51-32.11-81.78-33.45A17.57,17.57,0,0,0,246.48,116.24Z" fill="#1f150e"/><path d="M110.58,304.43c-1.65-13.61,2.21-26.34,6.37-39,8.07-24.52,19-47.59,34.31-68.56A118.34,118.34,0,0,1,201.5,156.8a13.28,13.28,0,0,0,1.89-1.23,8.86,8.86,0,0,0,1.8-.22,83.67,83.67,0,0,1,55.16.07c16.16,5.56,29.42,15.89,42.23,26.82,1,5.3,4.18,9.84,5.41,15,1.89,8,1.43,16,.19,24.09a71.36,71.36,0,0,1-16.6,36c-7.81,9.25-18.73,13.16-28.81,18.42-13.3,6.95-27.07,13-40.67,19.35-20.81,9.73-41.43,20.11-64.72,22.61-12.49,1.35-24.94,1.71-36.2-5.73-3-2-5.88-4.46-9.74-4.78h0A2.78,2.78,0,0,0,110.58,304.43Zm54.13-58.89c8.24.73,15.31-2.29,22.47-4.62,12-3.91,23.73-8.66,34.37-15.71,4.91-3.24,9.45-7.09,14.22-10.32,8.53-5.78,13.76-12.81,15.25-22.82a14.17,14.17,0,0,0-3.68-12.15c-5.42-5.68-12.73-8.44-20.23-9.47-5.43-.74-11-1.36-16.75-.4-9.75,1.63-19.11,3.88-27.11,9.92-2.78,2.1-4.9,5.08-7.66,7.24-13.85,10.84-23.24,24.77-28.87,41.31-1.91,5.62,1.48,13.52,6.38,15.14C157,245,160.89,246.42,164.71,245.54Z" fill="#c17e4a"/><path d="M111.44,307.2c3.86.32,6.76,2.81,9.74,4.78,11.26,7.44,23.71,7.08,36.2,5.73,23.29-2.5,43.91-12.88,64.72-22.61,13.6-6.37,27.37-12.4,40.67-19.35,10.08-5.26,21-9.17,28.81-18.42a71.36,71.36,0,0,0,16.6-36c1.24-8.06,1.7-16.13-.19-24.09-1.23-5.17-4.42-9.71-5.41-15,11.56,8.66,18.25,20.61,23,33.89,2.59,7.21,3.07,14.81,4.51,22.24a210.58,210.58,0,0,1-.72,21.45c-1.55,14.86-3,29.68-11.1,42.82-25.22,23.19-56.44,32.58-89.07,38.7a309.24,309.24,0,0,1-68.83,5.32c-13.41-.5-26.29-3.21-35.72-13.87C118.18,325.44,112.55,317.43,111.44,307.2Z" fill="#895a34"/><path d="M330.12,238.37c-1.44-7.43-1.92-15-4.51-22.24-4.78-13.28-11.47-25.23-23-33.89-12.81-10.93-26.07-21.26-42.23-26.82a83.67,83.67,0,0,0-55.16-.07,8.86,8.86,0,0,1-1.8.22c.14-6.2-.81-12.46.88-18.58.44-1.57.5-3.32,2-4.45,1.78,1.06,3-.49,4.48-.93,1.67,1.67,3.79,1,5.67.87,15-.74,29.29,2.75,43.45,7.12,12.36,3.82,23.93,9.43,35.49,15.19,8.87,4.42,17.18,9.06,22.33,18a33.1,33.1,0,0,0,4,4.94,1.79,1.79,0,0,0,2.08.56,1.24,1.24,0,0,0,.62-1.89c-2.88-4.11-3.31-9.35-7-13.21-4.94-5.12-9.14-10.92-14.58-15.62-6.09-5.26-12-10.66-19.49-14a8.42,8.42,0,0,1-.87,0,2.8,2.8,0,0,0-1.46-2.15c-6.23-4.65-13.34-7.59-20.44-10.56-2.15-.9-4.88-1-5.7-3.84,31.27,1.34,59.17,10.92,81.78,33.45,1.38,1.37,2.46,3.23,4.71,3.41,2.47,5.43,3.51,5.81,8.34,3.56,3-1.39,6.08-2.63,9.06-4,2.8-1.27,6.35-2.36,7.35-6.1a2.8,2.8,0,0,1,1.89,2.74c-.9,1.39-2.45,2.72-2.6,4.19-.76,7.62-6.9,9.43-12.39,12a3.11,3.11,0,0,1-4.33-1.33c-.74-1.13-1.47-3.44-3.23-2-1.39,1.12.22,2.68.95,4a74.74,74.74,0,0,1,9.59,36c0,10.14,1,20.38-3.62,30-1.5,3.14-3.18,5.33-7,5.48a18.21,18.21,0,0,1-11.49-3.81c-3.07-2.19-3.91-1.32-3.63,2A14.11,14.11,0,0,1,330.12,238.37Z" fill="#442f24"/><path d="M330.12,238.37a14.11,14.11,0,0,0,.09-1.83c-.28-3.36.56-4.23,3.63-2a18.21,18.21,0,0,0,11.49,3.81c3.8-.15,5.48-2.34,7-5.48,4.6-9.65,3.64-19.89,3.62-30a74.74,74.74,0,0,0-9.59-36c-.73-1.33-2.34-2.89-.95-4,1.76-1.43,2.49.88,3.23,2a3.11,3.11,0,0,0,4.33,1.33c5.49-2.54,11.63-4.35,12.39-12,.15-1.47,1.7-2.8,2.6-4.19,4.55,3.57,4.48,9.26,6.2,14.08.56,1.57-1.36,3.27-2.82,4.4a125.46,125.46,0,0,1-11,8.16c-2.46,1.5-2.6,2.68-1.48,5.07,4.78,10.2,9.21,20.48,11.16,31.75a104,104,0,0,1,.52,31.79c-1.23,9.17-2,18.45-4.53,27.38-3.38,12-7.56,23.54-18.34,31.58-8.38,6.26-24.05,3.87-29.36-1.56,8.06-13.14,9.55-28,11.1-42.82A210.58,210.58,0,0,0,330.12,238.37Z" fill="#302118"/><path d="M210.71,131.61c-1.47.44-2.7,2-4.48.93,2.11-5.54,7-7.83,11.89-10a80.39,80.39,0,0,1,28.36-6.32c.21,1,.94,1.34,1.83,1.75,4.53,2.09,9.4,3.3,13.86,5.63,6.64,3.48,13.48,6.58,20.24,9.85a8.42,8.42,0,0,0,.87,0c.16,2.15,1.82,3,3.37,4A108.22,108.22,0,0,1,307.08,155c.84.92,2.61,1.77,1.22,3.35s-2.46-.17-3.47-.83a110.18,110.18,0,0,0-11.62-6.28c-12.38-6-24.92-11.57-38.17-15.33a126,126,0,0,0-26.76-5C222.47,130.54,216.48,129.61,210.71,131.61Z" fill="#635952"/><path d="M366.05,147.25c-1,3.74-4.55,4.83-7.35,6.1-3,1.36-6.07,2.6-9.06,4-4.83,2.25-5.87,1.87-8.34-3.56,4.78-2.57,9.51-5.23,14.34-7.71C359.3,144.18,363,143.18,366.05,147.25Z" fill="#643922"/><path d="M282.41,133.47c-6.76-3.27-13.6-6.37-20.24-9.85-4.46-2.33-9.33-3.54-13.86-5.63-.89-.41-1.62-.74-1.83-1.75a17.57,17.57,0,0,1,8.33.68c.82,2.89,3.55,2.94,5.7,3.84,7.1,3,14.21,5.91,20.44,10.56A2.8,2.8,0,0,1,282.41,133.47Z" fill="#643922"/><path d="M110.58,304.43a2.78,2.78,0,0,1,.85,2.77C110.34,306.52,110.44,305.49,110.58,304.43Z" fill="#895a34"/><path d="M164.71,245.54c-3.82.88-7.72-.59-11.61-1.88-4.9-1.62-8.29-9.52-6.38-15.14,5.63-16.54,15-30.47,28.87-41.31,2.76-2.16,4.88-5.14,7.66-7.24,8-6,17.36-8.29,27.11-9.92,5.75-1,11.32-.34,16.75.4,7.5,1,14.81,3.79,20.23,9.47A14.17,14.17,0,0,1,251,192.07c-1.49,10-6.72,17-15.25,22.82-4.77,3.23-9.31,7.08-14.22,10.32-10.64,7-22.33,11.8-34.37,15.71C180,243.25,173,246.27,164.71,245.54Z" fill="#d58b51"/><path d="M210.71,131.61c5.77-2,11.76-1.07,17.57-.72a126,126,0,0,1,26.76,5c13.25,3.76,25.79,9.35,38.17,15.33a110.18,110.18,0,0,1,11.62,6.28c1,.66,2.05,2.45,3.47.83s-.38-2.43-1.22-3.35a108.22,108.22,0,0,0-20.43-17.47c-1.55-1-3.21-1.86-3.37-4,7.44,3.37,13.4,8.77,19.49,14,5.44,4.7,9.64,10.5,14.58,15.62,3.72,3.86,4.15,9.1,7,13.21a1.24,1.24,0,0,1-.62,1.89,1.79,1.79,0,0,1-2.08-.56,33.1,33.1,0,0,1-4-4.94c-5.15-8.89-13.46-13.53-22.33-18-11.56-5.76-23.13-11.37-35.49-15.19-14.16-4.37-28.45-7.86-43.45-7.12C214.5,132.58,212.38,133.28,210.71,131.61Z" fill="#643922"/></svg>