<!DOCTYPE svg PUBLIC "-//W3C//DTD SVG 20010904//EN" "http://www.w3.org/TR/2001/REC-SVG-20010904/DTD/svg10.dtd">
<svg version="1.0" xmlns="http://www.w3.org/2000/svg" width="1200px" height="1200px" viewBox="0 0 12000 12000" preserveAspectRatio="xMidYMid meet">
<g id="layer101" fill="#010000" stroke="none">
<path d="M3081 11928 c-5 -13 -42 -97 -81 -188 -40 -91 -91 -210 -115 -265 -23 -55 -84 -194 -134 -310 -51 -115 -99 -226 -107 -245 -12 -28 -36 -49 -127 -104 -240 -149 -438 -306 -643 -511 -533 -532 -878 -1197 -1008 -1945 -38 -219 -51 -373 -50 -615 1 -427 54 -731 218 -1248 77 -241 295 -936 412 -1312 46 -148 88 -280 94 -292 l9 -22 80 27 c44 14 82 24 84 22 5 -7 85 -265 83 -267 -1 -1 -119 -39 -261 -84 -143 -45 -262 -84 -264 -86 -7 -5 79 -271 127 -388 279 -695 819 -1264 1537 -1623 419 -209 858 -337 1340 -391 427 -48 815 -35 1258 40 70 12 130 20 132 17 3 -3 42 -122 87 -264 79 -248 82 -263 83 -354 0 -82 -4 -103 -27 -152 -34 -74 -107 -151 -172 -183 -28 -13 -181 -66 -341 -116 -159 -50 -294 -94 -298 -98 -7 -7 265 -897 278 -910 5 -5 38 5 415 124 361 114 488 178 660 332 410 368 553 909 384 1445 -14 45 -28 87 -31 93 -3 9 40 11 179 7 520 -14 1069 79 1602 272 71 25 131 45 132 43 17 -16 265 -504 274 -537 25 -93 10 -217 -36 -295 -52 -90 -100 -124 -390 -275 -152 -80 -283 -150 -291 -156 -13 -8 11 -59 142 -310 87 -164 185 -351 218 -414 33 -63 63 -119 67 -123 10 -11 602 299 700 367 197 135 390 384 480 618 31 81 68 233 80 328 28 235 -13 498 -110 707 -21 45 -93 186 -160 313 -67 127 -120 233 -118 234 2 1 41 29 88 61 585 404 1069 955 1381 1570 203 401 317 765 375 1200 25 182 25 591 1 765 -53 378 -148 679 -320 1012 l-81 158 -100 -54 c-56 -29 -167 -88 -248 -130 l-146 -76 -67 126 c-36 69 -65 128 -63 129 2 1 36 19 76 39 39 20 72 39 72 42 0 7 -62 125 -455 874 -114 217 -237 451 -273 520 -151 289 -229 431 -293 533 -534 843 -1405 1432 -2394 1616 -230 43 -368 55 -650 55 -298 0 -430 -12 -696 -64 l-155 -31 -125 36 c-68 19 -178 47 -244 61 -123 27 -145 35 -563 199 -133 52 -246 95 -251 95 -5 0 -19 -44 -31 -97 -12 -54 -23 -103 -25 -109 -2 -6 -44 -14 -101 -17 l-97 -7 -494 305 c-272 168 -496 305 -499 305 -2 0 -8 -10 -13 -22z"/>
</g>
<g id="layer102" fill="#891c00" stroke="none">
<path d="M4576 11058 c-3 -18 -47 -210 -98 -426 l-92 -393 -70 -56 c-103 -82 -370 -352 -458 -463 -381 -481 -611 -1020 -693 -1625 -23 -166 -31 -518 -16 -685 32 -358 123 -719 260 -1030 38 -85 148 -302 266 -525 24 -44 161 -305 305 -580 144 -275 293 -559 331 -631 38 -72 69 -136 69 -141 0 -8 -267 -154 -296 -161 -7 -2 -73 113 -159 278 -85 163 -152 279 -159 277 -6 -2 -95 -31 -198 -63 l-187 -59 -232 -445 c-303 -580 -452 -864 -455 -869 -4 -5 -266 128 -293 149 -20 15 -17 21 98 240 284 539 400 764 396 768 -2 2 -257 -76 -567 -173 -309 -98 -573 -180 -585 -182 -13 -3 -23 -9 -23 -14 0 -18 92 -214 141 -302 345 -613 921 -1075 1659 -1331 251 -88 510 -146 810 -182 185 -23 634 -26 828 -5 l132 14 -121 69 c-393 220 -708 492 -962 830 l-80 108 -167 -320 c-92 -176 -169 -323 -172 -325 -3 -3 -69 28 -146 70 -78 41 -146 75 -152 75 -5 0 -10 6 -10 13 0 6 99 200 219 430 l219 419 -25 44 -24 43 63 32 64 31 63 122 c35 66 88 168 119 224 l54 104 66 -124 c35 -67 66 -124 67 -126 2 -2 272 138 602 311 751 395 1650 866 3318 1742 2010 1055 2130 1118 2134 1121 4 3 -116 234 -129 248 -4 4 -42 -10 -84 -32 l-76 -40 -54 102 c-30 55 -236 448 -458 871 -223 424 -433 817 -467 874 -136 224 -290 420 -481 611 -481 481 -1089 794 -1770 909 -193 33 -367 44 -610 38 -270 -6 -447 -30 -700 -94 -96 -24 -179 -45 -185 -45 -5 -1 -189 70 -408 156 -219 86 -402 156 -406 156 -5 0 -11 -15 -15 -32z m1658 -1350 c293 -409 623 -942 883 -1428 272 -507 563 -1066 563 -1078 0 -10 -279 -157 -298 -157 -7 0 -47 65 -89 145 -447 862 -682 1289 -928 1686 -137 221 -333 512 -451 672 -46 61 -84 115 -84 120 1 4 62 53 138 109 105 78 140 99 149 90 6 -7 59 -78 117 -159z m1742 -421 c152 -217 264 -417 684 -1217 544 -1039 561 -1072 558 -1075 -18 -14 -307 -159 -311 -155 -2 3 -59 111 -127 240 -838 1606 -922 1759 -1103 2019 -32 46 -56 88 -55 93 4 12 259 197 273 197 6 1 42 -45 81 -102z m-3849 -203 l30 -6 6 -191 c16 -504 132 -1027 343 -1550 104 -258 159 -368 536 -1082 104 -197 134 -263 125 -271 -18 -17 -295 -159 -300 -154 -8 9 -437 830 -501 957 -350 702 -556 1500 -556 2150 l0 153 144 0 c79 0 157 -3 173 -6z m1268 -695 c187 -435 485 -1025 1128 -2234 47 -88 82 -163 78 -168 -9 -9 -290 -157 -300 -157 -3 0 -43 71 -89 158 -45 86 -106 202 -135 257 -354 663 -721 1380 -851 1660 -109 232 -227 507 -223 518 3 10 298 136 311 133 6 -1 42 -76 81 -167z"/>
<path d="M10285 6867 c-253 -133 -622 -327 -820 -431 -198 -104 -363 -192 -367 -195 -5 -4 -46 -128 -92 -276 -101 -325 -476 -1526 -777 -2494 -121 -388 -221 -706 -223 -708 -2 -3 -328 96 -334 102 -1 1 33 116 77 256 44 140 260 833 480 1540 220 708 405 1298 410 1313 6 14 7 26 3 26 -7 0 -159 -79 -912 -476 l-236 -123 -173 -558 c-568 -1823 -668 -2143 -672 -2148 -3 -2 -52 12 -109 31 -58 19 -131 42 -162 50 -33 10 -58 22 -58 30 0 7 47 163 104 346 105 335 613 1969 622 1999 3 11 -66 -20 -199 -90 -112 -58 -371 -194 -575 -301 l-372 -195 -24 -75 c-13 -41 -113 -361 -221 -710 -109 -349 -199 -636 -199 -637 -3 -4 -321 99 -328 106 -4 4 67 244 158 535 91 291 164 531 162 535 -2 4 -104 -46 -228 -111 -124 -65 -368 -194 -542 -285 -175 -92 -318 -171 -318 -175 0 -15 98 -155 180 -257 696 -865 1948 -1249 3231 -990 321 64 577 151 995 335 15 7 437 -804 464 -891 52 -167 35 -367 -45 -530 -84 -172 -175 -259 -387 -370 -182 -96 -170 -73 -103 -198 31 -59 59 -107 63 -107 15 0 285 148 338 186 130 92 266 257 329 399 55 124 77 221 82 366 11 281 -5 324 -453 1165 l-54 102 137 85 c188 116 357 238 515 371 1086 917 1563 2266 1212 3426 -40 131 -95 270 -108 270 -6 -1 -218 -110 -471 -243z"/>
<path d="M6040 2143 c4 -16 38 -124 74 -241 73 -234 91 -333 81 -432 -20 -199 -92 -347 -233 -481 -97 -93 -189 -142 -384 -203 l-146 -46 35 -113 c19 -61 38 -115 42 -120 9 -9 319 92 391 128 202 102 384 295 468 497 61 146 77 228 76 393 0 164 -4 182 -87 450 l-44 140 -129 27 c-163 34 -154 34 -144 1z"/>
</g>
<g id="layer103" fill="#aa6101" stroke="none">
<path d="M4576 11058 c-3 -18 -47 -210 -98 -426 l-92 -393 -70 -56 c-103 -82 -370 -352 -458 -463 -381 -481 -611 -1020 -693 -1625 -23 -166 -31 -518 -16 -685 32 -358 123 -719 260 -1030 38 -85 148 -302 266 -525 24 -44 161 -305 305 -580 144 -275 293 -559 331 -631 38 -72 69 -136 69 -141 0 -8 -267 -154 -296 -161 -7 -2 -73 113 -159 278 -85 163 -152 279 -159 277 -6 -2 -95 -31 -198 -63 l-187 -59 -237 -455 c-131 -250 -275 -526 -321 -612 -46 -87 -83 -162 -83 -168 0 -5 5 -10 12 -10 6 0 66 -53 132 -118 67 -65 167 -155 223 -200 129 -102 365 -260 370 -247 2 6 102 198 222 428 l219 419 -25 44 -24 43 63 32 64 31 63 122 c35 66 88 168 119 224 l54 104 66 -124 c35 -67 66 -124 67 -126 2 -2 272 138 602 311 751 395 1650 866 3318 1742 2010 1055 2130 1118 2134 1121 4 3 -116 234 -129 248 -4 4 -42 -10 -84 -32 l-76 -40 -54 102 c-30 55 -236 448 -458 871 -223 424 -433 817 -467 874 -136 224 -290 420 -481 611 -481 481 -1089 794 -1770 909 -193 33 -367 44 -610 38 -270 -6 -447 -30 -700 -94 -96 -24 -179 -45 -185 -45 -5 -1 -189 70 -408 156 -219 86 -402 156 -406 156 -5 0 -11 -15 -15 -32z m1658 -1350 c293 -409 623 -942 883 -1428 272 -507 563 -1066 563 -1078 0 -10 -279 -157 -298 -157 -7 0 -47 65 -89 145 -447 862 -682 1289 -928 1686 -137 221 -333 512 -451 672 -46 61 -84 115 -84 120 1 4 62 53 138 109 105 78 140 99 149 90 6 -7 59 -78 117 -159z m1742 -421 c152 -217 264 -417 684 -1217 544 -1039 561 -1072 558 -1075 -18 -14 -307 -159 -311 -155 -2 3 -59 111 -127 240 -838 1606 -922 1759 -1103 2019 -32 46 -56 88 -55 93 4 12 259 197 273 197 6 1 42 -45 81 -102z m-3849 -203 l30 -6 6 -191 c16 -504 132 -1027 343 -1550 104 -258 159 -368 536 -1082 104 -197 134 -263 125 -271 -18 -17 -295 -159 -300 -154 -8 9 -437 830 -501 957 -350 702 -556 1500 -556 2150 l0 153 144 0 c79 0 157 -3 173 -6z m1268 -695 c187 -435 485 -1025 1128 -2234 47 -88 82 -163 78 -168 -9 -9 -290 -157 -300 -157 -3 0 -43 71 -89 158 -45 86 -106 202 -135 257 -354 663 -721 1380 -851 1660 -109 232 -227 507 -223 518 3 10 298 136 311 133 6 -1 42 -76 81 -167z"/>
<path d="M10285 6867 c-253 -133 -622 -327 -820 -431 -198 -104 -363 -192 -367 -195 -5 -4 -46 -128 -92 -276 -101 -325 -476 -1526 -777 -2494 -121 -388 -221 -706 -223 -708 -2 -3 -328 96 -334 102 -1 1 33 116 77 256 44 140 260 833 480 1540 220 708 405 1298 410 1313 6 14 7 26 3 26 -7 0 -159 -79 -913 -476 l-236 -124 -20 -67 c-12 -38 -200 -642 -418 -1343 -219 -701 -400 -1282 -402 -1291 -8 -29 363 -97 652 -120 148 -12 627 -7 688 7 22 5 27 3 27 -12 0 -12 3 -15 8 -8 4 6 21 11 37 12 69 1 380 116 701 258 6 3 23 -18 38 -46 15 -27 29 -50 32 -50 3 0 3 4 0 8 -5 8 185 75 212 75 18 0 15 11 -18 76 l-29 59 137 85 c187 116 357 238 514 371 1086 917 1563 2266 1212 3426 -40 131 -95 270 -108 270 -6 -1 -218 -110 -471 -243z"/>
<path d="M6920 5100 c-492 -257 -1016 -533 -1018 -536 -7 -5 -403 -1279 -407 -1306 -2 -15 0 -27 3 -25 4 1 50 -28 102 -65 193 -134 433 -265 640 -347 67 -27 75 -28 79 -13 2 9 70 231 151 492 371 1189 580 1863 578 1864 -2 1 -59 -28 -128 -64z"/>
<path d="M2550 4515 c-265 -84 -324 -106 -322 -119 11 -58 143 -325 224 -451 24 -39 43 -77 40 -85 -3 -10 -1 -12 6 -5 9 9 55 97 319 603 50 96 79 162 71 161 -7 0 -159 -47 -338 -104z"/>
<path d="M5135 4163 c-170 -90 -309 -168 -307 -174 5 -20 123 -190 189 -272 114 -141 177 -207 184 -194 12 22 250 789 247 796 -2 4 -142 -66 -313 -156z"/>
<path d="M3963 3137 c-89 -172 -165 -319 -168 -328 -5 -12 11 -23 67 -49 229 -102 544 -198 823 -249 126 -24 326 -50 388 -52 23 -1 34 -3 25 -6 -10 -2 -18 -9 -18 -14 0 -11 48 -11 143 -2 l68 6 -122 68 c-390 219 -708 493 -956 824 -41 55 -78 103 -82 107 -3 3 -79 -134 -168 -305z"/>
<path d="M3570 2906 c0 -3 14 -12 30 -21 17 -9 30 -13 30 -11 0 3 -13 12 -30 21 -16 9 -30 13 -30 11z"/>
<path d="M9475 1606 c-16 -13 -74 -47 -127 -76 -81 -43 -99 -49 -104 -36 -4 11 -19 -9 -46 -62 -23 -42 -61 -106 -86 -142 -25 -36 -42 -62 -37 -57 8 7 118 -187 118 -211 0 -20 12 -11 68 53 106 121 178 256 218 406 17 66 33 150 28 149 -1 -1 -15 -11 -32 -24z"/>
<path d="M6375 1228 c-11 -6 -71 -28 -135 -49 -83 -27 -118 -35 -127 -27 -9 7 -13 7 -13 0 0 -13 -29 -48 -117 -142 -64 -67 -90 -102 -65 -86 5 3 23 -44 42 -105 18 -60 37 -112 42 -115 13 -9 99 59 171 135 101 108 163 206 213 338 24 65 23 71 -11 51z"/>
</g>
<g id="layer104" fill="#f87f42" stroke="none">
<path d="M3079 11030 l-173 -401 -82 -44 c-101 -55 -272 -168 -379 -249 -796 -605 -1275 -1573 -1275 -2576 0 -369 49 -665 175 -1065 31 -99 106 -335 165 -525 59 -190 167 -534 239 -764 72 -230 129 -421 126 -424 -3 -3 -41 -17 -84 -31 l-79 -26 41 -132 c23 -72 44 -134 47 -137 3 -3 118 30 255 73 1117 350 1541 484 1548 488 4 2 -19 55 -52 116 -241 453 -438 840 -482 946 -143 346 -226 672 -265 1032 -24 231 -19 632 12 844 97 673 348 1260 762 1780 91 114 342 375 444 462 l47 40 65 274 c35 151 62 276 60 278 -2 2 -46 0 -98 -5 l-94 -9 -368 227 c-203 125 -372 228 -375 228 -4 0 -84 -180 -180 -400z m-759 -1464 c113 -24 155 -37 154 -47 -1 -8 -9 -54 -18 -104 -66 -375 -72 -830 -16 -1270 45 -348 116 -650 260 -1110 171 -540 229 -729 227 -731 -5 -4 -331 -103 -333 -101 -3 2 -88 270 -240 757 -154 491 -222 795 -276 1239 -30 238 -32 818 -5 1036 29 231 56 365 76 365 9 -1 86 -16 171 -34z"/>
<path d="M4576 11058 c-3 -18 -47 -210 -98 -426 l-92 -393 -70 -56 c-103 -82 -370 -352 -458 -463 -381 -481 -611 -1020 -693 -1625 -23 -166 -31 -518 -16 -685 32 -358 123 -719 260 -1030 38 -85 148 -302 266 -525 24 -44 161 -305 305 -580 144 -275 293 -559 331 -631 38 -72 69 -135 69 -140 0 -5 -34 -27 -75 -49 l-74 -40 66 -125 c36 -69 67 -126 68 -128 2 -2 272 138 602 311 751 395 1650 866 3318 1742 2010 1055 2130 1118 2134 1121 4 3 -116 234 -129 248 -4 4 -42 -10 -84 -32 l-76 -40 -54 102 c-30 55 -236 448 -458 871 -223 424 -433 817 -467 874 -136 224 -290 420 -481 611 -481 481 -1089 794 -1770 909 -193 33 -367 44 -610 38 -270 -6 -447 -30 -700 -94 -96 -24 -179 -45 -185 -45 -5 -1 -189 70 -408 156 -219 86 -402 156 -406 156 -5 0 -11 -15 -15 -32z m1658 -1350 c293 -409 623 -942 883 -1428 272 -507 563 -1066 563 -1078 0 -10 -279 -157 -298 -157 -7 0 -47 65 -89 145 -447 862 -682 1289 -928 1686 -137 221 -333 512 -451 672 -46 61 -84 115 -84 120 1 4 62 53 138 109 105 78 140 99 149 90 6 -7 59 -78 117 -159z m1742 -421 c152 -217 264 -417 684 -1217 544 -1039 561 -1072 558 -1075 -18 -14 -307 -159 -311 -155 -2 3 -59 111 -127 240 -838 1606 -922 1759 -1103 2019 -32 46 -56 88 -55 93 4 12 259 197 273 197 6 1 42 -45 81 -102z m-3849 -203 l30 -6 6 -191 c16 -504 132 -1027 343 -1550 104 -258 159 -368 536 -1082 104 -197 134 -263 125 -271 -18 -17 -295 -159 -300 -154 -8 9 -437 830 -501 957 -350 702 -556 1500 -556 2150 l0 153 144 0 c79 0 157 -3 173 -6z m1268 -695 c187 -435 485 -1025 1128 -2234 47 -88 82 -163 78 -168 -9 -9 -290 -157 -300 -157 -3 0 -43 71 -89 158 -45 86 -106 202 -135 257 -354 663 -721 1380 -851 1660 -109 232 -227 507 -223 518 3 10 298 136 311 133 6 -1 42 -76 81 -167z"/>
</g>
<g id="layer105" fill="#ffac52" stroke="none">
<path d="M3527 11168 c-18 -40 -46 -103 -61 -139 -20 -48 -36 -70 -55 -79 -107 -48 -456 -294 -597 -421 -608 -549 -993 -1260 -1114 -2056 -70 -461 -42 -945 79 -1390 30 -107 52 -180 361 -1163 89 -283 200 -636 246 -785 47 -148 86 -270 87 -271 2 -3 1081 334 1120 349 17 6 12 18 -42 119 -241 454 -438 841 -482 947 -143 346 -226 672 -265 1032 -24 231 -19 632 12 844 97 673 348 1260 762 1780 91 114 342 375 444 462 l47 40 65 274 c35 151 62 276 60 278 -2 2 -46 0 -98 -5 l-94 -9 -213 132 c-118 73 -217 132 -222 133 -4 0 -22 -33 -40 -72z m-1207 -1602 c113 -24 155 -37 154 -47 -1 -8 -9 -54 -18 -104 -66 -375 -72 -830 -16 -1270 45 -348 116 -650 260 -1110 171 -540 229 -729 227 -731 -5 -4 -331 -103 -333 -101 -3 2 -88 270 -240 757 -154 491 -222 795 -276 1239 -30 238 -32 818 -5 1036 29 231 56 365 76 365 9 -1 86 -16 171 -34z"/>
<path d="M4916 10943 c-3 -10 -19 -76 -35 -147 -19 -87 -35 -134 -47 -143 -9 -7 -70 -60 -134 -118 -311 -279 -574 -630 -765 -1020 -199 -405 -308 -811 -345 -1274 -38 -494 45 -1022 237 -1501 57 -141 171 -369 495 -985 284 -538 516 -981 594 -1132 38 -73 72 -133 76 -133 4 0 135 67 290 149 156 82 600 315 988 519 4187 2196 4144 2174 4149 2178 4 3 -116 234 -129 248 -4 4 -42 -10 -84 -32 l-76 -40 -54 102 c-30 55 -236 448 -458 871 -223 424 -433 817 -467 874 -136 224 -290 420 -481 611 -481 481 -1089 794 -1770 909 -193 33 -367 44 -610 38 -270 -6 -447 -30 -700 -94 -96 -24 -179 -45 -185 -45 -5 0 -115 40 -243 91 -128 50 -235 91 -237 91 -2 0 -6 -8 -9 -17z m1318 -1235 c293 -409 623 -942 883 -1428 272 -507 563 -1066 563 -1078 0 -10 -279 -157 -298 -157 -7 0 -47 65 -89 145 -447 862 -682 1289 -928 1686 -137 221 -333 512 -451 672 -46 61 -84 115 -84 120 1 4 62 53 138 109 105 78 140 99 149 90 6 -7 59 -78 117 -159z m1742 -421 c152 -217 264 -417 684 -1217 544 -1039 561 -1072 558 -1075 -18 -14 -307 -159 -311 -155 -2 3 -59 111 -127 240 -838 1606 -922 1759 -1103 2019 -32 46 -56 88 -55 93 4 12 259 197 273 197 6 1 42 -45 81 -102z m-3849 -203 l30 -6 6 -191 c16 -504 132 -1027 343 -1550 104 -258 159 -368 536 -1082 104 -197 134 -263 125 -271 -18 -17 -295 -159 -300 -154 -8 9 -437 830 -501 957 -350 702 -556 1500 -556 2150 l0 153 144 0 c79 0 157 -3 173 -6z m1268 -695 c187 -435 485 -1025 1128 -2234 47 -88 82 -163 78 -168 -9 -9 -290 -157 -300 -157 -3 0 -43 71 -89 158 -45 86 -106 202 -135 257 -354 663 -721 1380 -851 1660 -109 232 -227 507 -223 518 3 10 298 136 311 133 6 -1 42 -76 81 -167z"/>
</g>
<g id="layer106" fill="#fffefe" stroke="none">
<path d="M6846 10623 c-12 -58 -46 -279 -46 -299 0 -19 12 -24 111 -43 621 -124 1211 -499 1595 -1013 105 -141 162 -238 338 -573 87 -165 161 -303 165 -306 5 -5 294 141 309 155 4 5 -306 596 -359 684 -437 721 -1161 1232 -1988 1403 -119 24 -118 24 -125 -8z"/>
<path d="M9270 8254 c-80 -42 -146 -78 -148 -79 -2 -2 33 -73 78 -158 l82 -156 152 79 c83 44 151 85 151 92 0 22 -148 298 -159 298 -6 0 -76 -35 -156 -76z"/>
<path d="M9543 7737 l-152 -81 77 -149 c42 -82 82 -151 87 -153 13 -6 305 146 305 158 0 12 -150 297 -158 302 -4 2 -75 -33 -159 -77z"/>
<path d="M10505 6526 c-133 -28 -150 -34 -148 -51 1 -11 10 -72 19 -135 34 -225 19 -536 -37 -795 -87 -405 -292 -826 -570 -1175 -44 -56 -79 -105 -77 -109 4 -12 250 -221 259 -221 18 0 185 221 292 385 258 398 430 858 488 1315 27 205 16 559 -23 763 -13 68 1 67 -203 23z"/>
<path d="M9465 4032 c-38 -37 -94 -89 -124 -115 l-53 -47 98 -116 c55 -64 106 -125 115 -136 14 -18 20 -15 135 90 65 60 125 116 133 126 13 16 3 29 -110 141 l-124 124 -70 -67z"/>
<path d="M9075 3704 c-16 -13 -76 -55 -133 -91 -76 -49 -101 -71 -97 -82 3 -9 43 -76 88 -149 61 -99 86 -132 99 -129 21 6 288 187 288 197 0 9 -199 274 -208 277 -4 1 -20 -9 -37 -23z"/>
</g>


</svg>