<svg id="Camada_1" data-name="Camada 1" xmlns="http://www.w3.org/2000/svg" viewBox="0 0 489.06 451.66"><path d="M198.67,430.67c14.83,2.22,29.83,2.6,44.75,3.83,8,.66,16-.45,23.93-1.1a197.18,197.18,0,0,0,42.16-8c14.89-4.6,28.86-11.25,42.72-18.19A116.19,116.19,0,0,0,374,393.53c2.06-1.69,2.83-.63,3.35,1.13.68,2.29,1,4.68,1.72,6.95s-1,3.07-2.37,4.09c-14.56,10.66-30.74,18.19-47.48,24.64-15,5.8-30.56,9.36-46.44,12.32a208.22,208.22,0,0,1-43.11,3.15c-15.68-.37-31.53-1-46.82-5.5-.43-3.32.53-6,3.7-7.47C197.58,432.34,198.55,432,198.67,430.67Z" fill="#895a34"/><path d="M473.06,216.93c2,6.57,1.11,13.34.72,19.94a197.9,197.9,0,0,1-6.67,41.94,243.16,243.16,0,0,1-14.4,39c-6.9,14.49-15.85,27.63-25,40.67-1.19,1.69-2.9,3-4,4.74s-2.17,1.76-3.94,1C417,363,414,362.13,410.86,361c17.95-23.25,34.51-47,42.39-75.62,4.58-16.64,8.79-33.34,8.24-50.82-.08-2.72.12-5.45.18-8.17C467.25,226.16,472.35,221.91,473.06,216.93Z" fill="#895a34"/><path d="M473.06,216.93c-.71,5-5.81,9.23-11.39,9.49.12-19.26-1.78-38.25-7.42-56.75-6-19.68-14.23-38.34-25.75-55.43-2.21-3.27-2.37-4.67,1.69-6.41,4.54-2,6.86-1.56,9.74,3,13.29,20.86,22.34,43.44,28.49,67.26C471.71,190.79,472.28,203.88,473.06,216.93Z" fill="#c17e4a"/><path d="M198.67,430.67c-.12,1.34-1.09,1.67-2.16,2.17-3.17,1.46-4.13,4.15-3.7,7.47a238.89,238.89,0,0,1-43.71-14.19,218.55,218.55,0,0,1-46.59-27.46c-2.82-2.16-3.09-11.46-.24-13.48,1.75-1.23,2.57.6,3.58,1.4a220.86,220.86,0,0,0,44.73,27.86C166.06,421.57,182.37,426.06,198.67,430.67Z" fill="#c17e4a"/><path d="M387.28,378.65c4.11-5.55,10.32-8.93,14.75-14.16a2.3,2.3,0,0,1,3-.53c5.56,2.35,11.13,4.69,16.77,6.83,2,.76,2,1.32.86,3a111.13,111.13,0,0,1-13.22,15.51C403.43,382.85,394.71,382.09,387.28,378.65Z" fill="#895a34"/><path d="M69.62,378.69c-4.21-4.73-9-9-12.5-14.32-1.35-2-2.21-3.36,1.18-4.25a31.61,31.61,0,0,0,8.3-3.57c6-3.65,11.35-3.8,16,2.22,2.48,3.24,6.68,4.91,8.26,9-2.17,3-6.09,2.38-8.78,4.17C78.09,374.56,72.09,373.4,69.62,378.69Z" fill="#895a34"/><path d="M96.69,373.61c2.35.61,2.93,2,2.24,4.32-1.88,6.43-3.55,12.92-5.33,19.38-.31,1.09-.47,3.15-2.25,1.74A110.6,110.6,0,0,1,74.29,382.6c3.36.95,6.18-1.15,8.93-2.18C87.89,378.67,93.3,378,96.69,373.61Z" fill="#d58b51"/><path d="M403.84,394.19a122.75,122.75,0,0,1-17.3,16.25c-2.33-7.93-4.56-15.46-6.73-23-.41-1.43.44-2.41,1.67-3.08a3.29,3.29,0,0,0,1.94,1.94Z" fill="#d58b51"/><path d="M424.82,76.94c-7.58-6.08-14.05-13.44-23.08-19.24,5.06-.83,9.18-1.45,13.29-2.19,1.53-.28,2.43.54,3.26,1.52q6.93,8.22,13.79,16.49C429.19,73.66,426.55,74.33,424.82,76.94Z" fill="#d58b51"/><path d="M69.62,385.36a209.42,209.42,0,0,0,21,17.74c-5.2.92-9.2,1.62-13.2,2.34-1.61.29-2.21-1-3-1.93q-5.88-6.57-11.72-13.2C62.68,385.4,67.37,387.09,69.62,385.36Z" fill="#d58b51"/><path d="M416.35,400.9c-2.85,3.23-5.94,6.29-8.5,9.75-3.15,4.25-6.76,6-11.92,4-2-.77-4.52.33-6.69-1.85,7.29-5.08,13.74-11,20.18-16.89C413,395.76,415.44,397.29,416.35,400.9Z" fill="#d58b51"/><path d="M403.84,394.19l-20.42-7.91a3.29,3.29,0,0,1-1.94-1.94,27.21,27.21,0,0,1,5.8-5.69c7.43,3.44,16.15,4.2,22.15,10.64Z" fill="#c17e4a"/><path d="M96.69,373.61c-3.39,4.39-8.8,5.06-13.47,6.81-2.75,1-5.57,3.13-8.93,2.18-1.65-1.19-3.52-2.12-4.67-3.91,2.47-5.29,8.47-4.13,12.42-6.76,2.69-1.79,6.61-1.15,8.78-4.17C92.83,369.65,95.94,370.44,96.69,373.61Z" fill="#c17e4a"/><path d="M69.62,385.36c-2.25,1.73-6.94,0-6.91,4.95-4.56-3.36-7.58-8.17-11.36-12.26-2.78-3,0-6.71.48-10,.18-1.33,1.92.05,2.5.83C58.85,374.9,64.83,379.57,69.62,385.36Z" fill="#895a34"/><path d="M416.35,400.9c-.91-3.61-3.32-5.14-6.93-5,4.46-5.63,10.41-9.87,14.61-15.77,1.42-2,3.1-2.15,4,.81,1.09,3.57,1.43,6.87-1.88,9.54C422.42,393.52,420.34,398.12,416.35,400.9Z" fill="#895a34"/><path d="M424.82,76.94c1.73-2.61,4.37-3.28,7.26-3.42a45.3,45.3,0,0,1,9.42,10.41c1.86,2.62.22,5.31-.55,7.74-.66,2.06-2.41.91-3.36-.16C433.28,86.7,429.07,81.8,424.82,76.94Z" fill="#895a34"/><path d="M86.44,34.71c5.85,1.1,11,2,16.22,3.08.72.15,1.75.55,2,1.11,1.86,4.39,4.06,2.66,6.82.82C142.2,19.27,175.83,7,212.5,2c44-6,86.22.36,126.93,16.88a215.65,215.65,0,0,1,55.38,33.25,5.42,5.42,0,0,0,5.51,1.22c4.95-1.26,10.1-1.69,15.14-2.6a4.87,4.87,0,0,1,5,1.91c8.36,9.51,16.81,18.95,25.24,28.4.74.84,1.87,1.63,1.61,2.82C446,90,446.7,96.69,443,102.21c-1.54,2.31.53,3.28,1.28,4.44A220.37,220.37,0,0,1,467.42,154a210.12,210.12,0,0,1,11.29,51.39c5.09,58.45-10.63,110.76-46.58,157.06-2.11,2.71-4.17,4.43-1.08,9,2.85,4.2,2.24,10.78,3,16.32.21,1.44-1.1,2.24-1.95,3.16-8.33,9.11-16.74,18.16-25,27.35-2,2.17-3.87,2.86-6.71,2.16a71.27,71.27,0,0,0-11.3-2c-3.77-.28-6-2-6.85-5.53-.59-2.38-1.32-2.67-3.47-1.23a234.86,234.86,0,0,1-86.75,35.73A253.65,253.65,0,0,1,223.19,451a236.33,236.33,0,0,1-85.88-23.75,232.4,232.4,0,0,1-37.15-22.84c-1.88-1.41-3.34-2.47-4.49.72a4,4,0,0,1-3.75,2.55c-2.38.21-5,.17-7.08,1.11-8.31,3.71-13.2-.52-18.13-6.55-6.08-7.45-12.79-14.38-19.37-21.39a6.18,6.18,0,0,1-1.89-6c.84-4.23,1.37-8.53,2.09-12.79.13-.76.3-1.89.82-2.16,6.1-3.19,1.8-6.22-.15-9.13-20.42-30.39-33.4-63.59-37.39-100.06C4.38,191.75,20.16,138.9,55.25,91.52c2-2.77,3.82-4.4,1.77-8.66-2.18-4.54-1.81-10.31-2.54-15.54-.2-1.5,1-2.27,1.82-3.19q12.92-13.6,25.8-27.25C83.5,35.39,84.89,34.21,86.44,34.71Zm323,361.21c-6.44,5.91-12.89,11.81-20.18,16.89,2.17,2.18,4.69,1.08,6.69,1.85,5.16,2,8.77.24,11.92-4,2.56-3.46,5.65-6.52,8.5-9.75,4-2.78,6.07-7.38,9.81-10.4,3.31-2.67,3-6,1.88-9.54-.91-3-2.59-2.8-4-.81C419.83,386.05,413.88,390.29,409.42,395.92ZM62.71,390.31q5.85,6.62,11.72,13.2c.81.91,1.41,2.22,3,1.93,4-.72,8-1.42,13.2-2.34a209.42,209.42,0,0,1-21-17.74c-4.79-5.79-10.77-10.46-15.29-16.5-.58-.78-2.32-2.16-2.5-.83-.46,3.31-3.26,7-.48,10C55.13,382.14,58.15,387,62.71,390.31Zm8.7-335.12c-3.4,2.87-6.19,6.32-9.26,9.5-2.8,2.89-2.35,6.1-2.06,9.36.2,2.23,1.09,3.77,3.48,1.26,5.16-5.41,10.46-10.7,15.7-16a231,231,0,0,1,21.45-17.2c-3.6-.62-6.35-.67-8.76-1.61-4.83-1.88-7.72.27-10.59,3.79C78.26,48.07,74.75,51.56,71.41,55.19ZM424.82,76.94c4.25,4.86,8.46,9.76,12.77,14.57,1,1.07,2.7,2.22,3.36.16.77-2.43,2.41-5.12.55-7.74a45.49,45.49,0,0,0-9.41-10.41c-4.6-5.5-9.18-11-13.8-16.49-.83-1-1.73-1.8-3.26-1.52-4.11.74-8.23,1.36-13.29,2.19C410.77,63.5,417.24,70.86,424.82,76.94ZM84.55,61.81c-3.16,1.07-4.51,4.3-7.17,6-4.17,3.5-7.25,8-10.53,12.21-1.3,1.68-1.17,3.48.81,4.41,5.18,2.46,10.43,4.75,15.71,7C84.89,92,86.23,91,87.21,90c4.61-4.62,10.24-8.16,14.24-13.43,2.26-1.62,4.94-2.84,5.73-5.9.21-.23.61-.47.6-.68-.42-7.83-2.78-15.27-4.57-22.82-.37-1.59-1.37-1.74-2.44-.77C95.24,51.38,88.82,55.47,84.55,61.81ZM403.84,394.19l5.59-4.91a110.47,110.47,0,0,0,13.22-15.5c1.12-1.67,1.12-2.23-.86-3-5.64-2.14-11.21-4.48-16.77-6.83a2.3,2.3,0,0,0-3,.53c-4.43,5.23-10.64,8.61-14.75,14.16a27.21,27.21,0,0,0-5.8,5.69c-1.23.67-2.08,1.65-1.67,3.08,2.17,7.56,4.4,15.09,6.73,23A122.75,122.75,0,0,0,403.84,394.19ZM74.29,382.6a110.6,110.6,0,0,0,17.06,16.45c1.78,1.41,1.94-.65,2.25-1.74,1.78-6.46,3.45-12.95,5.33-19.38.69-2.35.11-3.71-2.24-4.32-.75-3.17-3.86-4-5.87-5.86-1.58-4.07-5.78-5.74-8.26-9-4.61-6-9.93-5.87-16-2.22a31.61,31.61,0,0,1-8.3,3.57c-3.39.89-2.53,2.24-1.18,4.25,3.55,5.32,8.29,9.59,12.5,14.32C70.77,380.48,72.64,381.41,74.29,382.6ZM395,87c1.14,2.06,3,3.41,4.75,4.89a133.79,133.79,0,0,0,14,13.62c2.24,2,3.77,2.58,6.58,1.17a116.31,116.31,0,0,1,13.2-5.33c2.81-1,3-2.44,1.39-4.58-3.58-4.88-7-9.86-11.81-13.72-1.71-1.51-2.24-4.25-4.93-4.75a159.92,159.92,0,0,0-18-17.8c-2.48,8.12-4.79,15.55-7,23A2.71,2.71,0,0,0,395,87ZM18.55,259.33v0c-.45,2.94.46,5.72,1.06,8.52,6.21,29.13,17.3,56.19,34.65,80.53,4.42,6.2,4.5,6,11.5,3.22,2.81-1.12,3.51-2.17,1.42-4.78A157.32,157.32,0,0,1,52,324.12a204,204,0,0,1-24-73.37c-.7-5.52.09-11.17-1.68-16.55,0-19.49,2.53-38.7,6.48-57.74,1.48-5.7,2.36-11.65,4.55-17.06C46.66,136.47,58,114.7,74.16,95.7c.49-.57,1.52-1.6.85-2-2.61-1.49-5.41-2.62-8.12-3.91-2.17-1-2.77.81-3.73,2a203.94,203.94,0,0,0-32,54.48c-4.64,11.7-9.48,23.38-10.83,36.09-6,24.53-6.29,49.26-2.53,74.13C17.64,257.55,17.52,258.58,18.55,259.33ZM226.33,6.88c-17.55.66-34.49,4.58-51.28,9.47-23,6.7-44,17.43-63.84,30.63-1.18.78-3,1.26-2.31,3.6.86,3.14,1.36,6.38,2.76,9.45,44.06-29.67,78.26-38.74,117.75-42.54a262.58,262.58,0,0,1,39.46,1.07C315,24.49,356.79,40.18,391.31,73a71.7,71.7,0,0,1,2.53-7.78c1.63-3.53.58-5.85-2.32-8.19a215,215,0,0,0-50.7-30.84,265.34,265.34,0,0,0-38.11-12.81,205.87,205.87,0,0,0-27.13-5.26c-14.81-2.39-29.72-2.56-44.66-2C229.37,6.14,227.71,5.75,226.33,6.88ZM473.06,216.93c-.78-13.05-1.35-26.14-4.64-38.87-6.15-23.82-15.2-46.4-28.49-67.26-2.88-4.53-5.2-4.92-9.74-3-4.06,1.74-3.9,3.14-1.69,6.41C440,131.33,448.25,150,454.25,169.67c5.64,18.5,7.54,37.49,7.42,56.75-.06,2.72-.26,5.45-.18,8.17.55,17.48-3.66,34.18-8.24,50.82-7.88,28.6-24.44,52.37-42.39,75.62,3.17,1.1,6.09,1.93,8.85,3.15,1.77.78,2.8.74,3.94-1s2.85-3.05,4-4.74c9.17-13,18.12-26.18,25-40.67a243.16,243.16,0,0,0,14.4-39,197.9,197.9,0,0,0,6.67-41.94C474.17,230.27,475.08,223.5,473.06,216.93ZM192.81,440.31c15.29,4.49,31.14,5.13,46.82,5.5a208.22,208.22,0,0,0,43.11-3.15c15.88-3,31.41-6.52,46.44-12.32,16.74-6.45,32.92-14,47.48-24.64,1.39-1,3.12-1.71,2.37-4.09s-1-4.66-1.72-6.95c-.52-1.76-1.29-2.82-3.35-1.13a116.19,116.19,0,0,1-21.73,13.72c-13.86,6.94-27.83,13.59-42.72,18.19a197.18,197.18,0,0,1-42.16,8c-7.93.65-15.89,1.76-23.93,1.1-14.92-1.23-29.92-1.61-44.75-3.83-16.3-4.61-32.61-9.1-48.09-16.23a220.86,220.86,0,0,1-44.73-27.86c-1-.8-1.83-2.63-3.58-1.4-2.85,2-2.58,11.32.24,13.48a218.55,218.55,0,0,0,46.59,27.46A238.89,238.89,0,0,0,192.81,440.31Zm46-11.85c28.08.82,58.7-4.3,83.24-14,20.93-8.23,42-16.64,57.13-34.82,5.82-7,13.13-12.7,19.78-19,.81-.77,1.75-2.13,2.54-2.07,4.66.36,5.9-3.57,8.22-6.14.75-.83,1.39-1.76,2.1-2.63,33.66-41.2,47.68-88.57,43.64-141.32-2.63-34.41-14.53-65.69-34.12-94.08-1.07-1.55-2-2.78-4.2-1.66-1.85.92-3.27-.31-4.61-1.63-7.43-7.31-14.87-14.61-22.41-21.81-1.72-1.63-2.74-3.52-1.7-5.51,2.48-4.76-.23-7.07-3.49-9.91-32.73-28.54-71.78-42.88-113.88-49.07-30.59-4.5-60.93-.79-90.74,7.82-22.2,6.42-41.41,18.35-60.54,30.63-3,2-7.24,3.06-6.28,8.25.13.73-1.14,1.85-1.94,2.59q-11.5,10.59-23.08,21.1c-1.16,1.06-2.32,2.56-4.15,1.66-2.4-1.17-3.5.4-4.75,1.9a192.29,192.29,0,0,0-16.26,22.58C49.22,144.61,38.64,169.2,35,196.22c-4.52,33.51-2.15,66.59,10.21,98.33,8.65,22.22,18.66,43.76,38.36,59.07,6.68,5.19,12.38,11.63,18.51,17.52,1.15,1.09,2.7,2.12,2.28,4-.57,2.53.88,3.78,2.57,5.14a210.52,210.52,0,0,0,37.34,24.4C176.57,421,210.92,428.63,238.83,428.46Z" fill="#643922"/><path d="M238.83,428.46c-27.91.17-62.26-7.51-94.57-23.82a210.52,210.52,0,0,1-37.34-24.4c-1.69-1.36-3.14-2.61-2.57-5.14.42-1.84-1.13-2.87-2.28-4-6.13-5.89-11.83-12.33-18.51-17.52-19.7-15.31-29.71-36.85-38.36-59.07C32.84,262.81,30.47,229.73,35,196.22c3.65-27,14.23-51.61,28.34-74.81A192.29,192.29,0,0,1,79.59,98.83c1.25-1.5,2.35-3.07,4.75-1.9,1.83.9,3-.6,4.15-1.66q11.57-10.51,23.08-21.1c.8-.74,2.07-1.86,1.94-2.59-1-5.19,3.26-6.3,6.28-8.25,19.13-12.28,38.34-24.21,60.54-30.63,29.81-8.61,60.15-12.32,90.74-7.82C313.17,31.07,352.22,45.41,385,74c3.26,2.84,6,5.15,3.49,9.91-1,2,0,3.88,1.7,5.51,7.54,7.2,15,14.5,22.41,21.81,1.34,1.32,2.76,2.55,4.61,1.63,2.24-1.12,3.13.11,4.2,1.66,19.59,28.39,31.49,59.67,34.12,94.08,4,52.75-10,100.12-43.64,141.32-.71.87-1.35,1.8-2.1,2.63-2.32,2.57-3.56,6.5-8.22,6.14-.79-.06-1.73,1.3-2.54,2.07-6.65,6.27-14,12-19.78,19C364,397.86,343,406.27,322.07,414.5,297.53,424.16,266.91,429.28,238.83,428.46ZM91.66,296.19c0,2.56.11,5.14,0,7.69-.79,15.95,5.92,28.85,16.36,40.18,11,11.87,25.6,13.88,40.48,14.31,38,1.09,75.51-2.46,112.19-12.65,23.86-6.63,46.49-16.12,66-31.89.86-.69,1.53-1.41,2.92-1.16,6.35,1.13,12.78.27,19.18.51,8,.3,14.66-2.7,20.33-8.14,9.71-9.32,13.61-21.46,16.09-34.14,3.8-19.43,4.15-39.12,4.16-58.86a99.14,99.14,0,0,0-8-40.14c-1.27-2.94-.72-4.23,1.59-6.3,6.87-6.17,13.25-12.78,10.2-23.44a30.44,30.44,0,0,0-4.19-9.6c-9.71-13.31-21.25-23.28-39-12.15-2.5,1.57-3.69.34-5.31-1-12.59-10.39-26.48-18.36-42.26-23-21-6.12-42.52-7-64.21-6.81A89.29,89.29,0,0,0,202,97.78c-8.81,4-13.79,10.65-14.05,20.53-.1,3.85-.63,7.72-.34,11.52.25,3.35-1.16,4.8-3.95,6.11a124,124,0,0,0-49.62,42,251.6,251.6,0,0,0-32,63.54C96,259.19,90.19,277,91.66,296.19Z" fill="#fdfdfd"/><path d="M275.58,8.12a205.87,205.87,0,0,1,27.13,5.26,265.34,265.34,0,0,1,38.11,12.81A215,215,0,0,1,391.52,57c2.9,2.34,4,4.66,2.32,8.19A71.7,71.7,0,0,0,391.31,73C356.79,40.18,315,24.49,268.87,18.56,267.61,13.51,269.48,10.6,275.58,8.12Z" fill="#c17e4a"/><path d="M229.41,17.49C189.92,21.29,155.72,30.36,111.66,60c-1.4-3.07-1.9-6.31-2.76-9.45-.65-2.34,1.13-2.82,2.31-3.6,19.84-13.2,40.86-23.93,63.84-30.63,16.79-4.89,33.73-8.81,51.28-9.47C232.71,7.74,233.84,11.63,229.41,17.49Z" fill="#ecb763"/><path d="M26.34,234.19c1.77,5.39,1,11,1.68,16.56a204,204,0,0,0,24,73.37,157.32,157.32,0,0,0,15.16,22.72c2.09,2.61,1.39,3.66-1.42,4.78-7,2.8-7.08,3-11.5-3.22C36.92,324.06,25.83,297,19.62,267.87c-.6-2.8-1.51-5.58-1.06-8.52a7.69,7.69,0,0,0,3.8-7.41,18.24,18.24,0,0,1,2.13-9.61A16.94,16.94,0,0,0,26.34,234.19Z" fill="#c17e4a"/><path d="M20.37,182.36c1.35-12.71,6.19-24.39,10.83-36.09a203.94,203.94,0,0,1,32-54.48c1-1.17,1.56-3,3.73-2C69.6,91.1,72.4,92.23,75,93.72c.67.38-.36,1.41-.85,2-16.12,19-27.5,40.77-36.79,63.7-2.19,5.41-3.07,11.36-4.55,17.06-3.69-1.19-5.28.07-4.63,4a5,5,0,0,1,0,1c0,1.64-.1,3.52-2.22,3.54s-1.38-2-1.63-3.27c-.19-1,.51-2.34-1.24-2.63C22.06,180,22.68,182.42,20.37,182.36Z" fill="#ecb763"/><path d="M20.37,182.36c2.31.06,1.69-2.35,2.73-3.35,1.75.29,1,1.67,1.24,2.63.25,1.26-.59,3.3,1.63,3.27s2.19-1.9,2.22-3.54a5,5,0,0,0,0-1c-.65-3.89.94-5.15,4.63-4-3.95,19-6.47,38.25-6.48,57.73a16.94,16.94,0,0,1-1.85,8.14,18.24,18.24,0,0,0-2.13,9.61,7.69,7.69,0,0,1-3.8,7.41v0c0-1,.22-2.07-.71-2.84C14.08,231.62,14.36,206.89,20.37,182.36Z" fill="#d58b51"/><path d="M423.17,83c4.77,3.86,8.23,8.84,11.81,13.72,1.57,2.14,1.42,3.58-1.39,4.58a116.31,116.31,0,0,0-13.2,5.33c-2.81,1.41-4.34.8-6.58-1.17a133.79,133.79,0,0,1-14-13.62,55.89,55.89,0,0,0,15.79-4.66C418.19,86.08,421.72,86.37,423.17,83Z" fill="#895a34"/><path d="M101.45,76.55c-4,5.26-9.63,8.8-14.24,13.42-1,1-2.32,2-3.84,1.41-5.28-2.23-10.53-4.52-15.71-7-2-.93-2.11-2.73-.81-4.41,3.28-4.26,6.36-8.71,10.53-12.21C85.81,69.59,92.9,75.08,101.45,76.55Z" fill="#895a34"/><path d="M229.41,17.49c4.43-5.86,3.3-9.75-3.08-10.61,1.38-1.13,3-.74,4.59-.79,14.94-.53,29.85-.36,44.66,2-6.1,2.48-8,5.39-6.71,10.44A262.58,262.58,0,0,0,229.41,17.49Z" fill="#d58b51"/><path d="M395,87a2.71,2.71,0,0,1-1.8-3.48c2.2-7.47,4.51-14.9,7-23a159.92,159.92,0,0,1,18,17.8,13.51,13.51,0,0,0-6.86,1.39C406,82.26,400.48,84.57,395,87Z" fill="#d58b51"/><path d="M84.55,61.81c4.27-6.34,10.69-10.43,16.22-15.44,1.07-1,2.07-.82,2.44.77,1.79,7.55,4.15,15,4.57,22.82,0,.21-.39.45-.6.68-3-.68-5.41-2.77-8.21-3.75C94.16,65.21,90.38,60.54,84.55,61.81Z" fill="#d58b51"/><path d="M71.41,55.19c3.34-3.63,6.85-7.12,10-10.94,2.87-3.52,5.76-5.67,10.59-3.79,2.41.94,5.16,1,8.76,1.61a231,231,0,0,0-21.45,17.2C76.52,58.17,73.18,58.19,71.41,55.19Z" fill="#d58b51"/><path d="M84.55,61.81c5.83-1.27,9.61,3.4,14.42,5.08,2.8,1,5.2,3.07,8.21,3.75-.79,3.06-3.47,4.28-5.73,5.9-8.55-1.46-15.64-7-24.07-8.76C80,66.11,81.39,62.88,84.55,61.81Z" fill="#c17e4a"/><path d="M395,87c5.46-2.42,11-4.73,16.36-7.31a13.51,13.51,0,0,1,6.86-1.39c2.69.5,3.22,3.24,4.93,4.75-1.45,3.33-5,3-7.61,4.18a55.89,55.89,0,0,1-15.79,4.66C398,90.4,396.16,89.05,395,87Z" fill="#c17e4a"/><path d="M71.41,55.19c1.77,3,5.11,3,7.86,4.08-5.24,5.34-10.54,10.63-15.7,16-2.39,2.51-3.28,1-3.48-1.26-.29-3.26-.74-6.47,2.06-9.36C65.22,61.51,68,58.06,71.41,55.19Z" fill="#895a34"/><path d="M17.84,256.49c.93.77.75,1.82.71,2.84C17.52,258.58,17.64,257.55,17.84,256.49Z" fill="#c17e4a"/><path d="M91.66,296.19c-1.47-19.19,4.31-37,10.4-54.75a251.6,251.6,0,0,1,32-63.54,124,124,0,0,1,49.62-42c2.79-1.31,4.2-2.76,3.95-6.11-.29-3.8.24-7.67.34-11.52.26-9.88,5.24-16.56,14.05-20.53a89.29,89.29,0,0,1,36.17-8.13c21.69-.21,43.19.69,64.21,6.81,15.78,4.59,29.67,12.56,42.26,23,1.62,1.34,2.81,2.57,5.31,1,17.75-11.13,29.29-1.16,39,12.15a30.44,30.44,0,0,1,4.19,9.6c3,10.66-3.33,17.27-10.2,23.44-2.31,2.07-2.86,3.36-1.59,6.3a99.14,99.14,0,0,1,8,40.14c0,19.74-.36,39.43-4.16,58.86-2.48,12.68-6.38,24.82-16.09,34.14-5.67,5.44-12.36,8.44-20.33,8.14-6.4-.24-12.83.62-19.18-.51-1.39-.25-2.06.47-2.92,1.16-19.52,15.77-42.15,25.26-66,31.89-36.68,10.19-74.22,13.74-112.19,12.65-14.88-.43-29.53-2.44-40.48-14.31-10.44-11.33-17.15-24.23-16.36-40.18C91.77,301.33,91.66,298.75,91.66,296.19Zm154-196.47c-12.83-1.13-24.48,3.06-35.82,8.27-3.55,1.63-7.13,3.69-8.49,7.9a2.89,2.89,0,0,0-1.79,2.86,42.16,42.16,0,0,0-2,23.88c-1.4.74-2.78,1.53-4.2,2.23-17.3,8.54-32.46,19.7-44.49,35-20.28,25.84-33.33,55.17-42.55,86.4-3.67,12.45-6.73,25-4.79,38.24l.46,1.18,0,.19c1.14,12.89,15.39,35.44,33.91,40.13,13.74,3.48,27.54,2.93,41.48,2.18,25.15-1.36,50-4.94,74.12-11.93,26.46-7.66,51.8-17.85,72.08-37.56l6.33,2.2c7.88,2.75,15.86,4.47,23.43-.54,13.67-9.05,19.11-23.05,22.35-38.25,2.19-10.31,2.93-20.83,3.62-31.28s1.27-21.17-1.42-31.51a171.1,171.1,0,0,0-12.38-32.43c-1.34-2.72-1.08-4.24,1.54-5.86a65.17,65.17,0,0,0,12.31-9.85c.89-.91,2.32-1.83,2-3.14-1.51-5.73-2.1-12-7.53-15.85l-.86-1c-2.5-4.78-5.43-5.91-10-3.67-5.86,2.86-10.95,7.13-17,9.59-1.63,0-2.51-1.21-3.6-2.14-4.37-3.72-8.59-7.65-13.2-11-23.08-17-49.41-23.73-77.63-24.42Z" fill="#1f150e"/><path d="M101.55,304.53c-1.94-13.19,1.12-25.79,4.79-38.24,9.22-31.23,22.27-60.56,42.55-86.4,12-15.33,27.19-26.49,44.49-35,1.42-.7,2.8-1.49,4.2-2.23,20.42-7.48,41.1-8.4,61.81-1.65,15.86,5.17,29.21,14.85,42.24,25-.32,2.17,1.3,3.53,2.2,5.18,3.68,6.72,6.57,13.88,7.31,21.42,1,10.16-.47,20.14-3.48,30.1-5.47,18.11-15.6,31.9-32.88,40.11-2.29,1.08-4.46,2.43-6.7,3.65q-23.82,13-48.26,24.75C201.34,300,183.1,309.51,163,314.41a108.54,108.54,0,0,1-30.7,2.85c-9-.39-16.4-4.48-23.84-8.83-2-1.15-3.56-3.46-6.39-2.53l0-.19C101.86,305.32,101.7,304.92,101.55,304.53ZM157.89,240c4.67.49,8.87-.48,13.23-1.73a176,176,0,0,0,55-26.42c7.92-5.71,15.82-11.56,20.56-20.4,5.06-9.43,4.94-20.8-6.14-27.44-12.83-7.68-26.28-8.09-40.36-5.14-12.14,2.54-22.1,8.31-31.07,17.13-7.64,7.51-14.82,15.12-20.61,24.11s-10,18.06-9.66,28.9a9,9,0,0,0,3.8,7.3C147.31,239.94,152.49,240.63,157.89,240Z" fill="#c17e4a"/><path d="M102.05,305.9c2.83-.93,4.41,1.38,6.39,2.53,7.44,4.35,14.89,8.44,23.84,8.83a108.54,108.54,0,0,0,30.7-2.85c20.12-4.9,38.36-14.37,56.84-23.27q24.44-11.76,48.26-24.75c2.24-1.22,4.41-2.57,6.7-3.65,17.28-8.21,27.41-22,32.88-40.11,3-10,4.46-19.94,3.48-30.1-.74-7.54-3.63-14.7-7.31-21.42-.9-1.65-2.52-3-2.2-5.18,10.86,7.55,18.84,17.53,24.76,29.26,4.26,8.43,6.35,17.57,8.77,26.6.35,5.11.84,10.2,1,15.31a168,168,0,0,1-2,29.14c-1.63,11.35-3.26,22.89-10.53,32.48-20.28,19.71-45.62,29.9-72.08,37.56-24.16,7-49,10.57-74.12,11.93C163.5,349,149.7,349.51,136,346,117.44,341.34,103.19,318.79,102.05,305.9Z" fill="#895a34"/><path d="M335.16,221.79c-2.42-9-4.51-18.17-8.77-26.6-5.92-11.73-13.9-21.71-24.76-29.26-13-10.1-26.38-19.78-42.24-25-20.71-6.75-41.39-5.83-61.81,1.65a42.16,42.16,0,0,1,2-23.88c4.28,0,8.59.16,12.53-2l4.72,0a207.57,207.57,0,0,1,35.3,5.59c12.19,3.06,23.71,8,35.25,12.86,5.83,2.46,11.52,5.22,17.21,8,8.8,4.28,13.46,12.49,19.74,19.18.91,1,1.27,3.11,3.14,1.89s.42-2.62-.14-4.13c-2.44-6.58-6.68-11.74-11.2-17.07C302,126.44,284,115.59,264.73,106.27c-4.44-2.16-9.58-3-13.2-6.74,28.22.69,54.55,7.46,77.63,24.42,4.61,3.39,8.83,7.32,13.2,11,1.09.93,2,2.14,3.6,2.14,2.5,5.92,3.46,6.2,9,3.62a183.34,183.34,0,0,0,18-9.54c.29.33.58.67.86,1,.08,2.34-2.77,3.17-2.86,5.36-.26,6.5-4.62,9-9.93,11.29-3.19,1.35-5.52,2-7.88-1.07-.63-.83-1.56-2.62-3-1.26-1,1-.36,2.38.48,3.47a36.52,36.52,0,0,1,4.9,9.26c8,20.39,11.08,41,3.82,62.37-1.25,3.68-3.37,5.83-7.55,6C345.47,227.83,340.27,225,335.16,221.79Z" fill="#442f24"/><path d="M335.16,221.79c5.11,3.24,10.31,6,16.71,5.83,4.18-.15,6.3-2.3,7.55-6,7.26-21.32,4.18-42-3.82-62.37a36.52,36.52,0,0,0-4.9-9.26c-.84-1.09-1.5-2.5-.48-3.47,1.42-1.36,2.35.43,3,1.26,2.36,3.12,4.69,2.42,7.88,1.07,5.31-2.24,9.67-4.79,9.93-11.29.09-2.19,2.94-3,2.86-5.36,5.43,3.88,6,10.11,7.53,15.84.34,1.31-1.09,2.23-2,3.14a65.17,65.17,0,0,1-12.31,9.85c-2.62,1.62-2.88,3.14-1.54,5.86A171.1,171.1,0,0,1,378,199.34c2.69,10.34,2.11,21,1.42,31.51s-1.43,21-3.62,31.28c-3.24,15.2-8.68,29.2-22.35,38.25-7.57,5-15.55,3.29-23.43.54l-6.33-2.2c7.27-9.59,8.9-21.13,10.53-32.48a168,168,0,0,0,2-29.14C336,232,335.51,226.9,335.16,221.79Z" fill="#302118"/><path d="M216.84,116.77l-4.72,0c-.17-1.06-.51-1.62-1.87-1.46-2.94.34-5.91.42-8.87.6,1.36-4.21,4.94-6.27,8.49-7.9,11.34-5.21,23-9.4,35.82-8.27,3,3.41,7.6,3.34,11.37,5.07,11.7,5.35,23.23,11,33.68,18.62A136,136,0,0,1,309.88,140c.77.84,1.73,1.78,1,2.93s-1.89.52-2.9-.07a199.78,199.78,0,0,0-36-16.33c-9-3.08-18-6.18-27.33-8.21-5.9-1.28-12-1.29-17.82-3.1C224,114.4,219.59,112.84,216.84,116.77Z" fill="#635952"/><path d="M216.84,116.77c2.75-3.93,7.17-2.37,10-1.51,5.87,1.81,11.92,1.82,17.82,3.1,9.36,2,18.34,5.13,27.33,8.21a199.78,199.78,0,0,1,36,16.33c1,.59,2.09,1.34,2.9.07s-.24-2.09-1-2.93a136,136,0,0,0-19.14-16.63c-10.45-7.65-22-13.27-33.68-18.62-3.77-1.73-8.34-1.66-11.37-5.07l5.84-.19c3.62,3.76,8.76,4.58,13.2,6.74,19.26,9.32,37.29,20.17,51.41,36.82,4.52,5.33,8.76,10.49,11.2,17.07.56,1.51,2,2.91.14,4.13s-2.23-.93-3.14-1.89c-6.28-6.69-10.94-14.9-19.74-19.18-5.69-2.78-11.38-5.54-17.21-8-11.54-4.85-23.06-9.8-35.25-12.86A207.57,207.57,0,0,0,216.84,116.77Z" fill="#643922"/><path d="M373,131.21a183.34,183.34,0,0,1-18,9.54c-5.57,2.58-6.53,2.3-9-3.62,6.09-2.46,11.18-6.73,17-9.59C367.58,125.3,370.51,126.43,373,131.21Z" fill="#643922"/><path d="M201.38,115.89c3-.18,5.93-.26,8.87-.6,1.36-.16,1.7.4,1.87,1.46-3.94,2.16-8.25,2-12.53,2A2.89,2.89,0,0,1,201.38,115.89Z" fill="#643922"/><path d="M101.55,304.53c.15.39.31.79.47,1.18C101.86,305.32,101.7,304.92,101.55,304.53Z" fill="#895a34"/><path d="M157.89,240c-5.4.68-10.58,0-15.21-3.69a9,9,0,0,1-3.8-7.3c-.34-10.84,4-20.05,9.66-28.9s13-16.6,20.61-24.11c9-8.82,18.93-14.59,31.07-17.13,14.08-2.95,27.53-2.54,40.36,5.14,11.08,6.64,11.2,18,6.14,27.44-4.74,8.84-12.64,14.69-20.56,20.4a176,176,0,0,1-55,26.42C166.76,239.47,162.56,240.44,157.89,240Z" fill="#d58b51"/></svg>