<svg id="Camada_1" data-name="Camada 1" xmlns="http://www.w3.org/2000/svg" viewBox="0 0 489.06 451.66"><path d="M26.41,65.87c-1.81-6.49-.05-11.51,6.5-14.1,1.64-.65,1.33-1.35.93-2.59-.92-2.87.1-5.62,1-8.28,2.26-6.8,7.91-9,13.64-4.79a8.2,8.2,0,0,0,8.08,1.45c2.92-.88,6-1.21,8.36,1.43,1.69,1.93,2.57.15,3.66-.55,3.18-2,6.66-3.29,10.39-2.8,4.86.64,7.52,4.92,7.82,11.23.09,1.79-1.4,4.42.86,5.26,2,.75,4.09-.88,5.82-2.24a242.58,242.58,0,0,1,34.36-22.18c27.4-15,56.83-23,87.77-26.34a250.82,250.82,0,0,1,40.9-1c19.83,1.08,39.2,5.25,58.15,11.21,2.06.64,4.16,1.19,6.14,2,5.59,2.38,10.53,4.43,14.89-2.77,2.5-4.14,7.51-4.54,12-1.74,4.24,2.63,8.51,5.21,12.67,8,5.31,3.5,6.84,8.7,6.39,14.77-.1,1.38-.82,3.27,1,4,1.55.59,2.17-1.18,3.1-2,6.37-5.82,11-5.85,17.36,0,2.93,2.71,5.82,5.48,8.61,8.34,3.84,3.95,5.59,8.54,4.11,14.11-.49,1.85-1.37,3.92.95,5.38s3.21-1,4.61-1.74c6.62-3.7,11.39-2.82,15.94,3.28,2.09,2.8,4,5.76,6,8.6,3.88,5.39,5.19,11.08,2.17,17.32-.74,1.52-1.46,2.89.13,4.46s2.73.16,4-.38c9.11-3.92,13.18-2.37,17.5,6.67,1.14,2.4,2.19,4.85,3.47,7.17,3.79,6.83,3.48,13.31-1.29,19.57-.69.9-2.43,1.63-1.12,3.28,1.14,1.45,2.43.46,3.65.21,8.2-1.64,12.33.74,14.61,8.59,1,3.51,2,7.05,2.77,10.62,1.45,6.44.39,12.24-4.75,16.86-1.1,1-2.26,1.88-1.47,3.78s2.4,1.33,3.79,1.34c9.21.06,12.68,3.23,13.28,12.32.22,3.32.14,6.66.33,10,.37,6.33-1.65,11.61-7.27,14.81-3.47,2-2.92,4.87-2.78,7.78.15,3.15,3,2,4.65,2.5,7.22,2.17,9.78,5.82,8.75,13.25-.53,3.78-1.29,7.53-1.95,11.29-1.12,6.39-4.4,11-10.75,13.16-1.37.47-3,.85-3.17,2.73-.16,2.06,1.77,2.15,2.95,2.87,6.7,4.12,8,7.7,5.22,15-1.54,4-3.14,8.05-4.95,12a14,14,0,0,1-9.46,8.18c-5.33,1.45-5.9,4.17-2,8.07,4.94,5,5.49,8.22,2,14.17-2.2,3.71-4.75,7.22-7.19,10.8-2.88,4.23-6.74,6.79-12,7-2.93.1-4.18.72-1.61,3.69,6,7,5.91,10.26-.05,17.32-1.72,2-3.55,4-5.17,6.09-4.31,5.58-9.71,8.44-16.92,7.25-1.41-.24-3.05-.76-4.13.8-1.21,1.73.51,2.73,1.16,3.93,3.59,6.62,3,10.36-2.69,15.24-2.65,2.27-5.5,4.31-8.21,6.53-5.16,4.23-10.84,5.79-17.21,3.22-1.74-.7-3.08-.82-4.51.54-1.64,1.56-.15,2.75.35,4,3.18,8,1.53,12.47-6.06,16.25-3,1.48-6,2.89-9,4.4-5.78,2.94-11.53,3.31-17-.58-2.26-1.6-4-1.35-6.34-.17a232.4,232.4,0,0,1-74.79,23.54c-37.63,5-74.69,2.47-110.91-9.56q-67.47-22.41-111.73-78c-23.08-29.14-37.41-62.24-44-98.79C4.6,240.24,4.76,217.53,7.6,194.78c.37-2.92.5-4.84-3.39-5.48-4.42-.73-5.47-4.83-2.62-8.35.83-1,2.12-1.76,2.75-2.88,2.46-4.39,8.75-5.84,8.11-13-.4-4.41,4.86-8,6-12.83.74-3,1.81-5.95,2.3-9.12.66-4.19,1.87-8.32,5.51-11.39,2.18-1.83,3.51-4,1.54-7.64-2.17-4,.16-8.25,2.85-11.43,2.15-2.55,2.57-3.26-1-4.49-7.73-2.66-9.26-7.2-5.21-14.36C26.06,91,26.6,89,22.85,87.14c-4.68-2.25-7.78-12.49-5.69-17.2C18.3,67.37,19.36,66.89,26.41,65.87Zm14.14,68.61c5.51,1.17,6.23-3,7.35-6.66.31-.29.67-.6.12-1-.06,0-.39.32-.59.49a19.36,19.36,0,0,0-6.88,7.13l-1.22.33.23.35Zm1,6c-3.9,0-7.76,2.14-11.73,0-1.18-.63-3-2.77-4,0-.73,2.21-2.81,4.68.61,7,5.93,4,13.53.55,15.05-7.07l.19-.27Zm418,181c-8.91.14-17.37-1.94-25.67-5.06-9.45-3.54-9.4-3.36-14.39,5.38-1.16,2.05-.77,2.7,1,3.77A52.89,52.89,0,0,0,439,332.2C449.3,334,454.7,331,459.47,321.44a1.61,1.61,0,0,0,.38-.16s0-.19,0-.28C459.77,321.16,459.65,321.33,459.52,321.49Zm-109-305-.36-.21.43.14a70.88,70.88,0,0,1-4.27,26.3c-3.18,9.17-3,9.22,5.66,13.62a3.14,3.14,0,0,1,.44.25c1.92,1.49,2.85.5,3.68-1.32,2.41-5.27,4.57-10.57,5.53-16.36C363.71,26.09,360.53,21.79,350.48,16.53ZM70.76,138.7c5.33-1.36,6.56,1.74,7.5,6.18a25.54,25.54,0,0,1-3.81,20.51l-.63.58H75a3.09,3.09,0,0,1,3.86,1.35c2.62,4.26,1,12.79-3.08,15.9-3.45,2.59-7.1,4.93-10.5,7.59-1.3,1-3.45,1.9-2.62,4.3A3.41,3.41,0,0,0,67,197.56,2,2,0,0,1,69.28,199a2.33,2.33,0,0,1-1.14,2.57,21.38,21.38,0,0,1-7.14,3.3c-2.42.71-4.25.54-6-1s-1.93-3.68-1-6c1.62-4,1.94-8.45,4.6-12,.56-.75,1.49-1.76.48-2.63-4.85-4.15-2.8-8.72-.8-13.18,1.24-2.78,2.85-5.39,4.33-8.14-6.4-1.37-7.18-2.87-8.27-10.17-.81-5.45,2-9.45,4.35-13.76-7.68-2.42-7.87-2.51-11.11,4.77-7.94,17.82-14.79,36.12-16.88,55.6-3.6,33.48-1.07,66.37,11.18,98.18,9.68,25.13,25,46.41,43,66.11,21.72,23.71,47.95,40.54,77.85,51.63,34.46,12.77,70.09,16.61,106.61,12.21,23.85-2.87,46.38-10,68-20.34-3.78-7.19-3.8-7.22,2.94-11,2.6-1.46,5.29-2.8,8-4.05,1.86-.85,4.13-1.51,5.45.51,2.7,4.13,5.28,2.64,8.14.38a42.56,42.56,0,0,1,4.93-3.38c2.65-1.53,3.67-3,.87-5.52-2.26-2.05-2.61-4.26.37-6.44,3.22-2.34,6.07-5.19,9.24-7.61,1.69-1.29,3.88-2.75,5.83-.71,3.81,4,6.37,1.89,9.24-1.21a64.41,64.41,0,0,1,6.51-5.49c-6.56-6.11-6.58-6.12-1.56-12.55,1.73-2.22,3.54-4.41,5.46-6.48,1.71-1.84,3.81-2.72,6.18-1.15,3,2,4.79.72,6.3-2a25,25,0,0,1,3.17-4.48c2.46-2.81,2.87-4.82-1.36-6.39-4-1.47-5.37-4-2.37-8,2.2-2.91,3.81-6.25,5.9-9.25,1.36-1.93,3.17-3.7,5.86-2.26,5.31,2.84,7.68.3,9.11-4.6a59.4,59.4,0,0,1,2.56-5.94c.59-1.4.46-2.24-1.31-3-7.47-3.11-7.46-3.21-4.88-10.76a78.74,78.74,0,0,1,2.89-7.43c1.11-2.43,2.85-4.28,5.86-3.31,4.73,1.53,6.15-1,6.67-5a56.42,56.42,0,0,1,1.17-5.87c.56-2.33.32-3.72-2.67-3.84-2-.07-4.77-.22-4.37-3.47.59-4.79,1.25-9.58,2.18-14.31a4.43,4.43,0,0,1,4.63-3.78c1.78,0,3.18-.28,3.16-2.71,0-4.66.19-9.33.37-14,.07-1.81-.45-3-2.51-2.59-4.8.91-5.54-2.15-5.8-5.78-.23-3.32-.68-6.64-.72-10,0-2.31.19-5,3.1-5.57,4.1-.82,3.78-3.28,3-6.32-.72-2.73-1.12-5.55-1.68-8.32-.31-1.54-1.05-2.46-2.77-1.67-4.76,2.17-6.54-.37-7.47-4.57-.57-2.59-1.46-5.1-2.18-7.66-1-3.6-1.3-6.93,3-8.74,2-.85,2.05-2.28,1.1-4-1.87-3.51-2-7.94-5.69-10.46-.17-.12-.66.1-.93.28-3.38,2.19-5.09.34-6.53-2.56-1.62-3.27-3.47-6.43-5-9.72-.86-1.79-1.86-4.19,0-5.53,3.64-2.58,2.21-4.8.29-7.38a67.71,67.71,0,0,1-4.74-7c-1.4-2.45-2.71-2.91-4.84-.8-2.7,2.67-5.1,2.36-7.27-.9s-4.59-6.12-6.75-9.27c-1.14-1.67-2.22-4-.54-5.51,4.16-3.75,1.68-6.13-1.18-8.73-1.84-1.69-3.6-3.47-5.32-5.28-1-1.05-1.86-1.29-2.7.09-3.31,5.46-6.59,3.08-9.89,0-1.82-1.71-3.64-3.42-5.53-5-2.81-2.43-4.22-5.06-1.85-8.62.51-.76,1.47-1.93.5-2.68q-5.34-4.1-11-7.79c-.73-.47-1.42.65-1.77,1.39-1.71,3.66-4.11,2.92-6.84,1.24-3.11-1.92-6.38-3.6-9.46-5.56-2.16-1.38-4-3-2.63-6.14,1.11-2.54-.8-3.37-2.71-4.33-22.73-11.46-47.33-16.74-72.12-20.62-22.21-3.48-44.48-1-66.59,2.76-36.65,6.27-67.3,25-96.78,46.19-1.06.76-3,1.52-2.09,3.46,2.36,4.89.18,10.63,3.5,15.51,2.69,4,.91,8-2.48,11.15-.84.78-1.88,1.32-2.22,2.6-1.79,6.8-3.42,13.61-2.12,20.78,6.4-2.39,6.56-2,10.15,4.13,3.74,6.4,4.89,12.88,2.15,20.3,2.48-.8,4.09-1.61,5.76.12A13.47,13.47,0,0,1,115,168.3c-2.52,3.71-5.06,7.41-7.56,11.12-.76,1.13-1.5,2.3-.28,3.59,1,1,2,1.83,3.5,1.38,1.34-.4,2.8-1.8,3.86.24,1,1.86-.53,3.05-1.45,4.42a13.07,13.07,0,0,1-4.59,3.73c-5,2.91-8.54,1.11-8.59-4.69,0-4.12-1-8.29.43-12.4.33-1,.8-2.4-.77-3-5.33-2-4.9-6.78-4.91-11,0-3.33,1-6.66,1.68-10.37-5.42,2-8-.74-10.34-4.78-2.44-4.3-3.34-8.59-1.8-13.36.38-1.16,1-3.31-1.1-2.84-4.47,1-6.49-2.12-9.3-5.28-.21,5.16-3.19,8.65-3.77,12.93-.09.43-.39,1.11-.24,1.23C70.33,139.66,70.56,139.11,70.76,138.7ZM11.47,219.78c0,27.1,3.23,47.4,9.18,67.24,12.44,41.48,35.6,76.09,68.46,104a224.89,224.89,0,0,0,91,47c7.16,1.82,14.15,4.48,22,2.72,3.2-.72,3.67-5,7.38-4.27,1.26.26,2.85.09,3-1.78.17-2.32-1.64-2-3.1-2.2a199.84,199.84,0,0,1-43.92-10.84c-41.5-15.14-76-39.92-102.61-75.51s-39.7-75.38-40-119.41a210.11,210.11,0,0,1,5.24-46c.3-1.4,1.35-3-.3-4.07-2.18-1.46-10.84,2.33-11.37,4.88C13.3,196.27,11.29,211.06,11.47,219.78ZM104.89,62.14c1.85,0,2.49-1.09,3.38-1.77A203.13,203.13,0,0,1,157.94,33c32.13-12.34,65.51-17.82,100.19-14.72,26.95,2.4,52.69,8.72,77.23,20,6.75,3.11,6.89,3,8.83-4.19.8-3,.13-4.76-2.79-5.84-2.18-.8-4.22-2-6.38-2.84C311.66,16,287.7,9.25,262.39,7.17c-21.87-1.79-43.58-1.31-65.06,2.67a231.11,231.11,0,0,0-48.56,14.48,247.87,247.87,0,0,0-46.85,26.42c-1.06.75-3.74,1.52-1.35,3.59A12.49,12.49,0,0,1,104.89,62.14ZM475.12,278.76c-8.81,2.7-17.19,2.25-25.57.91-10.47-1.69-10.36-1.74-13.57,7.87-.79,2.34-.37,3.21,1.89,4a48.88,48.88,0,0,0,17.56,2.68C467.15,293.71,472.08,290.14,475.12,278.76ZM420.73,68.94c-2,9.54-7.72,16.23-13.45,22.92-6.29,7.35-6.15,7.25-.67,15.35,1.71,2.53,2.64,2.19,4.38.34,2.94-3.15,6.19-6,9-9.27C428.88,88,429.11,80.24,420.73,68.94Zm19.73,287.54c-9.73.93-17.42-2.87-25.12-6.76-9.16-4.63-9.11-4.51-15.23,3.45-1.38,1.8-1.3,2.59.5,3.83a58.81,58.81,0,0,0,18.18,8.94C428.46,368.55,434.63,366,440.46,356.48Zm27.34-212.6c-5.42,7.71-13.09,12.23-21.05,16.39-8.62,4.49-8.51,4.46-5.47,13.84.77,2.38,1.66,2.83,3.89,2a57.28,57.28,0,0,0,13.32-6.67C468.78,162.3,472.79,157.3,467.8,143.88Zm12.25,43c-6.95,6.57-15.05,9.4-23.46,11.72-12.52,3.44-8.92,1.3-8.26,13.4.12,2.24,1.09,2.11,2.89,1.9a54.32,54.32,0,0,0,17.63-5.09C479.38,203.7,481.6,199.47,480.05,186.83ZM377.05,419c-10-4.18-16.34-12.27-22.78-20.27-1.19-1.46-2.27-4.16-4.46-3.29-3.51,1.38-6.68,3.61-9.95,5.58a3.85,3.85,0,0,0,.61,1.72c4,5.91,7.91,11.86,13.81,16.21C362.63,425.12,367.8,425.28,377.05,419ZM387.21,39.68c-.49,3.09-.81,5.69-1.33,8.25C384.3,55.61,379.93,62,376,68.51c-1.83,3-2.55,5.34,1.09,7.39a10.07,10.07,0,0,1,2.61,2.31c2.54,3,4.7,3.19,6.77-.51,1.7-3,3.87-5.79,5.38-8.9C398.35,55.37,399,48.73,387.21,39.68Zm61.69,64.15c-4.5,10.59-12.91,17.34-21.55,23.78-2.8,2.1-2.85,3.68-1.19,6.49,4.91,8.3,5.47,8.48,13.14,2.12,1.27-1.06,2.4-2.31,3.67-3.37C453.89,123.7,455.33,117,448.9,103.83Zm34.18,132a55.19,55.19,0,0,1-24.52,5.72c-10.38.2-10.28.4-11.9,10.31-.44,2.66.11,3.72,2.86,3.64,4.32-.13,8.74.5,12.94-.24C478.35,252.5,482.1,249.34,483.08,235.85ZM411.73,390.28c-9.1-2-16.23-6.36-22.75-11.87-7.9-6.69-7.87-6.55-15.74-.05-1.95,1.62-2,2.5-.27,4.23a59.9,59.9,0,0,0,13.53,10.87C396.85,399.29,401.86,398.8,411.73,390.28Zm45.73-163.5h.09c0,1.82,0,3.64,0,5.46.05,2.07-.55,4.84,2.94,4.3,3.2-.49,8,1.82,8.78-3.69a59.76,59.76,0,0,0-.06-15.35c-.14-1.19-.18-2.67-2.11-2.81-5.69-.42-9.72,3.34-9.65,9.12C457.47,224.8,457.46,225.79,457.46,226.78ZM70.89,65.91c-.57-2.91-1-5.85-1.76-8.72-.41-1.64-.34-3.78-2.95-4-2.18-.15-4,.45-5.12,2.33C58.46,60,56.35,64.7,56.39,70c0,1.22-.51,3,1.2,3.39,3,.73,6.16,2.63,9,1.08C69.71,72.85,70.92,69.58,70.89,65.91Zm327.93.83c-.46.32-1,.49-1.17.84-1.72,3.19-4.14,6.25-4.81,9.66-.5,2.53,3.25,3.78,4.9,5.79a9.47,9.47,0,0,0,1.06,1c5.14,4.63,5.73,4.48,9.81-1,1.91-2.54,2.19-4.43-.39-6.72s-4.49-4.85-6.76-7.26C400.67,68.3,399.76,67.58,398.82,66.74Zm37.66,46.48c0-1.52-8.78-14.4-9.69-14.84-1.15-.56-1.35.46-1.88,1-6.56,6.26-6.58,6.49-1.36,13.87a28,28,0,0,0,2.26,3.28c1.1,1.2,1.23,4.49,3.37,3.31C432.07,118.23,435.32,116.45,436.48,113.22ZM461.78,173c-2.93,1.62-6,2.93-8.64,4.9-1.76,1.34.33,3.36.36,5.11a25.67,25.67,0,0,0,.73,4.38c1.33,6.93,1.91,7.28,8.47,4.47,1.84-.79,4.68-1.3,3.58-4.31-1.44-3.92-1.61-8.08-2.69-12.06C463.3,174.45,463.35,173.14,461.78,173ZM366.11,41.48c-4,10.72-4,10.72,4.36,17.55.13.1.23.24.37.33,1.48,1,3.11,3.63,4.67.55s5.82-6.1,2.13-9.81C374.42,46.86,370.29,44.53,366.11,41.48Zm88.68,106.74c-1.85-4.09-3.71-8.35-5.71-12.54-.64-1.32-1.52-.51-2.42,0-7.05,4.28-7.37,5.17-4.31,12.75.37.93.49,2.08,1.14,2.74,1.16,1.19,0,5,3.35,3.54C449.86,153.4,453.61,152.56,454.79,148.22Zm-373.13-99c-.21-3.06.52-6.3-2.83-8-1.71-.88-10.74,1.21-11.62,2.92-1.84,3.6.52,5.44,3.37,7a2,2,0,0,1,.82,1.2c1.27,4.5,5,3.2,7.77,2.87C82.89,54.69,80.94,51.19,81.66,49.23ZM52.81,74.08c-.35-5.75-.19-10.47,1.77-14.94a2.15,2.15,0,0,0-.83-2.66c-2.1-1.5-3.8-4.06-6.93-3.06-3.31,1-4.51,4-5,6.94-.43,2.69-.5,6.27,2.23,7.63A41.58,41.58,0,0,1,52.81,74.08Zm-6.09,26.56a44.14,44.14,0,0,0,4.9-.72c1.5-.4,3.46-.39,3.7-2.66.21-2.08.17-4-2.17-5a7.17,7.17,0,0,1-2.26-1.9c-2.84-3.28-6-2.17-9-.48-2.43,1.4-3.81,3.69-2.81,6.72C40.35,100.34,43.27,100.94,46.72,100.64Zm11.9-12.1c2,0,2.69,0,3.35,0,4,.24,5.91-2.19,6.45-5.57.62-3.88-2.76-3.89-5.28-4.44a27.39,27.39,0,0,0-5.86-.92c-2.21,0-5.11-.43-5.68,2.67a6.92,6.92,0,0,0,3.5,7.66A7.75,7.75,0,0,0,58.62,88.54ZM85.55,57.93c2.83,2.8,3.33,5.86,3.19,9.07-.08,2,.84,2.85,2.68,3.51s3.08.62,4.34-.88C98,67,101,64.32,99.18,60.54s-5.85-3.82-9.52-3.77C88.55,56.79,87.46,57.37,85.55,57.93Zm-12.82,86.6c-3.32,2.6-6.21,5.6-10.62,5.14-1.85-.2-3.87-.5-3.6,2.46.21,2.3-.81,5,3.13,5.57,4.58.72,7.38-1.59,10.45-4.25S73.72,148,72.73,144.53Zm-2.8-53.86c-2.16,3.09-5,3.06-7.8,3.06-1.18,0-3.19-.6-3.26,1.21-.1,2.58.3,5.3,2.27,7.31A5.22,5.22,0,0,0,67,103.76C71.82,102.19,72.86,98.67,69.93,90.67Zm-3.47,90.8c5.53.22,9.77-4,9-8.76-.23-1.42-.58-2.37-2.14-1.41-3,1.83-6.1,1.26-9.22.68-1.21-.22-2.12-.46-2.75,1.12C59.23,178.38,60.92,181.25,66.46,181.47Zm44.11-26.17a10.25,10.25,0,0,1-8.82,5.09c-2.08.11-4,.71-3,3.17.87,2.18.09,6.11,4,5.8,3.39-.27,6.9-1.16,8.76-4.65C113.15,161.68,112.73,158.79,110.57,155.3Zm-78.28,9.48c-3.64,0-6.77-.72-9.4-3.06-1.43-1.28-3.25-2.19-4.46.26-1,2.06-3.69,4.24-1.13,6.6,2.37,2.2,5,4.27,8.85,3.38S31.43,168.5,32.29,164.78Zm67.81-32.91c-2.46,4.25-4.84,8-9.72,9-.9.19-1.66.56-1.35,2.05.93,4.45,3.87,5.95,7.94,3.8C103.18,143.45,104.45,138.18,100.1,131.87ZM39.21,72c-1.89-.19-4,1-3.92,4.73,0,4.11,3.65,6.89,9.19,6.87,5.35,0,3.56-5.13,3.6-7C48.16,72.66,44.06,72.28,39.21,72Zm-8.37,4.15c1.4-2.48.07-4.52-2.36-6.13s-4.43,0-5.82,1.2c-2.71,2.33-1.14,5.49-.39,8.3.57,2.14,1.61,4.57,4.19,3.94a5.82,5.82,0,0,0,4.37-4.83A19.63,19.63,0,0,0,30.84,76.18ZM81.75,109c.06,3.18-.83,6.64,4.1,6.27,3.73-.28,5.66-2.92,5.61-7.79,0-2-.6-4.37-2.73-3.51C86.1,105,80.15,102.57,81.75,109ZM37.61,48.06c.14,1.42-.34,3.14,1.37,3.93s2.21-1,3.27-1.6,2.32-1.18,3.5-1.73c3-1.43,2.85-4.78,3.2-7.1.27-1.79-3.3-1.9-5.2-2.56-2.54-.89-3.47,1.2-4.38,2.94A13.63,13.63,0,0,0,37.61,48.06Zm47,48.17c-.44-5.45-2-7.65-5.61-6.8-1.55.36-5-1.61-4.69,2.23.49,7,2.11,9.25,6.2,8.63C82.45,100,85.71,100.46,84.63,96.23Zm-6.4-22.56c-3.17.63-7.39.85-7.72,4.22-.22,2.32,2.3,6.09,4.55,7.14,2.67,1.24,7.06-4,7.41-7.84C82.78,73.76,79.84,74.53,78.23,73.67ZM86.94,73c-.19,4.57-.07,7.7-1.68,10.58-1.18,2.1.67,3.26,2.15,3.58,2.41.52,5.13.28,6.83-1.72s.48-4.52-.9-6.28C91.79,77.11,89.69,75.54,86.94,73ZM62.11,108.72c-2.36-.72-3.43-4.21-6.76-4.08-2,.08-5.08.12-4.44,3.17.56,2.68-.41,6.81,4,7.43C57.43,115.6,62.15,111.59,62.11,108.72ZM39.85,124.2c3.21.11,5.52.47,5.92-2.64.43-3.3-2.52-1.65-3.77-2.5s-3-1.18-4.54-1.75-2.55-2.78-4.24-.9a6.66,6.66,0,0,0-1.85,5.48c.42,2.16,2.63,1.41,4.16,1.65C37.32,123.83,39.11,124.09,39.85,124.2Zm38-54.6c3.22.13,6.24,0,5.68-4.6-.44-3.62-5.06-7.53-8.35-5.92-3.46,1.7.25,5.43-.53,8.31S75.68,70.42,77.85,69.6ZM37.44,59.87c-.15-1.46,1.51-3.61-.93-4.21-1.86-.46-3.48.76-4.74,2.15-2.24,2.46-1.48,5.28-.64,8,.42,1.34-.43,4.45,2.63,3.31,2-.74,6-.35,4.29-4.82A19,19,0,0,1,37.44,59.87Zm37.54,44c-2.49,4.51-10,2.45-7.93,9A4.74,4.74,0,0,0,74,115.6C78.68,112.88,75.9,108.88,75,103.85ZM58.56,42.43c-3.54.07-7.67,2.84-7.18,5.1.6,2.77,3.71,5.13,5.53,4.63,2-.56,5.78-1.77,5.51-5.33C62.25,44.71,62,41.82,58.56,42.43Zm-12,67.18c.73-6.28-4.71-4-7.27-4.81s-2.31,2.89-2.39,4.38c-.2,3.84,3,4.08,5.9,4.37C45.88,113.87,47.15,112.55,46.57,109.61ZM90.21,92.52c.26,4.22.22,7.84,4.91,7.78a4,4,0,0,0,3.95-4.6c-.16-1.68.43-5.24-2.62-4.84C94.41,91.13,91.17,90.19,90.21,92.52ZM71.66,121.06a43.48,43.48,0,0,1-5.47-2.68c-2.86-1.92-5.26,0-6.57,1.57-1.73,2,1.21,3.42,2.51,4.36C66.67,127.57,68.75,123.05,71.66,121.06ZM35.4,100.75C34.65,97.31,31.46,96.87,29,96c-2-.68-2.1,1.75-2.25,3-.41,3.57,2.43,4.36,5,5S34.34,102.13,35.4,100.75Zm51.88,20.74c-1.76-2.74-4.84-1.75-7.15-2.69a1.8,1.8,0,0,0-2.46,2.12c.58,2,.6,5.41,3.35,5.24C83.48,126,85.37,123.49,87.28,121.49ZM30.2,88.74C30,91.16,31.52,93,33.44,93c2.94-.11,3.15-3.61,3.74-5.52s-2.51-2.94-4.19-3C30.34,84.26,30.37,86.77,30.2,88.74Zm32.86,41.7c-3.48-.25-3.91-5.78-7.22-4.35-1.56.67-1.39,5,0,6.32C58.05,134.35,60.51,131.62,63.06,130.44Z" fill="#635952"/><path d="M74.44,165.39a25.5,25.5,0,0,0,3.82-20.51c-.94-4.44-2.17-7.54-7.5-6.18L70,138c.59-4.28,3.57-7.77,3.78-12.93,2.81,3.16,4.83,6.28,9.3,5.28,2.08-.47,1.48,1.68,1.1,2.84-1.54,4.77-.64,9.06,1.8,13.36,2.3,4,4.92,6.74,10.34,4.78-.65,3.71-1.69,7-1.68,10.37,0,4.2-.42,9,4.91,11,1.57.6,1.1,2,.77,3-1.39,4.11-.47,8.28-.43,12.4,0,5.8,3.58,7.6,8.59,4.69a13.07,13.07,0,0,0,4.59-3.73c.92-1.37,2.41-2.56,1.45-4.42-1.06-2-2.52-.64-3.86-.24-1.5.45-2.55-.38-3.5-1.38-1.22-1.29-.48-2.46.28-3.59,2.5-3.71,5-7.41,7.56-11.12a13.47,13.47,0,0,0-1.33-16.52c-1.67-1.73-3.28-.92-5.76-.12,2.74-7.42,1.59-13.9-2.15-20.3-3.59-6.13-3.75-6.52-10.15-4.13-1.3-7.17.33-14,2.12-20.78.34-1.28,1.38-1.82,2.22-2.6,3.39-3.16,5.17-7.18,2.48-11.15-3.32-4.88-1.14-10.62-3.5-15.51-.94-1.94,1-2.7,2.09-3.46,29.48-21.21,60.13-39.92,96.78-46.19,22.11-3.79,44.38-6.24,66.59-2.76,24.79,3.88,49.39,9.16,72.12,20.62,1.91,1,3.82,1.79,2.71,4.33-1.35,3.1.47,4.76,2.63,6.14,3.08,2,6.35,3.64,9.46,5.56,2.73,1.68,5.13,2.42,6.84-1.24.35-.74,1-1.86,1.77-1.39q5.63,3.71,11,7.79c1,.75,0,1.92-.5,2.68-2.37,3.56-1,6.19,1.85,8.62,1.89,1.63,3.71,3.34,5.53,5,3.3,3.1,6.58,5.48,9.89,0,.84-1.38,1.69-1.14,2.7-.09,1.72,1.81,3.48,3.59,5.32,5.28,2.86,2.6,5.34,5,1.18,8.73-1.68,1.52-.6,3.84.54,5.51,2.16,3.15,4.63,6.1,6.75,9.27s4.57,3.57,7.27.9c2.13-2.11,3.44-1.65,4.84.8a67.71,67.71,0,0,0,4.74,7c1.92,2.58,3.35,4.8-.29,7.38-1.89,1.34-.89,3.74,0,5.53,1.58,3.29,3.43,6.45,5,9.72,1.44,2.9,3.15,4.75,6.53,2.56.27-.18.76-.4.93-.28,3.65,2.52,3.82,6.95,5.69,10.46.95,1.77.93,3.2-1.1,4-4.3,1.81-4,5.14-3,8.74.72,2.56,1.61,5.07,2.18,7.66.93,4.2,2.71,6.74,7.47,4.57,1.72-.79,2.46.13,2.77,1.67.56,2.77,1,5.59,1.68,8.32.8,3,1.12,5.5-3,6.32-2.91.58-3.13,3.26-3.1,5.57,0,3.32.49,6.64.72,10,.26,3.63,1,6.69,5.8,5.78,2.06-.39,2.58.78,2.51,2.59-.18,4.66-.4,9.33-.37,14,0,2.43-1.38,2.7-3.16,2.71a4.43,4.43,0,0,0-4.63,3.78c-.93,4.73-1.59,9.52-2.18,14.31-.4,3.25,2.4,3.4,4.37,3.47,3,.12,3.23,1.51,2.67,3.84A56.42,56.42,0,0,0,447.4,269c-.52,4-1.94,6.55-6.67,5-3-1-4.75.88-5.86,3.31a78.74,78.74,0,0,0-2.89,7.43c-2.58,7.55-2.59,7.65,4.88,10.76,1.77.74,1.9,1.58,1.31,3a59.4,59.4,0,0,0-2.56,5.94c-1.43,4.9-3.8,7.44-9.11,4.6-2.69-1.44-4.5.33-5.86,2.26-2.09,3-3.7,6.34-5.9,9.25-3,4-1.59,6.51,2.37,8,4.23,1.57,3.82,3.58,1.36,6.39a25,25,0,0,0-3.17,4.48c-1.51,2.76-3.28,4.05-6.3,2-2.37-1.57-4.47-.69-6.18,1.15-1.92,2.07-3.73,4.26-5.46,6.48-5,6.43-5,6.44,1.56,12.55a64.41,64.41,0,0,0-6.51,5.49c-2.87,3.1-5.43,5.2-9.24,1.21-1.95-2-4.14-.58-5.83.71-3.17,2.42-6,5.27-9.24,7.61-3,2.18-2.63,4.39-.37,6.44,2.8,2.53,1.78,4-.87,5.52a42.56,42.56,0,0,0-4.93,3.38c-2.86,2.26-5.44,3.75-8.14-.38-1.32-2-3.59-1.36-5.45-.51-2.72,1.25-5.41,2.59-8,4.05-6.74,3.8-6.72,3.83-2.94,11-21.61,10.35-44.14,17.47-68,20.34-36.52,4.4-72.15.56-106.61-12.21-29.9-11.09-56.13-27.92-77.85-51.63-18-19.7-33.34-41-43-66.11-12.25-31.81-14.78-64.7-11.18-98.18,2.09-19.48,8.94-37.78,16.88-55.6,3.24-7.28,3.43-7.19,11.11-4.77-2.34,4.31-5.16,8.31-4.35,13.76,1.09,7.3,1.87,8.8,8.27,10.17-1.48,2.75-3.09,5.36-4.33,8.14-2,4.46-4,9,.8,13.18,1,.87.08,1.88-.48,2.63-2.66,3.59-3,8.06-4.6,12-.92,2.27-.78,4.3,1,6s3.53,1.73,6,1a21.38,21.38,0,0,0,7.14-3.3A2.33,2.33,0,0,0,69.28,199,2,2,0,0,0,67,197.56a3.41,3.41,0,0,1-4.28-2.45c-.83-2.4,1.32-3.28,2.62-4.3,3.4-2.66,7-5,10.5-7.59,4.13-3.11,5.7-11.64,3.08-15.9A3.09,3.09,0,0,0,75,166,4.46,4.46,0,0,0,74.44,165.39ZM385,222.11c0-27.13-.79-32.93-7.88-50.3-1.19-2.9-.45-4.06,1.52-6.1,5.38-5.61,12.36-10.45,10.86-20-.76-4.88-2.12-9.56-5-13.43-9.8-13.38-21.28-22.72-38.59-11.87-2.48,1.56-3.79.46-5.54-1-11.35-9.46-23.86-17-37.94-21.57-22.28-7.24-45.31-8.64-68.56-8.19a90,90,0,0,0-36.61,8.57c-6,2.81-10.39,7.2-12.36,13.59-1.84,6-1.45,12.22-1.27,18.36.09,2.92-.93,4.33-3.54,5.54a132.47,132.47,0,0,0-20.63,12.08c-19.3,13.6-32.67,32.24-43.36,52.74-17.2,33-30.45,67-28.69,105.43,1.28,27.94,21.63,50,49.38,51.67a387.57,387.57,0,0,0,89-5.17c29.88-5.1,59-13.12,84.24-30.27,11.2-7.61,22-10.88,34.92-9.57,9.48.95,16.66-3.67,22.61-10.5a50.29,50.29,0,0,0,9.77-17.82C383.92,264.06,384.87,243.13,385,222.11Z" fill="#fdfdfd"/><path d="M11.47,219.78c-.18-8.72,1.83-23.51,4.91-38.19.53-2.55,9.19-6.34,11.37-4.88,1.65,1.11.6,2.67.3,4.07a210.11,210.11,0,0,0-5.24,46c.33,44,13.5,83.94,40,119.41S124,406.53,165.45,421.67a199.84,199.84,0,0,0,43.92,10.84c1.46.18,3.27-.12,3.1,2.2-.13,1.87-1.72,2-3,1.78-3.71-.76-4.18,3.55-7.38,4.27-7.82,1.76-14.81-.9-22-2.72a224.89,224.89,0,0,1-91-47c-32.86-27.94-56-62.55-68.46-104C14.7,267.18,11.44,246.88,11.47,219.78Z" fill="#adacab"/><path d="M104.89,62.14a12.49,12.49,0,0,0-4.32-7.81c-2.39-2.07.29-2.84,1.35-3.59a247.87,247.87,0,0,1,46.85-26.42A231.11,231.11,0,0,1,197.33,9.84c21.48-4,43.19-4.46,65.06-2.67C287.7,9.25,311.66,16,335,25.49c2.16.88,4.2,2,6.38,2.84,2.92,1.08,3.59,2.87,2.79,5.84-1.94,7.19-2.08,7.3-8.83,4.19-24.54-11.32-50.28-17.64-77.23-20C223.45,15.22,190.07,20.7,157.94,33a203.13,203.13,0,0,0-49.67,27.33C107.38,61.05,106.74,62.18,104.89,62.14Z" fill="#adacab"/><path d="M475.12,278.76c-3,11.38-8,14.95-19.69,15.43a48.88,48.88,0,0,1-17.56-2.68c-2.26-.76-2.68-1.63-1.89-4,3.21-9.61,3.1-9.56,13.57-7.87C457.93,281,466.31,281.46,475.12,278.76Z" fill="#adacab"/><path d="M350.48,16.53c10,5.26,13.23,9.56,11.11,22.42-1,5.79-3.12,11.09-5.53,16.36-.83,1.82-1.76,2.81-3.68,1.32a3.14,3.14,0,0,0-.44-.25c-8.7-4.4-8.84-4.45-5.66-13.62a70.88,70.88,0,0,0,4.27-26.3Z" fill="#adacab"/><path d="M420.73,68.94c8.38,11.3,8.15,19-.74,29.34-2.81,3.26-6.06,6.12-9,9.27-1.74,1.85-2.67,2.19-4.38-.34-5.48-8.1-5.62-8,.67-15.35C413,85.17,418.74,78.48,420.73,68.94Z" fill="#adacab"/><path d="M440.46,356.48c-5.83,9.49-12,12.07-21.67,9.46A58.81,58.81,0,0,1,400.61,357c-1.8-1.24-1.88-2-.5-3.83,6.12-8,6.07-8.08,15.23-3.45C423,353.61,430.73,357.41,440.46,356.48Z" fill="#adacab"/><path d="M467.8,143.88c5,13.42,1,18.42-9.31,25.58a57.28,57.28,0,0,1-13.32,6.67c-2.23.81-3.12.36-3.89-2-3-9.38-3.15-9.35,5.47-13.84C454.71,156.11,462.38,151.59,467.8,143.88Z" fill="#adacab"/><path d="M480.05,186.83c1.55,12.64-.67,16.87-11.2,21.93a54.32,54.32,0,0,1-17.63,5.09c-1.8.21-2.77.34-2.89-1.9-.66-12.1-4.26-10,8.26-13.4C465,196.23,473.1,193.4,480.05,186.83Z" fill="#adacab"/><path d="M377.05,419c-9.25,6.25-14.42,6.09-22.77,0-5.9-4.35-9.81-10.3-13.81-16.21a3.85,3.85,0,0,1-.61-1.72c3.27-2,6.44-4.2,9.95-5.58,2.19-.87,3.27,1.83,4.46,3.29C360.71,406.76,367,414.85,377.05,419Z" fill="#adacab"/><path d="M387.21,39.68c11.77,9,11.14,15.69,4.59,29.12-1.51,3.11-3.68,5.88-5.38,8.9-2.07,3.7-4.23,3.53-6.77.51A10.07,10.07,0,0,0,377,75.9c-3.64-2.05-2.92-4.39-1.09-7.39,4-6.52,8.35-12.9,9.93-20.58C386.4,45.37,386.72,42.77,387.21,39.68Z" fill="#adacab"/><path d="M448.9,103.83c6.43,13.21,5,19.87-5.93,29-1.27,1.06-2.4,2.31-3.67,3.37-7.67,6.36-8.23,6.18-13.14-2.12-1.66-2.81-1.61-4.39,1.19-6.49C436,121.17,444.4,114.42,448.9,103.83Z" fill="#adacab"/><path d="M459.47,321.44C454.7,331,449.3,334,439,332.2a52.89,52.89,0,0,1-18.52-6.62c-1.8-1.07-2.19-1.72-1-3.77,5-8.74,4.94-8.92,14.39-5.38,8.3,3.12,16.76,5.2,25.67,5.06Z" fill="#adacab"/><path d="M483.08,235.85c-1,13.49-4.73,16.65-20.62,19.43-4.2.74-8.62.11-12.94.24-2.75.08-3.3-1-2.86-3.64,1.62-9.91,1.52-10.11,11.9-10.31A55.19,55.19,0,0,0,483.08,235.85Z" fill="#adacab"/><path d="M411.73,390.28c-9.87,8.52-14.88,9-25.23,3.18A59.9,59.9,0,0,1,373,382.59c-1.69-1.73-1.68-2.61.27-4.23,7.87-6.5,7.84-6.64,15.74.05C395.5,383.92,402.63,388.27,411.73,390.28Z" fill="#adacab"/><path d="M457.46,226.78c0-1,0-2,0-3-.07-5.78,4-9.54,9.65-9.12,1.93.14,2,1.62,2.11,2.81a59.76,59.76,0,0,1,.06,15.35c-.8,5.51-5.58,3.2-8.78,3.69-3.49.54-2.89-2.23-2.94-4.3-.05-1.82,0-3.64,0-5.46Z" fill="#adacab"/><path d="M70.89,65.91c0,3.67-1.18,6.94-4.26,8.58-2.88,1.55-6.06-.35-9-1.08-1.71-.41-1.2-2.17-1.2-3.39,0-5.32,2.07-10,4.67-14.46,1.09-1.88,2.94-2.48,5.12-2.33,2.61.18,2.54,2.32,2.95,4C69.86,60.06,70.32,63,70.89,65.91Z" fill="#adacab"/><path d="M398.82,66.74c.94.84,1.85,1.56,2.64,2.39,2.27,2.41,4.31,5.06,6.76,7.26s2.3,4.18.39,6.72c-4.08,5.44-4.67,5.59-9.81,1a9.47,9.47,0,0,1-1.06-1c-1.65-2-5.4-3.26-4.9-5.79.67-3.41,3.09-6.47,4.81-9.66C397.84,67.23,398.36,67.06,398.82,66.74Z" fill="#adacab"/><path d="M436.48,113.22c-1.16,3.23-4.41,5-7.3,6.6-2.14,1.18-2.27-2.11-3.37-3.31a28,28,0,0,1-2.26-3.28c-5.22-7.38-5.2-7.61,1.36-13.87.53-.52.73-1.54,1.88-1C427.7,98.82,436.44,111.7,436.48,113.22Z" fill="#adacab"/><path d="M461.78,173c1.57.13,1.52,1.44,1.81,2.49,1.08,4,1.25,8.14,2.69,12.06,1.1,3-1.74,3.52-3.58,4.31-6.56,2.81-7.14,2.46-8.47-4.47a25.67,25.67,0,0,1-.73-4.38c0-1.75-2.12-3.77-.36-5.11C455.75,175.94,458.85,174.63,461.78,173Z" fill="#adacab"/><path d="M366.11,41.48c4.18,3.05,8.31,5.38,11.53,8.62,3.69,3.71-.59,6.79-2.13,9.81s-3.19.48-4.67-.55c-.14-.09-.24-.23-.37-.33C362.15,52.2,362.15,52.2,366.11,41.48Z" fill="#adacab"/><path d="M454.79,148.22c-1.18,4.34-4.93,5.18-8,6.53-3.32,1.49-2.19-2.35-3.35-3.54-.65-.66-.77-1.81-1.14-2.74-3.06-7.58-2.74-8.47,4.31-12.75.9-.55,1.78-1.36,2.42,0C451.08,139.87,452.94,144.13,454.79,148.22Z" fill="#adacab"/><path d="M81.66,49.23c-.72,2,1.23,5.46-2.49,5.9-2.79.33-6.5,1.63-7.77-2.87a2,2,0,0,0-.82-1.2c-2.85-1.51-5.21-3.35-3.37-7,.88-1.71,9.91-3.8,11.62-2.92C82.18,42.93,81.45,46.17,81.66,49.23Z" fill="#adacab"/><path d="M52.81,74.08A41.58,41.58,0,0,0,44.09,68c-2.73-1.36-2.66-4.94-2.23-7.63.45-2.92,1.65-5.89,5-6.94,3.13-1,4.83,1.56,6.93,3.06a2.15,2.15,0,0,1,.83,2.66C52.62,63.61,52.46,68.33,52.81,74.08Z" fill="#adacab"/><path d="M46.72,100.64c-3.45.3-6.37-.3-7.61-4-1-3,.38-5.32,2.81-6.72,2.94-1.69,6.13-2.8,9,.48a7.17,7.17,0,0,0,2.26,1.9c2.34,1,2.38,2.93,2.17,5-.24,2.27-2.2,2.26-3.7,2.66A44.14,44.14,0,0,1,46.72,100.64Z" fill="#adacab"/><path d="M58.62,88.54a7.75,7.75,0,0,1-3.52-.6,6.92,6.92,0,0,1-3.5-7.66c.57-3.1,3.47-2.67,5.68-2.67a27.39,27.39,0,0,1,5.86.92c2.52.55,5.9.56,5.28,4.44-.54,3.38-2.49,5.81-6.45,5.57C61.31,88.51,60.64,88.54,58.62,88.54Z" fill="#adacab"/><path d="M85.55,57.93c1.91-.56,3-1.14,4.11-1.16,3.67-.05,7.69,0,9.52,3.77S98,67,95.76,69.63c-1.26,1.5-2.52,1.54-4.34.88S88.66,69,88.74,67C88.88,63.79,88.38,60.73,85.55,57.93Z" fill="#adacab"/><path d="M72.73,144.53c1,3.43,2.56,6.15-.64,8.92s-5.87,5-10.45,4.25c-3.94-.62-2.92-3.27-3.13-5.57-.27-3,1.75-2.66,3.6-2.46C66.52,150.13,69.41,147.13,72.73,144.53Z" fill="#adacab"/><path d="M69.93,90.67c2.93,8,1.89,11.52-3,13.09a5.22,5.22,0,0,1-5.81-1.51c-2-2-2.37-4.73-2.27-7.31.07-1.81,2.08-1.21,3.26-1.21C65,93.73,67.77,93.76,69.93,90.67Z" fill="#adacab"/><path d="M66.46,181.47c-5.54-.22-7.23-3.09-5.13-8.37.63-1.58,1.54-1.34,2.75-1.12,3.12.58,6.24,1.15,9.22-.68,1.56-1,1.91,0,2.14,1.41C76.23,177.51,72,181.69,66.46,181.47Z" fill="#adacab"/><path d="M110.57,155.3c2.16,3.49,2.58,6.38,1,9.41-1.86,3.49-5.37,4.38-8.76,4.65-3.91.31-3.13-3.62-4-5.8-1-2.46.91-3.06,3-3.17A10.25,10.25,0,0,0,110.57,155.3Z" fill="#adacab"/><path d="M32.29,164.78c-.86,3.72-2.29,6.29-6.14,7.18s-6.48-1.18-8.85-3.38c-2.56-2.36.11-4.54,1.13-6.6,1.21-2.45,3-1.54,4.46-.26C25.52,164.06,28.65,164.8,32.29,164.78Z" fill="#adacab"/><path d="M100.1,131.87c4.35,6.31,3.08,11.58-3.13,14.87-4.07,2.15-7,.65-7.94-3.8-.31-1.49.45-1.86,1.35-2.05C95.26,139.88,97.64,136.12,100.1,131.87Z" fill="#adacab"/><path d="M39.21,72c4.85.25,8.95.63,8.87,4.59,0,1.88,1.75,7-3.6,7-5.54,0-9.16-2.76-9.19-6.87C35.26,73,37.32,71.84,39.21,72Z" fill="#adacab"/><path d="M41.52,140.47c-1.52,7.62-9.12,11.05-15.05,7.07-3.42-2.3-1.34-4.77-.61-7,.94-2.79,2.8-.65,4,0,4,2.11,7.83,0,11.73,0Z" fill="#adacab"/><path d="M30.84,76.18a19.63,19.63,0,0,1,0,2.48,5.82,5.82,0,0,1-4.37,4.83c-2.58.63-3.62-1.8-4.19-3.94-.75-2.81-2.32-6,.39-8.3,1.39-1.2,3.53-2.71,5.82-1.2S32.24,73.7,30.84,76.18Z" fill="#adacab"/><path d="M81.75,109c-1.6-6.41,4.35-4,7-5,2.13-.86,2.7,1.49,2.73,3.51.05,4.87-1.88,7.51-5.61,7.79C80.92,115.62,81.81,112.16,81.75,109Z" fill="#adacab"/><path d="M37.61,48.05a13.63,13.63,0,0,1,1.76-6.11c.91-1.74,1.84-3.83,4.38-2.94,1.9.66,5.47.77,5.2,2.56-.35,2.32-.17,5.67-3.2,7.1-1.18.55-2.38,1.08-3.5,1.73S40.6,52.74,39,52,37.75,49.48,37.61,48.05Z" fill="#adacab"/><path d="M84.63,96.23c1.08,4.23-2.18,3.76-4.1,4.06-4.09.62-5.71-1.58-6.2-8.63-.26-3.84,3.14-1.87,4.69-2.23C82.64,88.58,84.19,90.78,84.63,96.23Z" fill="#adacab"/><path d="M78.23,73.67c1.61.86,4.55.09,4.24,3.52-.35,3.8-4.74,9.08-7.41,7.84-2.25-1-4.77-4.82-4.55-7.14C70.84,74.52,75.06,74.3,78.23,73.67Z" fill="#adacab"/><path d="M86.94,73c2.75,2.59,4.85,4.16,6.4,6.16,1.38,1.76,2.7,4.16.9,6.28s-4.42,2.24-6.83,1.72c-1.48-.32-3.33-1.48-2.15-3.58C86.87,80.65,86.75,77.52,86.94,73Z" fill="#adacab"/><path d="M62.11,108.72c0,2.87-4.68,6.88-7.2,6.52-4.41-.62-3.44-4.75-4-7.43-.64-3,2.46-3.09,4.44-3.17C58.68,104.51,59.75,108,62.11,108.72Z" fill="#adacab"/><path d="M39.85,124.2c-.74-.11-2.53-.37-4.32-.66-1.53-.24-3.74.51-4.16-1.65a6.66,6.66,0,0,1,1.85-5.48c1.69-1.88,2.85.39,4.24.9s3.24.87,4.54,1.75,4.2-.8,3.77,2.5C45.37,124.67,43.06,124.31,39.85,124.2Z" fill="#adacab"/><path d="M77.85,69.6c-2.17.82-3.95.54-3.2-2.21s-2.93-6.61.53-8.31c3.29-1.61,7.91,2.3,8.35,5.92C84.09,69.6,81.07,69.73,77.85,69.6Z" fill="#adacab"/><path d="M37.44,59.87a19,19,0,0,0,.61,4.38c1.71,4.47-2.32,4.08-4.29,4.82-3.06,1.14-2.21-2-2.63-3.31-.84-2.67-1.6-5.49.64-8,1.26-1.39,2.88-2.61,4.74-2.15C39,56.26,37.29,58.41,37.44,59.87Z" fill="#adacab"/><path d="M75,103.85c.92,5,3.7,9-1,11.75a4.74,4.74,0,0,1-6.9-2.79C65,106.3,72.49,108.36,75,103.85Z" fill="#adacab"/><path d="M58.56,42.43c3.46-.61,3.69,2.28,3.86,4.4.27,3.56-3.49,4.77-5.51,5.33-1.82.5-4.93-1.86-5.53-4.63C50.89,45.27,55,42.5,58.56,42.43Z" fill="#adacab"/><path d="M46.57,109.61c.58,2.94-.69,4.26-3.76,3.94-2.88-.29-6.1-.53-5.9-4.37.08-1.49-.21-5.18,2.39-4.38S47.3,103.33,46.57,109.61Z" fill="#adacab"/><path d="M90.21,92.52c1-2.33,4.2-1.39,6.24-1.66,3-.4,2.46,3.16,2.62,4.84a4,4,0,0,1-3.95,4.6C90.43,100.36,90.47,96.74,90.21,92.52Z" fill="#adacab"/><path d="M71.66,121.06c-2.91,2-5,6.51-9.53,3.25-1.3-.94-4.24-2.32-2.51-4.36,1.31-1.55,3.71-3.49,6.57-1.57A43.48,43.48,0,0,0,71.66,121.06Z" fill="#adacab"/><path d="M35.4,100.75c-1.06,1.38-1,4-3.64,3.32s-5.41-1.43-5-5c.15-1.28.24-3.71,2.25-3C31.46,96.87,34.65,97.31,35.4,100.75Z" fill="#adacab"/><path d="M87.28,121.49c-1.91,2-3.8,4.51-6.26,4.67-2.75.17-2.77-3.21-3.35-5.24a1.8,1.8,0,0,1,2.46-2.12C82.44,119.74,85.52,118.75,87.28,121.49Z" fill="#adacab"/><path d="M30.2,88.74c.17-2,.14-4.48,2.79-4.34,1.68.09,4.79,1.1,4.19,3s-.8,5.41-3.74,5.52C31.52,93,30,91.16,30.2,88.74Z" fill="#adacab"/><path d="M63.06,130.44c-2.55,1.18-5,3.91-7.18,2-1.43-1.27-1.6-5.65,0-6.32C59.15,124.66,59.58,130.19,63.06,130.44Z" fill="#adacab"/><path d="M47.9,127.83c-1.12,3.68-1.84,7.82-7.35,6.65h0a19.36,19.36,0,0,1,6.88-7.13Z" fill="#adacab"/><path d="M40.55,134.48l-1,.68-.23-.35,1.22-.33Z" fill="#adacab"/><path d="M75,166H73.82l.63-.58A5.12,5.12,0,0,1,75,166Z" fill="#fdfdfd"/><path d="M41.57,140.51l.14-.31-.19.27Z" fill="#adacab"/><path d="M70.76,138.7c-.2.41-.43,1-1,.54-.15-.12.15-.8.23-1.23Z" fill="#fdfdfd"/><path d="M47.43,127.35c.2-.17.53-.53.59-.49.55.36.19.67-.12,1Z" fill="#adacab"/><path d="M459.52,321.49c.13-.16.25-.33.37-.49,0,.09,0,.23,0,.28a1.61,1.61,0,0,1-.38.16Z" fill="#adacab"/><path d="M350.55,16.46l-.43-.14.36.21Z" fill="#adacab"/><path d="M385,222.11c-.11,21-1.06,41.95-7.59,62.18a50.29,50.29,0,0,1-9.77,17.82c-5.95,6.83-13.13,11.45-22.61,10.5-12.95-1.31-23.72,2-34.92,9.57-25.23,17.15-54.36,25.17-84.24,30.27a387.57,387.57,0,0,1-89,5.17c-27.75-1.7-48.1-23.73-49.38-51.67-1.76-38.4,11.49-72.46,28.69-105.43,10.69-20.5,24.06-39.14,43.36-52.74a132.47,132.47,0,0,1,20.63-12.08c2.61-1.21,3.63-2.62,3.54-5.54-.18-6.14-.57-12.38,1.27-18.36,2-6.39,6.33-10.78,12.36-13.59a90,90,0,0,1,36.61-8.57c23.25-.45,46.28,1,68.56,8.19,14.08,4.58,26.59,12.11,37.94,21.57,1.75,1.47,3.06,2.57,5.54,1,17.31-10.85,28.79-1.51,38.59,11.87,2.83,3.87,4.19,8.55,5,13.43,1.5,9.55-5.48,14.39-10.86,20-2,2-2.71,3.2-1.52,6.1C384.19,189.18,385,195,385,222.11ZM197.47,115.5l-1.92,3a7.48,7.48,0,0,0-1,1.66c-2.06,7.33-.73,14.83-1.11,22.25-2,1.18-3.9,2.5-6,3.51-17.26,8.52-32.05,20-43.73,35.47-23.7,31.31-38.31,66.64-46,104.93-1.38,6.91-1.8,14.19.75,21.16,1.86,11.71,8.48,20.79,16.6,28.79,9.17,9,21,11.73,33.34,12.22,27.86,1.08,55.39-2.14,82.47-8.24,32.51-7.33,63.63-18.08,88.52-41.77,2.48.92,4.95,1.85,7.45,2.74,9.15,3.28,17.87,3,25.68-3.47A48.7,48.7,0,0,0,368.49,273c3.68-12.92,5.31-26.16,6.24-39.6.75-10.82,1-21.45-.78-32.15-2.1-12.45-7.69-23.56-13-34.77-1.11-2.35-1.21-3.5,1.35-5,3.94-2.39,7.38-5.58,11.11-8.33a7.62,7.62,0,0,0,3-8.37c-1-4.49-2.68-8.78-5.9-12.25l-1.93-2.1c-2.66-4.42-6.14-4.84-10.43-2.32-5.49,3.24-11.07,6.33-16.61,9.48-5.35-2-8.29-6.92-12.49-10.32-23.57-19-51-26.39-80.58-27.68l-8,0c-12.53-.32-24.09,3.41-35.14,8.82C202.21,109.94,198.89,111.8,197.47,115.5Z" fill="#1f150e"/><path d="M98.58,307.45c-2.55-7-2.13-14.25-.75-21.16,7.65-38.29,22.26-73.62,46-104.93,11.68-15.43,26.47-27,43.73-35.47,2.07-1,4-2.33,6-3.51a10.79,10.79,0,0,0,2.44-.3,88.78,88.78,0,0,1,52.3-2.89c22.13,5.43,39.82,18.32,56.25,33.35l1,.85.08.08,1,.94h0a17.11,17.11,0,0,0,.7,7.37,56.08,56.08,0,0,1,2.86,20.05,99.11,99.11,0,0,1-5.73,27.44,66.61,66.61,0,0,1-25.08,32.42c-7,4.85-15.11,7.9-22.65,11.9-17.2,9.13-34.69,17.72-52.2,26.25-20.12,9.81-40.76,18.24-63.36,20.35-5.11.47-10.51.95-15.42-.16C115.88,317.83,106.92,313.19,98.58,307.45Zm55.79-66.86a44.94,44.94,0,0,0,5.71-.51c12.53-2.66,24.2-7.72,35.87-12.81,4.06-1.77,8.46-3.38,12-5.67,6.73-4.42,13.33-9.17,19.83-14,6.67-5,12.88-10.41,16-18.57,3.73-9.75,2.58-18.57-4.84-23.37-9.53-6.18-20.12-9.78-31.88-8.29-9.4,1.18-18.88,2.36-27.11,7.32-12.94,7.79-23,18.76-32.27,30.58a71.91,71.91,0,0,0-11.22,21.52c-2.28,6.78-4.3,14.12,2.69,19.64C143.41,239.83,148.82,240.24,154.37,240.59Z" fill="#c17e4a"/><path d="M98.58,307.45c8.34,5.74,17.3,10.38,27.14,12.59,4.91,1.11,10.31.63,15.42.16,22.6-2.11,43.24-10.54,63.36-20.35,17.51-8.53,35-17.12,52.2-26.25,7.54-4,15.68-7.05,22.65-11.9a66.61,66.61,0,0,0,25.08-32.42,99.11,99.11,0,0,0,5.73-27.44,56.08,56.08,0,0,0-2.86-20.05,17.27,17.27,0,0,1-.71-7.37,6.7,6.7,0,0,1,2.16,1.06,88.3,88.3,0,0,1,21.9,47l.15,2.95.68,1.06c0,12.27.75,24.58-1.06,36.77s-3.11,24.73-10.91,35.15c-24.89,23.69-56,34.44-88.52,41.77-27.08,6.1-54.61,9.32-82.47,8.24-12.35-.49-24.17-3.2-33.34-12.22C107.06,328.24,100.44,319.16,98.58,307.45Z" fill="#895a34"/><path d="M330.65,222.52a88.3,88.3,0,0,0-21.9-47,6.7,6.7,0,0,0-2.16-1.06h0l-1-.94-.08-.08-1-.85c-16.43-15-34.12-27.92-56.25-33.35a88.78,88.78,0,0,0-52.3,2.89,10.79,10.79,0,0,1-2.44.3c.38-7.42-1-14.92,1.11-22.25a7.48,7.48,0,0,1,1-1.66,45.06,45.06,0,0,0,6.48-.13c15.21-2.46,30-.21,44.65,3.75a259.9,259.9,0,0,1,34.4,12.18c14.4,6.17,28.75,12,37.25,26.37a14.68,14.68,0,0,0,2.78,2.85c.76.72,1.73,1.23,2.68.52a1.93,1.93,0,0,0,.42-2.7c-3-2.89-3.11-7.2-5.62-10.38-6.82-8.61-14.78-16.12-22.89-23.4-3.17-2.85-6.56-6.19-11.23-7-.32,0-.64,0-1,0-4.06-5.38-9.55-8.47-16-10-.32,0-.64,0-1,0-1.1-3.54-4.48-3-7.05-3.95l-1.93-.07c-.56-2.82-3.2-2.92-5.15-3.84-1.59-.74-3.58-.81-3.9-3.09,29.59,1.29,57,8.63,80.58,27.68,4.2,3.4,7.14,8.35,12.49,10.32,2.39,5.24,3.86,5.85,8.56,3.65,3.59-1.68,7.29-3.14,10.74-5.05,2.8-1.55,6.24-2.41,7.74-5.76l1.93,2.1c-3,2-3.87,5.2-4.68,8.4-1.53,6.05-7.3,6.74-11.64,9.15-3.26,1.8-4-1.86-5.85-3.2-.66-.49-1.33-1.32-2.15-.78a2,2,0,0,0-.4,2.7c1.15,2.19,2.66,4.19,3.72,6.42a96,96,0,0,1,9.06,48.24c-.32,5.3-.35,10.41-2.61,15.5-4,9.08-7.22,10.46-16.85,7.08C336.21,225,334.24,221.71,330.65,222.52Z" fill="#442f24"/><path d="M330.65,222.52c3.59-.81,5.56,2.44,8.47,3.47,9.63,3.38,12.83,2,16.85-7.08,2.26-5.09,2.29-10.2,2.61-15.5a96,96,0,0,0-9.06-48.24c-1.06-2.23-2.57-4.23-3.72-6.42a2,2,0,0,1,.4-2.7c.82-.54,1.49.29,2.15.78,1.81,1.34,2.59,5,5.85,3.2,4.34-2.41,10.11-3.1,11.64-9.15.81-3.2,1.65-6.42,4.68-8.4,3.22,3.47,4.89,7.76,5.9,12.25a7.62,7.62,0,0,1-3,8.37c-3.73,2.75-7.17,5.94-11.11,8.33-2.56,1.55-2.46,2.7-1.35,5,5.32,11.21,10.91,22.32,13,34.77,1.81,10.7,1.53,21.33.78,32.15-.93,13.44-2.56,26.68-6.24,39.6a48.7,48.7,0,0,1-15.85,24.72c-7.81,6.46-16.53,6.75-25.68,3.47-2.5-.89-5-1.82-7.45-2.74,7.8-10.42,9.1-22.9,10.91-35.15s1.08-24.5,1.06-36.77l-.68-1.06Z" fill="#302118"/><path d="M266.51,110.49c.33,0,.65,0,1,0,4.4,4.84,10.49,7,16,10,.32,0,.64,0,1,0a3.36,3.36,0,0,0,1.61,3c4.41,2.44,7.85,6.08,11.7,9.2a44.68,44.68,0,0,1,9.85,10.3,7.71,7.71,0,0,1-6-1.17c-11.15-6.54-23-11.4-35.12-15.89-19.11-7.1-38.73-11.32-59.27-10.51-3.23.13-6.48,1.63-9.73.09,1.42-3.7,4.74-5.56,7.87-7.1,11-5.41,22.61-9.14,35.14-8.82a2.4,2.4,0,0,0,1.7,2.2c5.11,1.58,10.24,3.13,15.35,4.69l1.93.07C260.6,110,264,109.49,266.51,110.49Z" fill="#635952"/><path d="M197.47,115.5c3.25,1.54,6.5,0,9.73-.09,20.54-.81,40.16,3.41,59.27,10.51,12.07,4.49,24,9.35,35.12,15.89a7.71,7.71,0,0,0,6,1.17,44.68,44.68,0,0,0-9.85-10.3c-3.85-3.12-7.29-6.76-11.7-9.2a3.36,3.36,0,0,1-1.61-3c4.67.81,8.06,4.15,11.23,7,8.11,7.28,16.07,14.79,22.89,23.4,2.51,3.18,2.63,7.49,5.62,10.38a1.93,1.93,0,0,1-.42,2.7c-1,.71-1.92.2-2.68-.52a14.68,14.68,0,0,1-2.78-2.85c-8.5-14.36-22.85-20.2-37.25-26.37a259.9,259.9,0,0,0-34.4-12.18c-14.63-4-29.44-6.21-44.65-3.75a45.06,45.06,0,0,1-6.48.13Z" fill="#643922"/><path d="M368.59,130.38c-1.5,3.35-4.94,4.21-7.74,5.76-3.45,1.91-7.15,3.37-10.74,5.05-4.7,2.2-6.17,1.59-8.56-3.65,5.54-3.15,11.12-6.24,16.61-9.48C362.45,125.54,365.93,126,368.59,130.38Z" fill="#643922"/><path d="M257.53,106.47c-5.11-1.56-10.24-3.11-15.35-4.69a2.4,2.4,0,0,1-1.7-2.2l8,0c.32,2.28,2.31,2.35,3.9,3.09C254.33,103.55,257,103.65,257.53,106.47Z" fill="#643922"/><path d="M154.37,240.59c-5.55-.35-11-.76-15.25-4.16-7-5.52-5-12.86-2.69-19.64a71.91,71.91,0,0,1,11.22-21.52c9.22-11.82,19.33-22.79,32.27-30.58,8.23-5,17.71-6.14,27.11-7.32,11.76-1.49,22.35,2.11,31.88,8.29,7.42,4.8,8.57,13.62,4.84,23.37-3.12,8.16-9.33,13.61-16,18.57-6.5,4.83-13.1,9.58-19.83,14-3.51,2.29-7.91,3.9-12,5.67-11.67,5.09-23.34,10.15-35.87,12.81A44.94,44.94,0,0,1,154.37,240.59Z" fill="#d58b51"/><path d="M305.6,173.47l1,.94Z" fill="#895a34"/><path d="M304.48,172.54l1,.85Z" fill="#895a34"/><path d="M330.8,225.47l.68,1.06Z" fill="#442f24"/><path d="M283.51,120.49c-5.54-3-11.63-5.13-16-10C274,112,279.45,115.11,283.51,120.49Z" fill="#643922"/><path d="M266.51,110.49c-2.53-1-5.91-.48-7.05-3.95C262,107.46,265.41,107,266.51,110.49Z" fill="#643922"/></svg>