<svg id="Camada_1" data-name="Camada 1" xmlns="http://www.w3.org/2000/svg" viewBox="0 0 489.06 451.66"><path d="M247.68,6A229.21,229.21,0,0,1,334.54,23.8a224.5,224.5,0,0,1,84.87,60.81c26.34,30.39,43.76,65.14,50.45,104.69,10.25,60.6-3.27,115.93-40,165.26-32.9,44.21-77.08,71.68-130.23,84.65a227,227,0,0,1-68.79,6A244.63,244.63,0,0,1,167.45,433a226.25,226.25,0,0,1-85.93-52.87c-34.36-33.48-56-73.92-63-121.27-9.57-64.22,7-121.69,48.73-171.54,27.81-33.22,62.9-56.14,103.84-69.76C195.82,9.36,221.56,6,247.68,6ZM39,175.71C52.37,127,80.59,88.78,122,60.36a207.73,207.73,0,0,1,67.32-30.44,10.14,10.14,0,0,0,2.47-.06,207.08,207.08,0,0,1,79.5-5,226.73,226.73,0,0,1,63.14,17.43c18.45,8.09,34.85,19.15,49.95,32.36,16.09,14.07,31.1,29,42.18,47.57A222.51,222.51,0,0,1,443,155.11c2,5.16,3.8,5.65,8.64,3s1.28-6.15.43-8.54a170.74,170.74,0,0,0-17.61-35.15A223.68,223.68,0,0,0,398,71.08c-7.66-7.11-16.41-12.9-24.7-19.22-9.65-7.36-20.07-13-30.83-18a231,231,0,0,0-73-20.36,237.68,237.68,0,0,0-72.37,3.3c-1.93.38-4.8-.2-5.36,3-4.5-1.63-8.36.95-12.38,2.07-35.26,9.8-65.95,27.79-92.24,53.05-31,29.76-51,65.86-60.62,107.77a196.15,196.15,0,0,0-1.19,81.1A210.19,210.19,0,0,0,53.83,336.7a214,214,0,0,0,50.81,55.84c7.77,6,15.63,11.88,24.29,16.52,8.36,4.49,16.23,10.88,26.83,8.22,3.27-.83,7,2,10.3-1.28a17,17,0,0,0-5-3.31c-9.66-4.35-19.8-8-28.67-13.64-7.19-4.56-13.85-10.24-20.76-15.39C85.77,364.37,66.32,339.81,52,311.09a188.54,188.54,0,0,1-18.6-66.33c-.88-9.09-2-18.45-.78-27.38C34.55,203.48,35.5,189.38,39,175.71Zm.12,50.78a177.49,177.49,0,0,0,1.37,26.24c6,45.61,27.72,83.27,60.62,114.51,38.09,36.17,84.44,53.22,136.45,55.45a204.23,204.23,0,0,0,73.22-10.09q78-25.73,117.36-97.82c12.93-23.64,19.55-49,21.36-76.13,1.67-25-.52-49.37-9-72.68-24.27-66.46-70.43-109.61-139-128.7A217.39,217.39,0,0,0,207.23,32c-35.62,5.75-66.27,22.42-94.8,43.22C89.33,92,72.44,114.53,59.56,140,46.3,166.14,38.33,193.65,39.15,226.49Z" fill="#635952"/><path d="M39.15,226.49c-.82-32.84,7.15-60.35,20.41-86.52C72.44,114.53,89.33,92,112.43,75.19,141,54.39,171.61,37.72,207.23,32a217.39,217.39,0,0,1,94.28,5.3c68.55,19.09,114.71,62.24,139,128.7,8.52,23.31,10.71,47.65,9,72.68-1.81,27.1-8.43,52.49-21.36,76.13q-39.33,71.93-117.36,97.82a204.23,204.23,0,0,1-73.22,10.09c-52-2.23-98.36-19.28-136.45-55.45C68.24,336,46.53,298.34,40.52,252.73A177.49,177.49,0,0,1,39.15,226.49ZM169.87,354.65A370.65,370.65,0,0,0,250.38,345c22.25-5.31,44-12.49,62.6-25.83,10.28-7.37,20.4-9.48,32.19-8.59,10.63.81,18.52-4.28,24.64-12.48,8.87-11.89,11.41-26,13.33-40.14,2-15,2-30.2,2.06-45.37.06-13.68-2.2-26.78-7.86-39.2-1.33-2.92-.35-4.08,1.67-6.07,5.58-5.5,12-10.7,10.34-20.15a28.62,28.62,0,0,0-4.55-12c-9.12-12.69-20.62-22.77-37.95-11.74-2.38,1.51-3.44.21-5-1.05-13.71-11.09-28.82-19.33-46.09-23.66-20.59-5.16-41.46-5.45-62.45-5-11.18.26-21.57,3.59-31.53,8.3a20.42,20.42,0,0,0-11.91,15.56,60.82,60.82,0,0,0-.7,13.91c.17,3.61-.79,5.6-4.28,7.15a111.38,111.38,0,0,0-20.51,12.21c-18.45,13.5-31.29,31.65-41.56,51.6-16.3,31.68-29,64.33-27.19,101.11,1.14,23,15.74,43.58,37,48.9C144.83,355.58,157.4,354.52,169.87,354.65Z" fill="#fdfdfd"/><path d="M191.7,19.78c.56-3.16,3.43-2.58,5.36-3a237.68,237.68,0,0,1,72.37-3.3,231,231,0,0,1,73,20.36c10.76,5,21.18,10.62,30.83,18,8.29,6.32,17,12.11,24.7,19.22a223.68,223.68,0,0,1,36.49,43.38,170.74,170.74,0,0,1,17.61,35.15c.85,2.39,4.55,5.85-.43,8.54s-6.62,2.12-8.64-3a222.51,222.51,0,0,0-16.48-32.93c-11.08-18.56-26.09-33.5-42.18-47.57-15.1-13.21-31.5-24.27-49.95-32.36a226.73,226.73,0,0,0-63.14-17.43,207.08,207.08,0,0,0-79.5,5,10.14,10.14,0,0,1-2.47.06C191.77,27,190.76,23.13,191.7,19.78Z" fill="#adacab"/><path d="M39,175.71c-3.53,13.67-4.48,27.77-6.38,41.67-1.23,8.93-.1,18.29.78,27.38A188.54,188.54,0,0,0,52,311.09c14.29,28.72,33.74,53.28,59.63,72.57,6.91,5.15,13.57,10.83,20.76,15.39,8.87,5.64,19,9.29,28.67,13.64a17,17,0,0,1,5,3.31c-3.27,3.31-7,.45-10.3,1.28-10.6,2.66-18.47-3.73-26.83-8.22-8.66-4.64-16.52-10.56-24.29-16.52A214,214,0,0,1,53.83,336.7a210.19,210.19,0,0,1-28.56-72.92,196.15,196.15,0,0,1,1.19-81.1A3.81,3.81,0,0,0,30,181.36,21.74,21.74,0,0,1,39,175.71Z" fill="#adacab"/><path d="M39,175.71A21.74,21.74,0,0,0,30,181.36a3.81,3.81,0,0,1-3.49,1.32c9.57-41.91,29.64-78,60.62-107.77,26.29-25.26,57-43.25,92.24-53,4-1.12,7.88-3.7,12.38-2.07-.94,3.34.07,7.16-2.43,10.13A207.73,207.73,0,0,0,122,60.36C80.59,88.78,52.37,127,39,175.71Z" fill="#fdfdfd"/><path d="M169.87,354.65c-12.47-.13-25,.93-37.29-2.15-21.21-5.32-35.81-25.87-37-48.9-1.83-36.78,10.89-69.43,27.19-101.11,10.27-20,23.11-38.1,41.56-51.6a111.38,111.38,0,0,1,20.51-12.21c3.49-1.55,4.45-3.54,4.28-7.15a60.82,60.82,0,0,1,.7-13.91,20.42,20.42,0,0,1,11.91-15.56c10-4.71,20.35-8,31.53-8.3,21-.49,41.86-.2,62.45,5,17.27,4.33,32.38,12.57,46.09,23.66,1.56,1.26,2.62,2.56,5,1.05,17.33-11,28.83-1,37.95,11.74a28.62,28.62,0,0,1,4.55,12C391,156.6,384.59,161.8,379,167.3c-2,2-3,3.15-1.67,6.07,5.66,12.42,7.92,25.52,7.86,39.2-.07,15.17,0,30.33-2.06,45.37-1.92,14.16-4.46,28.25-13.33,40.14-6.12,8.2-14,13.29-24.64,12.48-11.79-.89-21.91,1.22-32.19,8.59-18.6,13.34-40.35,20.52-62.6,25.83A370.65,370.65,0,0,1,169.87,354.65ZM244.13,103c-3.37-.55-6.66.32-9.87.92-10.78,2-21.43,4.48-30.07,11.93-2,1-2.6,3-3,5-3.63,7.71-3.71,15.75-2.2,23.94-1.12.65-2.21,1.39-3.38,1.95a124.93,124.93,0,0,0-50.85,43.5c-18,26.55-30.11,55.62-37.6,86.71C105,285.86,104,294.86,106,304c4.14,18,13.64,31.84,31.61,38,12.58,4.34,25.74,3.88,39,3.08,21.93-1.33,43.65-4,65-9.32,29.29-7.29,57.24-17.56,79.68-39,2.69.85,5.35,1.79,8.07,2.53,5.79,1.58,11.7,2.85,17.5.4,12.52-5.29,18.53-16.08,22.37-28.17,4.29-13.48,5.39-27.48,6.36-41.59a129.79,129.79,0,0,0-.85-26.17c-1.62-12.15-6.67-23.17-12.08-34-1.76-3.52-.94-5.51,1.85-7.55,3.35-2.44,6.56-5.06,9.91-7.48,1.94-1.4,3.22-3.34,2.77-5.5-1.16-5.6-2-11.47-6.85-15.46a4.44,4.44,0,0,0-.89-.06c-2.95-4.64-6.55-5.4-12.1-2.27-4.74,2.67-9.36,5.57-14,8.37-1.92,0-2.83-1.52-4.07-2.58-4.66-4-9.08-8.3-14.06-11.82C303,109.81,277.74,104,251.14,102.93Z" fill="#1f150e"/><path d="M106,304c-2-9.12-1-18.12,1.17-27.05,7.49-31.09,19.56-60.16,37.6-86.71a124.93,124.93,0,0,1,50.85-43.5c1.17-.56,2.26-1.3,3.38-1.95,13.66-4.19,27.34-6.63,41.89-5.15,24.4,2.48,43.28,15.37,61.41,30.16l1,.94h.07c5.27,12,8.85,24.2,7,37.75-2.32,16.91-8.26,31.76-20.31,44.13-6.33,6.5-14.56,9.51-22.18,13.72Q241.39,281,214.06,293.9c-17.48,8.25-34.79,16.92-54.05,20.51-14.68,2.73-29.18,3.84-42.85-4.09C113.46,308.17,109.71,306.09,106,304Zm53.58-64.06c17.2-1,32.37-8.4,47.61-15.49,9.48-4.42,18-10.49,25.93-17.22,5.52-4.66,11.72-9,14.08-16.37,3.76-11.81,3.59-18.2-4.81-24.05a47.45,47.45,0,0,0-16.85-7c-10.11-2.3-19.86-.39-29.36,2.43-5.43,1.61-11.21,3.29-15.73,7-4.83,4-9.32,8.43-13.87,12.77a98.31,98.31,0,0,0-25,38.7c-2.35,6.6,1.2,14.77,7.8,17.3C152.6,239.28,155.92,240.29,159.55,239.92Z" fill="#c17e4a"/><path d="M106,304c3.74,2.11,7.49,4.19,11.19,6.34,13.67,7.93,28.17,6.82,42.85,4.09,19.26-3.59,36.57-12.26,54.05-20.51q27.34-12.9,53.79-27.57c7.62-4.21,15.85-7.22,22.18-13.72,12.05-12.37,18-27.22,20.31-44.13,1.85-13.55-1.73-25.72-7-37.75,1.44.15,2.32,1.19,3.3,2.09,11.93,11,19.56,24.53,23.53,40.17,1.17,4.6,2,9.3,2.93,13.95.16,11.94.77,23.94-1.09,35.77s-2.89,24.12-10.84,34.09c-22.44,21.42-50.39,31.69-79.68,39-21.3,5.3-43,8-65,9.32-13.22.8-26.38,1.26-39-3.08C119.61,335.82,110.11,322,106,304Z" fill="#895a34"/><path d="M333.1,226.94c-1-4.65-1.76-9.35-2.93-13.95-4-15.64-11.6-29.17-23.53-40.17-1-.9-1.86-1.94-3.3-2.09h-.07l-1-.94c-18.13-14.79-37-27.68-61.41-30.16-14.55-1.48-28.23,1-41.89,5.15-1.51-8.19-1.43-16.23,2.2-23.94,3.4,1.83,6.71-.59,9.89-.35,11.15.84,22.31.46,33.48,3,8.41,1.88,16.5,4.63,24.54,7.28,10.59,3.47,20.75,8.38,30.79,13.3,6,2.94,12.11,6.12,15.73,12.4,1.64,2.85,3.95,5.31,5.92,8a2.9,2.9,0,0,0,3.49,1.21c1.05-.36.86-1.24.47-2.05-1.83-3.87-2.84-8.24-5.71-11.48-5.39-6.09-10.85-12.15-16.76-17.72-4.4-4.15-9-8.35-14.88-10.46-.32,0-.63,0-.95,0-2.85-4.42-7.28-6.45-12-8q-.48,0-1,0c-1.22-3.32-3.84-4.16-7-4l-1.95,0c-.72-2.93-3.62-2.81-5.58-4-2.76-1.74-6.91-1.07-8.47-4.87,26.6,1.1,51.81,6.88,73.93,22.55,5,3.52,9.4,7.84,14.06,11.82,1.24,1.06,2.15,2.61,4.07,2.58,1.16,4.54,4.05,5.9,8.07,3.74,6-3.24,12.63-5.49,18.06-9.84a4.44,4.44,0,0,1,.89.06c-2.56,7.5-4.34,15.24-13.84,17.81-3.06.83-4.45.61-6.28-1.38-.87-.94-1.42-3.38-3.27-1.8-1.59,1.36.37,2.61,1,3.82a107.47,107.47,0,0,1,9.59,24.86c2,7.63.45,15.32,2,22.66,1.81,8.67-1.28,15.95-4.09,23.49-1.2,3.22-3.71,4.9-7.43,4.58-3.88-.34-7.14-2.17-10.51-3.82C334.37,222.57,332.72,223.27,333.1,226.94Z" fill="#442f24"/><path d="M333.1,226.94c-.38-3.67,1.27-4.37,4.31-2.88,3.37,1.65,6.63,3.48,10.51,3.82,3.72.32,6.23-1.36,7.43-4.58,2.81-7.54,5.9-14.82,4.09-23.49-1.53-7.34,0-15-2-22.66a107.47,107.47,0,0,0-9.59-24.86c-.67-1.21-2.63-2.46-1-3.82,1.85-1.58,2.4.86,3.27,1.8,1.83,2,3.22,2.21,6.28,1.38,9.5-2.57,11.28-10.31,13.84-17.81,4.88,4,5.69,9.86,6.85,15.46.45,2.16-.83,4.1-2.77,5.5-3.35,2.42-6.56,5-9.91,7.48-2.79,2-3.61,4-1.85,7.55,5.41,10.8,10.46,21.82,12.08,34a129.79,129.79,0,0,1,.85,26.17c-1,14.11-2.07,28.11-6.36,41.59-3.84,12.09-9.85,22.88-22.37,28.17-5.8,2.45-11.71,1.18-17.5-.4-2.72-.74-5.38-1.68-8.07-2.53,7.95-10,9-22.24,10.84-34.09S333.26,238.88,333.1,226.94Z" fill="#302118"/><path d="M287.18,123.86c.32,0,.63,0,.95,0,.19,2.34,2,3.21,3.68,4.36a109.15,109.15,0,0,1,16.89,14.66c.9,1,2.15,2.06.81,3.38-1.08,1.06-2.2.12-3-.72-1.56-1.61-3.6-2.38-5.52-3.35-15.79-7.93-32-14.93-49.15-19.24-14.1-3.54-28.47-5.8-43.13-4.19-2.51.27-3.71-.89-4.51-2.94,8.64-7.45,19.29-9.94,30.07-11.93,3.21-.6,6.5-1.47,9.87-.92,6.32,4.62,14.05,5.87,21.06,8.83l1.95,0c1.28,3.22,4.11,3.69,7,4q.48,0,1,0C278,120.27,282.69,121.92,287.18,123.86Z" fill="#635952"/><path d="M204.19,115.86c.8,2,2,3.21,4.51,2.94,14.66-1.61,29,.65,43.13,4.19C269,127.3,285.19,134.3,301,142.23c1.92,1,4,1.74,5.52,3.35.81.84,1.93,1.78,3,.72,1.34-1.32.09-2.43-.81-3.38a109.15,109.15,0,0,0-16.89-14.66c-1.66-1.15-3.49-2-3.68-4.36,5.92,2.11,10.48,6.31,14.88,10.46,5.91,5.57,11.37,11.63,16.76,17.72,2.87,3.24,3.88,7.61,5.71,11.48.39.81.58,1.69-.47,2.05a2.9,2.9,0,0,1-3.49-1.21c-2-2.66-4.28-5.12-5.92-8-3.62-6.28-9.73-9.46-15.73-12.4-10-4.92-20.2-9.83-30.79-13.3-8-2.65-16.13-5.4-24.54-7.28-11.17-2.51-22.33-2.13-33.48-3-3.18-.24-6.49,2.18-9.89.35C201.59,118.82,202.16,116.89,204.19,115.86Z" fill="#643922"/><path d="M369.33,133.78c-5.43,4.35-12,6.6-18.06,9.84-4,2.16-6.91.8-8.07-3.74,4.67-2.8,9.29-5.7,14-8.37C362.78,128.38,366.38,129.14,369.33,133.78Z" fill="#643922"/><path d="M265.19,111.84c-7-3-14.74-4.21-21.06-8.83l7-.08c1.56,3.8,5.71,3.13,8.47,4.87C261.57,109,264.47,108.91,265.19,111.84Z" fill="#643922"/><path d="M159.55,239.92c-3.63.37-7-.64-10.24-1.9-6.6-2.53-10.15-10.7-7.8-17.3a98.31,98.31,0,0,1,25-38.7c4.55-4.34,9-8.76,13.87-12.77,4.52-3.75,10.3-5.43,15.73-7,9.5-2.82,19.25-4.73,29.36-2.43a47.45,47.45,0,0,1,16.85,7c8.4,5.85,8.57,12.24,4.81,24.05-2.36,7.4-8.56,11.71-14.08,16.37-8,6.73-16.45,12.8-25.93,17.22C191.92,231.52,176.75,238.93,159.55,239.92Z" fill="#d58b51"/><path d="M302.27,169.78l1,.94Z" fill="#895a34"/><path d="M287.18,123.86c-4.49-1.94-9.17-3.59-12-8C279.9,117.41,284.33,119.44,287.18,123.86Z" fill="#643922"/><path d="M274.18,115.87c-2.93-.29-5.76-.76-7-4C270.34,111.71,273,112.55,274.18,115.87Z" fill="#643922"/></svg>